<svg version="1.2" xmlns="http://www.w3.org/2000/svg" viewBox="0 0 640 640" width="640" height="640">
	<title>economy_icon-svg</title>
	<defs>
		<linearGradient id="g1" x1="154.1" y1="537.9" x2="593.9" y2="98" gradientUnits="userSpaceOnUse">
			<stop offset="0" stop-color="#5cd85a"/>
			<stop offset=".3" stop-color="#5cd85a"/>
			<stop offset=".6" stop-color="#5cd85a"/>
			<stop offset="1" stop-color="#5cd85a"/>
		</linearGradient>
	</defs>
	<style>
		.s0 { opacity: .1;fill: #2ab67b } 
		.s1 { fill: url(#g1) } 
	</style>
	<path id="Shape 2" class="s0" d="m374 518c-61.5-3.9-61.4 57.8-122 54-45.3-2.8-61.7-9.1-90-43-38-45.5 21.5-95.7-21-132-23.5-20.1-45.2 2.7-72-17-36.9-27.2-30.8-44.2-42-93-11-47.8-28.5-74.5-3-100 22.2-22.3 43.7-7.6 87-6 42.2 1.6 41.8 8.1 84 12 28.4 2.6 41.6 15.3 57 3 19.5-15.5-3.3-36.3 0-72 1.8-19.1-3.4-24.9 6-38 20.3-28.3 41.2-21.1 81-19.1 45.1 2.1 51.9 5.6 88.5 33 26 19.4 31.4 22.2 43.5 51 22.7 54.2-20.5 66.4-7 126.1 9.9 44 6.9 55.2 40 84 17.6 15.3 23.6 8.4 45 20.9 12.5 7.2 16.6 5.4 24 16.1 17.4 25.1 1.8 34 3 68 1.5 45 20.3 65.9 2 90-30 39.6-76.5 4.5-147-15"/>
	<path id="Path 0" fill-rule="evenodd" class="s1" d="m331.1 98c0.6 0 2 0.4 3.1 0.8 1 0.4 5.6 1.9 10.4 3.3 4.7 1.4 10 2.9 11.8 3.4 1.8 0.5 4.9 1.4 7 2 2 0.7 6.4 2.1 9.8 3.1 3.3 1.1 8.3 2.6 11 3.4 2.7 0.7 5.8 1.6 7 2 1.1 0.4 4.2 1.3 6.9 2.1 2.7 0.8 5.7 1.7 6.6 2 0.9 0.3 3.8 1.2 6.5 2.1 2.7 0.8 6.2 1.8 7.8 2.2 1.5 0.5 4.3 1.3 6.1 1.8 1.8 0.6 5.5 1.7 8.2 2.5 2.7 0.8 7.4 2.3 10.6 3.3 3.2 1 7.9 2.4 10.6 3.2 2.7 0.8 5.7 1.7 6.6 2.1 0.9 0.4 2.5 0.9 3.7 1.1 1.1 0.3 3.9 1 6.1 1.7 2.3 0.6 6.9 1.9 10.2 2.9 3.4 1 6.9 2.1 7.8 2.5 0.9 0.3 3.8 1.2 6.5 2 2.7 0.7 5.8 1.7 7 2 1.1 0.5 4.2 1.4 6.9 2.1 2.7 0.7 6.2 1.9 7.6 2.5 1.4 0.7 3.3 1.2 4.1 1.2 0.8 0 2.7 0.4 4.3 0.9 1.5 0.5 4.1 1.4 5.7 1.9 1.5 0.6 5.1 1.8 7.8 2.5 2.7 0.8 5.5 1.7 6.3 2.1 0.8 0.4 2.6 0.7 3.9 0.7 1.3 0 2.6 0.4 2.8 0.9 0.3 0.5 1.7 1 3.1 1.3 1.4 0.2 5.6 1.4 9.2 2.4 3.6 1.2 9.5 3 13.1 4 3.6 1.2 9.1 2.8 12.3 3.7 3.1 0.9 6.3 2.1 7.2 2.6 1.2 0.8 1.3 1.5 0.7 3.1-0.4 1.2-1.4 4.3-2.2 7-0.8 2.7-1.7 5.8-2.1 6.9-0.4 1.2-1.3 4.3-2 7-0.7 2.7-1.9 6.9-2.6 9.4-0.8 2.4-1.6 5.4-2 6.5-0.3 1.2-1.2 4.3-2 7-0.7 2.7-1.7 5.8-2 6.9-0.4 1.2-1.3 4.3-2 7-0.8 2.7-1.8 6.5-2.4 8.6-0.7 2-1.6 5.3-2.1 7.3-0.6 2.1-1.5 5.2-2.1 7-0.6 1.8-1.5 4.9-2 6.9-0.5 2.1-1.6 5.8-2.2 8.2-0.8 2.5-1.6 5.4-2 6.5-0.3 1.2-1.2 4.3-2 7-0.7 2.7-1.8 6.4-2.5 8.2-0.6 1.8-1.1 4.1-1.1 5.1 0 1-0.4 2-0.9 2.2-0.4 0.3-0.8 1.3-0.8 2.3-0.1 1-0.7 3.7-2.9 10l-4.1-0.3c-2.2-0.1-6.2-0.8-8.9-1.3-4-0.9-4.9-1.3-4.8-2.6 0.1-0.8 0.5-2.8 1-4.4 0.5-1.5 1.4-4.8 2.1-7.1 0.7-2.4 1.8-6.3 2.6-8.6 0.7-2.4 1.6-5.6 1.9-7.2 0.5-1.5 1.4-5.1 2.1-7.8 0.7-2.6 1.7-6.2 2.1-7.7 0.5-1.6 1.3-4.6 1.8-6.7 0.6-2.1 1.2-4.1 1.6-4.5 0.4-0.3 0.6-1.4 0.6-2.3 0-0.9 0.5-3.3 1.2-5.3 0.6-2.1 1.6-5.3 2.1-7.4 0.6-2 1.5-5.5 2.2-7.8 0.7-2.2 1.7-5.7 2.3-7.7 0.6-2.1 1.5-5.3 2-7.4 0.6-2 1.6-5.2 2.2-7.1 0.6-2 1.1-5.6 1.1-8 0-2.6-0.6-6-1.5-7.9-0.9-2-2.8-4.7-4.3-6-1.6-1.4-3.9-2.9-5.2-3.4-1.3-0.5-4.1-1.3-6.2-1.9-2-0.6-5.3-1.5-7.3-2.1-2.1-0.6-5.2-1.4-7-1.9-1.8-0.4-5.4-1.4-8-2.2-2.5-0.6-6.8-1.8-9.3-2.4-2.6-0.7-6.2-1.7-8-2.1-1.8-0.5-5.3-1.4-7.8-2.2-2.4-0.7-8.2-2.4-12.7-3.9-4.5-1.5-10.2-3.3-12.6-4-2.5-0.7-7.6-2.3-11.5-3.4-3.8-1.3-8.2-2.6-9.8-3.2-1.6-0.6-6.2-2.1-10.2-3.4-4-1.2-9.9-3-13.1-4-3.2-1-7.9-2.4-10.6-3.2-2.7-0.9-5.7-1.8-6.6-2.1-0.9-0.4-6.3-2.1-12-4-5.8-1.9-10.9-3.3-11.4-3.3-0.6 0-2.2-0.5-3.6-1.3-1.3-0.6-3-1.2-3.6-1.2-0.7 0-3.3-0.7-5.8-1.7-2.4-0.9-5.6-2-6.9-2.4-1.3-0.4-3.9-1.1-5.7-1.6-1.8-0.5-4-1.2-4.9-1.6-0.9-0.4-3.9-1.4-6.6-2.1-2.7-0.7-5.6-1.6-6.5-2-0.9-0.4-3-1.1-4.5-1.7-1.6-0.5-3.8-1.1-4.9-1.4-1.2-0.1-2.8-0.6-3.7-1-0.9-0.4-3.6-1.3-5.9-2-2.4-0.7-4.9-1.3-5.6-1.3-0.6 0-1.3-0.2-1.5-0.6-0.2-0.4 0.5-3.9 1.6-8 1.2-4.1 2.6-8.6 3.3-10 0.6-1.4 1.7-2.7 2.4-2.7zm-211.4 210.2l82.2 0.4v190.5l-82.2 0.4zm144.6 15.8c31 0.2 40.4 0.5 42.7 1.3 1.5 0.7 3.3 1.4 4 1.7 0.7 0.3 4 1.4 7.4 2.5 3.4 1 6.5 2.2 6.9 2.6 0.5 0.3 1.3 0.6 1.8 0.6 0.6 0 3.9 1.3 7.4 3 3.5 1.5 10.1 4.7 14.6 6.9 4.5 2.2 10.1 5.2 12.6 6.6 2.5 1.4 6.8 4 9.6 5.7 2.8 1.8 5.2 3.2 5.3 3.2 0.1 0 2.5 1.4 10.1 6.4l30.6 0.4c20 0.1 31.8 0.5 34 1.2 1.8 0.5 4.3 1.5 5.7 2.1 1.3 0.7 3.9 2.5 5.7 4 1.8 1.5 4.1 4.4 5.2 6.4 1.5 2.7 2 4.9 2 8.9 0.1 3.6-0.4 6.4-1.5 8.6-0.8 1.8-3.1 5.1-5.3 7.3-2 2.1-5.5 5.1-7.7 6.5-2.3 1.5-6.3 3.6-9 4.8-2.7 1.1-7.4 2.7-10.3 3.4-2.9 0.7-9 1.7-13.4 2.2-4.9 0.6-11.8 0.7-16.8 0.5-4.8-0.3-12.1-0.8-16.4-1.1-6.9-0.5-8.1-0.3-11.2 1.3-2.2 1-4.2 2.9-5.3 4.8-1.3 2.3-1.7 4-1.5 6.9 0.3 2.5 1 4.5 2.5 5.9 1.1 1.3 3.1 2.8 4.5 3.5 2 1.1 4.7 1.4 15.1 1.2 7-0.2 17.4-0.6 23.3-1 5.8-0.4 12.9-1.1 15.6-1.5 2.7-0.5 6.8-1.4 9.4-2 2.4-0.7 5.5-1.6 6.9-2 1.3-0.5 4.3-1.7 6.6-2.8 2.2-1.1 6-3.3 8.5-4.9 2.5-1.6 6.2-4.4 8.2-6.2 2-1.8 5.3-5.5 7.4-8.5 2-2.8 5.4-9.1 7.3-13.8 2-4.7 4-9 4.5-9.5 0.4-0.6 3.4-2.3 6.6-3.8 3.1-1.6 21.5-10.7 40.9-20.2 19.3-9.6 36.6-17.9 38.4-18.5 2-0.7 6.7-1.1 12.7-1.1 8.1 0 10 0.2 14.7 2.1 2.8 1.1 6.9 3.3 9 4.8 1.9 1.5 4.5 3.7 5.5 4.8 0.9 1.3 2.9 4.1 4.2 6.5 1.4 2.4 2.5 5.1 2.5 6.1 0 1 0.5 2 1.3 2.2 0.9 0.4 1.2 1.9 1.2 7 0 4.7-0.4 6.9-1.2 7.8-0.8 0.6-1.3 1.9-1.3 2.8 0 0.9-1.2 3.8-2.6 6.4-1.4 2.5-3.5 5.5-4.5 6.7-1 1.1-1.9 2.2-1.9 2.4 0 0.3-5.3 4.4-12.1 9.1-6.6 4.8-15.4 11.1-19.6 13.9-4.2 2.9-8.2 5.7-9 6.1-0.8 0.5-3.1 1.9-5 3.3-2.1 1.4-8.1 5.3-13.5 8.6-5.3 3.4-11.2 7-13 8-1.9 1.1-3.6 2.2-3.8 2.6-0.2 0.3-1 0.8-1.6 1.1-0.8 0.3-3.1 1.6-5.3 3-2.3 1.3-4.7 2.7-5.4 3-0.7 0.3-1.4 0.7-1.6 1-0.2 0.3-3.6 2.3-7.4 4.5-3.8 2.2-8.1 4.6-9.4 5.3-1.3 0.8-4.5 2.6-6.9 3.9-2.5 1.4-6.4 3.5-8.6 4.7-2.3 1.3-8.7 4.7-14.3 7.6-5.6 3-14.6 7.6-20 10.3-5.4 2.7-15.4 7.6-22.1 10.8-6.8 3.4-15.6 7.8-19.6 9.9-4.1 2.1-8.4 4.3-9.4 4.9-1.2 0.5-4.5 1.8-7.4 2.7-2.9 1-6.6 2.2-8.2 2.6-1.6 0.4-5.5 1.3-8.6 2-4 1-10.5 1.6-21.6 1.7-14.1 0.4-17 0.2-24.2-1.4-4.4-0.9-9.4-2-11-2.4-1.6-0.3-4.2-1.2-5.7-1.6-1.6-0.6-4-1.5-5.3-2.1-1.4-0.5-3.8-1.5-5.3-2-1.7-0.7-6.3-2.9-10.3-4.9-4.1-2.2-12.3-6.4-18.4-9.6-6.1-3.2-16.6-8.6-23.3-12.1-6.8-3.5-17.2-8.9-23.3-12-6.1-3.1-11.5-6.1-12.1-6.7-0.9-0.7-1-16.1-1-78.8 0-42.8 0.2-78.5 0.5-79.1 0.4-1.2 5-1.3 40.3-1zm22.2-198.1c0.4 0 1 0.4 1.2 0.8 0.2 0.5 1.2 0.8 2.1 0.8 0.9 0 4.2 0.9 7.5 2 3.3 1 8.2 2.6 10.9 3.4 2.7 0.8 7.4 2.3 10.6 3.3 3.1 1 7.9 2.3 10.6 3.2 2.7 0.7 6 1.7 7.4 2.1 1.3 0.4 7.4 2.2 13.5 4 6 1.9 13 3.9 15.5 4.7 2.5 0.7 5.3 1.5 6.2 1.8 0.9 0.4 3.6 1.3 6.1 2 2.4 0.7 6.4 1.9 9 2.6 2.4 0.8 5.4 1.7 6.5 2 1.1 0.4 4.3 1.3 7 2 2.7 0.8 5.5 1.7 6.3 2.1 0.8 0.5 2.2 0.8 3.1 0.8 0.9 0 2.8 0.6 4.2 1.1 1.5 0.7 4.4 1.7 6.4 2.2 2 0.5 5.2 1.4 7 2 1.8 0.6 6.5 2 10.6 3.3 4 1.2 8.8 2.7 10.6 3.2 1.8 0.6 4.8 1.5 6.6 2 1.8 0.5 6.5 1.8 10.6 3 4 1.2 8.6 2.6 10.2 3.2 1.6 0.6 5.1 1.7 7.8 2.4 2.7 0.7 6.4 1.8 8.2 2.3 1.8 0.4 4.4 1.3 6.1 1.9 1.5 0.5 5.1 1.7 7.8 2.4 2.7 0.7 5.8 1.6 6.9 2.1 1.1 0.3 5.3 1.6 9.4 2.8 4 1.2 10.5 3.1 14.3 4.3 3.8 1.1 8.4 2.6 10.2 3.2 1.8 0.6 3.9 1.1 4.7 1.1 0.8 0 1.5 0.6 1.5 1.2 0 0.7-0.7 3.4-1.3 6-0.8 2.5-1.8 6.5-2.6 8.7-0.6 2.3-1.4 5.3-1.9 6.6-0.4 1.4-1.3 4.5-2 6.9-0.7 2.5-2 6.6-2.6 9-0.8 2.5-1.5 5.4-1.7 6.6-0.3 1.1-0.8 2.4-1.1 2.8-0.3 0.5-0.9 2.3-1.3 4-0.4 1.8-1 3.3-1.3 3.5-0.3 0.1-0.6 1.4-0.6 2.8 0 1.3-0.3 3.2-0.7 4.3-0.4 1-1.4 4-2.1 6.7-0.8 2.7-1.9 6.5-2.5 8.6-0.6 2-1.6 5.3-2.1 7.3-0.5 2.1-1.5 5.2-2.1 7-0.5 1.8-1.4 4.9-2 6.9-0.5 2.1-1.5 5.6-2.1 7.8-0.7 2.3-1.8 6.1-2.5 8.6-0.7 2.4-1.6 5.1-2 6-0.4 0.7-0.7 1.9-0.7 2.6 0 0.6-0.6 3.2-1.3 5.5-0.7 2.4-1.7 5.8-2.2 7.6-0.5 1.8-1.2 3.6-1.4 3.9-0.2 0.4-1.1 0.4-2-0.1-0.9-0.4-3.6-1.3-5.8-2-2.3-0.6-7.2-2.2-11-3.3-3.8-1.2-10.1-3.1-13.9-4.3-3.8-1.1-9-2.6-11.5-3.3-2.5-0.8-5.1-1.7-5.9-2.1-0.8-0.4-1.9-0.7-2.5-0.7-0.5 0-4.6-1.1-9.1-2.5-4.5-1.3-8.9-2.8-9.7-3.3-0.8-0.4-1.9-0.7-2.6-0.7-0.7 0-2.9-0.5-4.7-1.1-1.9-0.7-5.2-1.6-7.2-2.1-2-0.6-5.1-1.6-6.9-2.2-1.8-0.5-5.5-1.6-8.2-2.3-2.7-0.8-5.5-1.7-6.4-2.1-0.8-0.5-1.9-0.9-2.6-0.9-0.7 0-4.1-0.9-7.6-2-3.5-1.1-9.6-3-13.6-4.2-4.1-1.1-8.9-2.6-10.7-3.2-1.8-0.5-5.4-1.6-8.1-2.3-2.7-0.9-5.7-1.8-6.6-2.1-0.9-0.3-2.9-1-4.5-1.6-1.6-0.6-4.1-1.4-5.7-1.7-1.6-0.4-4.3-1.1-6.1-1.6-1.8-0.4-4.3-1.1-5.3-1.5-1.2-0.5-4.3-1.4-7-2.3-2.7-0.7-5.9-1.6-6.9-1.9-1.2-0.4-4.3-1.3-7-2.1-2.7-0.9-5.6-1.8-6.5-2.1-0.9-0.3-3.6-1.1-5.8-1.9-2.3-0.7-4.7-1.3-5.5-1.4-0.8 0-2.1-0.3-2.9-0.7-0.8-0.4-3.4-1.4-5.9-2-2.5-0.8-6.5-1.9-9-2.7-2.5-0.7-5.2-1.6-6.1-1.9-0.9-0.3-3.8-1.2-6.5-2.1-2.7-0.7-5.9-1.7-7-2-1.1-0.4-4.2-1.3-6.9-2-2.7-0.8-5.4-1.6-6-1.8-0.6-0.1-0.9-1.1-0.7-2.1 0.2-1.1 1-4.1 1.8-6.8 0.7-2.7 1.6-5.9 2-7.3 0.4-1.3 1.2-4.3 2-6.6 0.6-2.2 1.8-6.1 2.4-8.6 0.7-2.4 2.1-7.2 3-10.6 0.9-3.3 2.5-8.9 3.6-12.3 1-3.3 2.5-8.3 3.2-11 0.8-2.7 1.7-6 2.2-7.4 0.4-1.3 1.6-5.7 2.8-9.8 1.2-4 2.6-9 3.2-11 0.6-2 1.6-5.3 2.1-7.4 0.5-2 1.5-5.3 2.1-7.3 0.5-2.1 1.6-5.9 2.3-8.6 0.9-2.7 1.8-6 2.2-7.4 0.4-1.3 1.3-4.2 1.9-6.5 0.8-2.2 1.3-4.7 1.3-5.3-0.1-0.7 0.4-2.1 1.2-3.1 0.7-1 1.7-1.8 2.1-1.8zm32.9 42.3c-0.8 0.9-2.7 2.5-4.3 3.6-1.6 1.1-4.9 2.5-7.3 3-2.6 0.7-5.7 0.9-7 0.6q-2.4-0.5-3.4 0.5c-0.5 0.6-1.6 3.3-2.3 6-0.8 2.7-2 6.5-2.5 8.6-0.6 2-1.5 5.3-2.1 7.3-0.5 2.1-1.3 4.8-1.8 6.2-0.4 1.3-1 3.6-1.5 4.9-0.3 1.4-1.2 4.5-1.9 6.9-0.8 2.5-1.9 6.5-2.6 8.8-0.6 2.4-1.1 4.9-1.1 5.5 0 0.7 0.6 1.2 1.4 1.2 0.8 0 3.4 1.8 5.8 4 2.4 2.1 4.9 5 5.6 6.3 0.7 1.4 1.5 5.5 1.8 9.4l0.5 6.8c4.4 1.1 6.5 1.8 7.4 2.1 0.9 0.4 3.4 1.2 5.7 1.9 2.2 0.7 7.4 2.3 11.5 3.5 4 1.2 9.9 3.1 13 4.1 3.2 1 8 2.4 10.7 3.2 2.7 0.8 5.8 1.7 6.9 2.1 1.1 0.3 5.3 1.6 9.4 2.8 4 1.3 8.6 2.7 10.2 3.3 1.6 0.7 5.1 1.7 7.8 2.5 2.7 0.8 6 1.7 7.4 2.1 1.3 0.4 6.9 2.2 12.4 4 5.5 1.8 10.6 3.3 11.3 3.3 0.6 0 1.8 0.3 2.6 0.7 0.8 0.4 3.3 1.2 5.6 2 2.2 0.6 9 2.8 15.1 4.6 6 1.8 15.8 4.9 21.7 6.7 5.8 1.8 11.4 3.6 12.4 4 1 0.5 3.1 0.8 4.7 0.8 2.2 0 2.9-0.3 2.9-1.4 0-0.8 1.4-3.1 3.1-5.2 1.7-2 4.9-4.5 7.1-5.7 2.7-1.4 6-2.1 9.8-2.4l5.7-0.4c2.7-8.9 4.2-13.9 5-16.8 0.7-3 1.6-6.2 2-7.4 0.3-1.1 1.3-4.2 2-6.9 0.9-2.7 2-6.7 2.7-9 0.6-2.2 1.4-5 1.8-6.1 0.4-1.2 0.9-3.5 1.2-5.1 0.4-3 0.3-3.2-4-6-2.6-1.5-5.2-3.8-6-5.1-0.7-1.2-1.6-2.4-1.9-2.7-0.2-0.2-0.9-2.1-1.4-4.2-0.5-2.1-0.9-5.6-0.9-7.8 0-3.7-0.1-3.9-3.2-5.2-1.6-0.7-5.2-2-7.9-2.8-2.7-0.8-6.2-1.8-7.8-2.3-1.6-0.4-4.1-1.2-5.7-1.8-1.6-0.5-5-1.7-7.7-2.4-2.7-0.8-5.9-1.7-7-2.1-1.1-0.3-5.4-1.6-9.4-2.8-4.1-1.3-8.7-2.7-10.2-3.3-1.7-0.6-6.2-2-10.2-3.3-4.1-1.2-9.3-2.8-11.5-3.5-2.3-0.6-4.8-1.5-5.7-1.8-0.9-0.3-3.7-1.1-6.1-1.9-2.6-0.7-6.6-1.9-9-2.7-2.6-0.7-7.1-2.1-10.3-3.2-3.1-0.9-9-2.8-13-4-4.1-1.2-8.7-2.6-10.3-3.1-1.6-0.5-4.1-1.3-5.7-1.8-1.6-0.6-5.1-1.8-7.8-2.5-2.6-0.7-7.8-2.3-11.4-3.4-3.6-1.1-7.3-2.3-8.2-2.7-0.9-0.4-3.1-1.1-4.9-1.6-1.8-0.5-3.5-0.9-3.8-0.9-0.4 0-1.3 1.5-2.3 3.3-0.9 1.8-2.3 3.9-3.1 4.7zm83.2 37.1c3.3 0 7.4 0.5 10.8 1.5 3 0.9 5.6 2.1 5.6 2.5 0 0.5 0.5 0.8 1.2 0.8 0.7 0 3.2 2 5.6 4.3 2.7 2.7 5.3 6.3 6.9 9.8 2.4 5 2.5 6.2 2.5 13.5 0 5.2-0.4 9.3-1.3 11.6-0.6 2.1-2.3 5.2-3.5 7-1.2 1.8-4.1 4.9-6.2 6.8-2.2 1.9-5.1 4.1-6.5 4.7-1.3 0.8-3.9 1.7-5.7 2.1-1.8 0.5-5.1 1.1-7.3 1.3-2.3 0.2-6.2 0-8.6-0.6-2.6-0.6-6.6-2.2-9-3.5-2.6-1.3-6.3-4.3-8.5-6.6-2.2-2.3-4.4-5.3-5.1-6.7-0.6-1.3-1.6-4.1-2.4-6.1-0.6-2-1.2-6.5-1.2-9.8 0-4.2 0.5-7.6 1.6-10.6 0.9-2.5 2.6-5.8 3.6-7.4 1.2-1.6 3.3-4.2 4.9-5.7 1.5-1.6 5.1-4 8-5.5 2.8-1.5 6.1-2.8 7.3-2.9 1-0.2 4.4-0.5 7.3-0.5z"/>
</svg>