<svg version="1.2" xmlns="http://www.w3.org/2000/svg" viewBox="0 0 640 640" width="640" height="640">
	<title>moderation_icon-svg</title>
	<defs>
		<linearGradient id="g1" x1="63.7" y1="625.1" x2="620.6" y2="68.2" gradientUnits="userSpaceOnUse">
			<stop offset="0" stop-color="#5cd85a"/>
			<stop offset=".3" stop-color="#5cd85a"/>
			<stop offset=".6" stop-color="#5cd85a"/>
			<stop offset="1" stop-color="#5cd85a"/>
		</linearGradient>
	</defs>
	<style>
		.s0 { opacity: .1;fill: #2ab67b } 
		.s1 { fill: url(#g1) } 
	</style>
	<path id="Shape 1" fill-rule="evenodd" class="s0" d="m477.5 204.1c9 31.7 76 8.6 81 39.6 3.3 20.4-15.1 25.6-28.8 52-24.3 46.8-30.6 45.5-45 95.5-16.5 57.4 22.3 91-12.6 120.5-30.1 25.5-56.7 17-104.3 3.6-54.3-15.2-46.6-59.9-97.2-68.3-78.5-13-100.4 103-165.5 80.9-55.8-18.8-92.2-68.3-84.6-133.1 5.4-46 41.9-40.8 66.6-90 30.4-60.5 0.6-77.2 36-133.1 31.1-49 38.5-61.7 89.9-81 76.5-28.6 89.3 11.6 178.2 25.2 19.7 3.1 22.9 3.5 37.3 6 8.1 5.9 18 12.6 28.3 21 10.9 8.8 16.8 16.4 22.2 22.5-4.8 12-5.1 25.9-1.5 38.7z"/>
	<path id="Path 0" class="s1" d="m377 68.2c4.3 0 6.7 0.6 10.1 2.3 3.4 1.8 22.3 20.1 81.5 79.4 51.2 51.3 77.5 78.3 78.5 80.5 0.9 2.1 1.5 5.7 1.5 9.7 0 3.6-0.6 7.5-1.4 9.2-0.7 1.6-21.7 23.3-46.7 48.3-27.9 27.9-46.5 45.8-48.1 46.4-1.4 0.5-2.9 1.1-3.3 1.6-0.4 0.4-3.1 0.6-5.9 0.6-2.9 0-5.4-0.3-5.7-0.9-0.3-0.5-1.2-0.9-2.1-0.9-0.8 0-3.6-1.4-6-3-2.5-1.7-6.1-4.8-8.1-6.8-2-2.1-4.1-3.7-4.5-3.7-0.5 0-21 20-89.6 88.6l2.1 3.4c1.1 1.8 2.6 3.3 3.1 3.4 0.6 0 1.5 0.9 2 2.1 0.4 1 1.6 2.7 2.7 3.7 1.1 1 2 2.4 1.9 3 0 0.5 0.3 1.1 0.6 1.1 0.5 0 1.3 1.2 1.8 2.9 0.6 1.6 1.2 5.3 1.2 8.1 0 3.7-0.6 6.3-2.1 8.9-1.1 1.9-22 23.6-46.9 48.5-24.8 24.8-45.7 45.4-46.4 45.8-0.7 0.5-2.2 0.9-3.4 0.9-1.1 0-2 0.5-2 0.9 0 0.5-2.2 0.9-4.9 0.9-2.7 0-5.1-0.2-5.3-0.6-0.2-0.5-1.7-1-3.4-1.4-2.5-0.6-18.1-15.8-82-79.7-43.4-43.3-78.9-79.2-78.9-79.8 0-0.5-0.8-2.5-1.8-4.4-1-2-1.8-4.7-1.8-6.1 0-1.4 1.2-5.1 2.7-8.3 2.5-5.4 6.4-9.6 47.8-50.9 34.4-34.4 45.6-44.9 47.2-44.9 1.2 0 2.3-0.4 2.6-0.9 0.3-0.6 3.1-0.9 6.3-0.9 4.7 0 6.8 0.5 10.4 2.5 2.7 1.3 5.4 2.8 6.3 3.3 0.9 0.5 2.4 1.7 3.5 2.7 1.1 1 2.5 2.8 3 4 0.6 1.3 1.9 2.4 2.9 2.6 1.3 0.1 13.8-11.7 91.8-89.6l-5.4-4.9c-2.8-2.6-6.4-6.6-8-8.8-2-3.2-2.7-5.4-3.1-9.9-0.4-4.3 0-7.1 1.3-10.8 1.6-4.6 4.5-7.8 47.3-50.6 36.3-36.4 46-45.7 47.9-45.7 1.3 0 2.4-0.3 2.7-0.9 0.4-0.4 3.1-0.9 6.1-0.9zm43.4 323.9c0.4 0 44.7 43.8 98.2 97.3 69.3 69.3 98.1 98.7 99.7 101.8 1.6 2.9 2.3 5.6 2.3 9 0 3-0.8 6-2 8.7-1.2 2.2-3.7 5.7-5.6 7.6-2 2-4.6 4.2-5.9 4.8-1.2 0.6-3.1 1.1-4.1 1.1-1-0.1-2.4 0.5-3.1 1.3-0.8 0.9-2 1.5-2.7 1.5-0.8-0.1-2.2-0.6-3.2-1.5-1-0.7-3-1.3-4.5-1.3-2.3 0-14.9-12.2-201.5-198.7l15.8-15.9c8.6-8.6 16.1-15.7 16.6-15.7z"/>
</svg>