<svg version="1.2" xmlns="http://www.w3.org/2000/svg" viewBox="0 0 640 640" width="640" height="640">
	<title>multilingual_icon-svg</title>
	<defs>
		<linearGradient id="g1" x1="136.1" y1="551.7" x2="581.6" y2="106.2" gradientUnits="userSpaceOnUse">
			<stop offset="0" stop-color="#5cd85a"/>
			<stop offset=".3" stop-color="#5cd85a"/>
			<stop offset=".6" stop-color="#5cd85a"/>
			<stop offset="1" stop-color="#5cd85a"/>
		</linearGradient>
	</defs>
	<style>
		.s0 { opacity: .1;fill: #2ab67b } 
		.s1 { fill: url(#g1) } 
	</style>
	<path id="Shape 1" class="s0" d="m521 225c12.8-78.7 70.2-107.1 39-155-27.3-42-68.1-37-135-37-91.1 0.1-99.2 14.8-180 63-35.3 21-27.9 39.1-65 52-36.5 12.7-53.7-16.3-82 0-53.4 30.8-41.1 75.1-38 150 2.1 50.6-1.7 60 27 101 16.4 23.3 35.3 15.3 45 39 13.5 33.1-17.8 40.4-18 81-0.2 40.4-5.3 64.4 17 81 30 22.4 55.3-12.5 106-35 64.4-28.5 62-80.2 122-72 30.3 4.1 28 31.2 60 39 55.7 13.6 91 10.3 121-30 24.6-33.1 23.4-57.4 6-102-9.4-23.9-25-19-34-43-13.4-35.6 0.9-40.6 4-81"/>
	<path id="Path 0" fill-rule="evenodd" class="s1" d="m393.2 75.5c14.9 0.3 20.7 0.7 28.4 2.1 5.2 1 12.6 2.6 16.3 3.5 3.6 1 10.4 3 15 4.5 4.6 1.6 12.3 4.7 17.1 7.1 4.8 2.2 10.7 5.3 12.9 6.6 2.4 1.5 4.8 2.9 5.5 3.2 0.6 0.3 5 3.2 9.6 6.4 4.6 3.1 10 7.1 12.1 8.7 2.1 1.7 6.7 5.7 10.3 8.9 3.7 3.2 10.2 10.1 14.5 15.1 4.4 5 10.8 13.5 14.3 18.8 3.5 5.2 8.5 13.7 11.1 18.7 2.5 5.1 6.4 13.6 8.5 18.8 2 5.3 5.1 15.1 6.7 21.7 1.7 6.7 3.5 16.8 4.2 22.6 0.7 5.7 1.5 13.6 1.7 17.5 0.4 3.9 0.2 12.2-0.4 18.4-0.5 6.1-1.5 14.7-2.1 18.8-0.6 4-2.3 11.8-3.6 17.1-1.4 5.2-3.8 13.3-5.5 17.9-1.7 4.6-4.9 12.1-7.1 16.7-2.1 4.6-6 11.8-8.5 15.9-2.5 4.1-7.3 11.2-10.7 15.8-3.4 4.6-11.3 13.5-17.5 19.7-6.2 6.2-15.7 14.6-20.9 18.6-5.3 3.9-9.9 7.1-10.3 7.2-0.3 0-1.8 0.9-3.3 1.9-1.5 1-3.5 2.3-4.4 2.8-0.9 0.5-3.2 1.8-5 2.8-1.8 1-3.7 2.2-4.2 2.5-0.5 0.5-4.4 2.3-8.7 4.2-4.4 1.9-11.1 4.7-15.1 6-3.9 1.4-12.3 3.8-18.7 5.4-6.5 1.6-14.9 3.2-18.8 3.6-3.9 0.5-7.9 1.1-8.8 1.3-1.3 0.2-2 1.7-3.4 7.3-1 3.8-2.8 9.3-4 12.3-1.2 3-3.4 7.5-4.9 9.9-1.5 2.6-5.6 7.6-9 11.2-3.4 3.7-7.7 7.6-9.6 8.9-1.8 1.2-4.1 2.6-5 3.2-0.9 0.5-4.2 2.3-7.5 3.8-3.3 1.6-7.8 3.3-10 3.8-2.4 0.6-9.1 1.4-15 1.8-6 0.4-14.9 0.7-28.8 0.8l-9.1 10.7c-5 5.9-13.6 15-19 20.2-5.5 5.4-15 13.5-21.2 18-6.2 4.6-13.7 9.7-16.7 11.3-4.9 2.6-6.1 2.8-12.5 2.8-6.1 0-7.7-0.3-11.3-2.2-2.3-1.2-5.7-3.8-7.5-5.8-1.8-2-4.1-5-5-6.6-1.3-2.3-1.7-4.4-1.6-10.4 0.1-6.2 0.6-9.2 3.1-17.1 1.7-5.3 3.3-11.9 4.1-19.6l-8.4-0.7c-4.6-0.3-11.7-1.2-15.8-2.2-4-0.8-10.3-2.9-14-4.6-3.6-1.7-9.1-4.8-12.1-7-2.9-2.1-8.1-7.1-11.5-11-3.3-3.9-6.1-7.3-6-7.7 0-0.4-0.7-1.6-1.7-3-0.9-1.2-3.1-6.2-8.3-20.2v-106.4l3.1-8.4c1.7-4.5 5-11.1 7.3-14.5 2.3-3.3 6.7-8.7 9.8-11.8 3.2-3.2 7.7-7.1 10-8.7 2.4-1.6 7.6-4.2 11.5-5.8 3.9-1.6 11-3.6 24.1-5.9l-0.4-2.5c-0.1-1.3-0.9-9.4-1.6-18-1.3-14.2-1.3-16.5 0-30 0.7-8 1.9-17.6 2.6-21.3 0.7-3.7 2.2-10.4 3.4-15 1.1-4.6 3.8-12.7 5.9-18 2.1-5.2 5.6-13.2 7.8-17.5 2.3-4.3 5.1-9.4 6.2-11.3 1.2-1.8 2.4-4.1 2.9-5 0.4-0.9 3.6-5.6 7.2-10.4 3.6-4.9 11-13.5 16.6-19 5.5-5.7 13.1-12.9 16.7-16.1 3.7-3.1 10.1-7.8 14.2-10.6 4.1-2.7 11-6.9 15.1-9.2 4-2.4 11.9-6.2 17.2-8.6 5.5-2.2 14.3-5.4 19.7-7 5.4-1.6 13.9-3.6 19-4.6 5.1-0.9 11.6-2.1 14.6-2.5 3-0.4 13.9-0.6 24.2-0.6zm13.5 68.1c-0.1 26.3 0.1 33.5 0.9 33.5 0.5 0 6-0.5 11.9-0.9 5.9-0.5 15.2-1.4 20.5-2.1 5.2-0.7 9.9-1.5 10.2-1.9 0.4-0.3-0.2-3-1.3-6-1.1-3-3.6-8.8-5.6-12.9-1.9-4.2-4.5-9-5.8-10.9-1.1-1.8-2.5-3.9-3-4.7-0.5-0.7-1.8-2.8-3-4.6-1.1-1.7-4.2-5.5-6.7-8.2-2.5-2.8-6.6-6.6-9.1-8.4-2.5-2-5.5-4.1-6.6-5l-2.2-1.4zm-46.9-21.8c-3.9 4-9.4 10.6-12 14.8-2.8 4.1-7.6 12.8-10.7 19.2-3.1 6.4-5.9 12.8-6.2 14.2-0.5 2.4-0.3 2.5 3.2 3.2 1.9 0.3 7.5 1.1 12.3 1.8 4.9 0.6 13 1.4 18 1.7l9.2 0.6c0.9-3.1 1.2-15.7 1.2-29.9 0-14.2-0.2-28.2-0.4-31.1-0.3-2.8-0.8-5.2-1.1-5.2-0.3 0-1.9 0.8-3.5 1.8-1.6 1-6.1 5-10 8.9zm110.4 16.6c3.9 7.7 8 16.8 9 20.1 2 5.7 2.2 6.1 4.5 6.1 1.5 0 7.1-1.5 12.6-3.5 5.5-1.8 10.2-3.6 10.4-3.7 0.3-0.3-1.7-2.5-4.2-5-2.5-2.6-7.4-7-10.8-9.8-3.4-2.7-9.9-7.3-14.2-10.2-4.4-2.8-9.3-6-11-7-1.6-1.1-3-1.7-3.1-1.4 0 0.2 3.1 6.8 6.8 14.4zm-163.4-8.5c-1.4 0.7-5.7 3.6-9.6 6.5-4 3-10.6 8.6-14.9 12.7-4.2 4.2-7.8 7.7-7.8 7.9 0 0.3 4.7 2.1 10.3 4.1 5.7 2 11.4 3.5 12.7 3.3 2-0.3 2.7-0.8 3.6-3.6 0.6-1.8 1.4-4.1 1.8-5 0.4-0.9 1.3-3 1.9-4.6 0.5-1.6 2.6-6.1 4.5-10 1.9-3.9 4.6-9.3 6.1-12 1.6-2.9 2.2-4.7 1.6-4.7-0.5 0.1-2.6 1-4.4 2.1-1.8 1.1-4.4 2.6-5.8 3.3zm-61.2 69.7c-2.3 4.9-5.1 11.8-6.3 15.5-1.2 3.6-2.9 9.6-3.8 13.3-0.9 3.7-2.1 9.8-2.5 13.5-0.5 3.9-0.8 7.3-0.5 7.8 0.2 0.5 9.7 0.8 25.8 0.8 23.6 0 25.5 0 25.9-1.5 0.2-0.7 0.8-6.6 1.3-13.1 0.5-6.4 1.8-17.5 2.9-24.6 1.2-7.1 2.1-13.5 2.1-14.2 0-0.9-2.5-2-8.2-3.6-4.4-1.3-12.5-4.1-17.9-6.1-5.4-2-10-3.6-10.2-3.6-0.2 0-1.3 1.5-2.4 3.5-1.2 2-4 7.5-6.2 12.3zm261.9-9.2c-8.5 3-15.7 5.5-16 5.8-0.3 0.2 0.2 5.6 1.1 11.8 0.9 6.1 2.2 17.4 2.9 25 0.7 7.6 1.4 14.6 1.6 15.6l0.4 1.9h51.4c-0.5-6.8-1.3-12.5-2.2-17.1-1-4.6-3.1-12.2-4.7-17.1-1.6-4.8-4.8-12.9-7.2-17.9-2.3-5.1-5.1-10.5-6.1-12-1.1-1.5-2.2-2.6-2.5-2.6-0.5 0-1.3 0.3-2 0.7-0.6 0.4-8.1 3.1-16.7 5.9zm-189 28.8c-0.7 4.1-1.6 12.5-2.1 18.6-0.4 6.1-0.7 11.4-0.4 11.9 0.2 0.5 10.3 0.8 27.7 0.8 15.1 0 28.2-0.2 29.3-0.4l1.8-0.4c0-40.1 0-40.1-1.8-40.7-1.1-0.4-8-1.2-15.3-1.8-7.4-0.6-17.5-1.6-22.5-2.2-5.1-0.7-10.2-1.5-11.4-1.7-2-0.4-2.3-0.2-3.1 4-0.6 2.4-1.5 7.8-2.2 11.9zm106.8-11.7c-9.2 0.7-17.2 1.6-17.7 1.7-0.8 0.4-1.1 5.3-1.1 20.9v20.4c45.1 0 57.7-0.3 58.5-0.8 1-0.7 1-2.6-0.6-16-1-8.4-2.4-18.6-3.2-22.6l-1.2-7.3c-4.2 0.2-8.3 0.7-11.7 1.2-3.5 0.6-13.8 1.7-23 2.5zm-108.8 82.9c0.3 4.9 0.7 9.4 1 10 0.4 0.7 3.1 1.1 9.1 1.1 4.7 0 12 0.4 16.1 0.8 4.1 0.5 9.7 1.5 12.5 2.2 2.7 0.7 8.2 2.7 12.1 4.6 3.9 1.8 7.2 3.2 7.3 3.2 0.1 0 0.2-6.7 0.2-15 0-12.6-0.2-15.1-1.2-15.5-0.7-0.2-13.9-0.4-29.3-0.4h-28.2zm179.8 2.3c-0.3 5.1-0.9 11.7-1.3 14.6-0.4 3-1.5 10.5-2.4 16.7-1.4 8.8-1.4 11.4-0.7 11.9 0.6 0.3 7.2 2.7 14.8 5.3 7.6 2.5 14.9 5.2 16.3 5.9 1.4 0.7 3.1 1.1 3.7 0.9 0.7-0.1 2.9-3.3 4.8-7 1.8-3.6 4.9-10.1 6.7-14.5 1.9-4.3 4.4-11.4 5.5-15.9 1.2-4.3 3-11.8 3.9-16.7 0.9-4.7 1.7-9.6 1.7-10.6v-1.9c-44.7 0-51 0.3-51.6 1.1-0.4 0.6-1.1 5.2-1.4 10.2zm-263.9-2.9c0.6 3.5 1.7 7.7 2.3 9.6l1.1 3.3 49.2 0.5c-0.9-14.9-1.4-19.6-1.6-20.1-0.3-0.5-9.5-0.8-25.2-0.8-13.7 0-25.4 0.3-26 0.6-0.9 0.5-0.9 1.7 0.2 6.9zm174.5 33.8c14.9 1.1 26.6 2.2 35.5 3.3 8.9 1.1 16.5 1.8 16.9 1.4 0.2-0.3 1.1-3.6 1.8-7.2 0.8-3.7 1.9-11.6 2.6-17.6 0.7-5.9 1.3-13.2 1.4-16l0.3-5.2h-58.9zm-217.9 13.8c-2.4 1.1-6.4 4.2-9.6 7.4-3.6 3.5-6.5 7.6-8.3 11.3l-2.9 5.9c-0.5 91.4-0.5 93.7 1.1 98.9 0.9 3 3.1 7.7 5 10.4 1.8 2.8 4.3 6 5.6 7.3 1.4 1.2 4 3 5.8 4.1 1.8 1 5.4 2.5 7.9 3.4 3.5 1.2 8.2 1.7 20.5 2 8.7 0.2 17.9 0.8 20.4 1.2 3.1 0.6 5.4 1.6 7 3.1 1.3 1.3 3 3.5 3.7 4.8 1.1 2 1.4 4.7 1.4 13.3-0.1 6.2-0.7 15.2-1.6 20.9-0.8 5.5-1.4 10.5-1.2 11.1 0.2 0.7 4.7-2.8 10.8-8.3 5.7-5.3 13.2-12.7 16.7-16.6 3.5-3.9 10-11.3 14.2-16.7 5.4-6.5 9-10.1 11.2-11.1 3-1.5 5.8-1.8 25.9-2.2 20.4-0.5 23-0.8 27.1-2.3 2.5-1.1 6.5-3.1 8.7-4.6 2.3-1.5 5.6-4.4 7.4-6.5 1.7-2 4.4-6.5 5.9-10l2.7-6.2v-94.4c-3.1-7.7-5.1-11.5-6.3-13.3-1.3-1.9-4.1-5-6.4-6.9-2.2-1.9-6.5-4.7-9.5-6.2l-5.3-2.8c-111.4-0.2-145.9 0.1-148.7 0.4-2.7 0.4-6.9 1.5-9.2 2.6zm217.5 84.2c6.8-4.1 11.8-8.3 15.5-12 3.7-3.7 8.4-9.2 10.5-12.2 2.2-2.9 6.1-9.9 8.9-15.4 2.7-5.5 5.8-12.6 7-15.8 1.5-4 1.8-5.9 1.2-6.4-0.5-0.4-3.4-1.1-6.4-1.6-3-0.5-9.7-1.5-15-2.1-5.3-0.7-12.4-1.2-15.7-1.2h-6zm72.1-46.8c-1.2 3.5-3.8 9.7-5.7 13.8-2 4.2-4.9 10-6.6 12.9-1.7 3-3 5.7-2.9 6 0.1 0.4 3.3-1.1 7-3.4 3.6-2.2 9.8-6.2 13.7-9 4-2.8 10.6-8.4 14.9-12.4 4.2-4.1 7.4-7.7 7.1-8.1-0.4-0.3-5-2.1-10.3-3.9-5.2-1.8-10.6-3.3-11.8-3.3-1.3 0-2.5 0.2-2.7 0.6-0.2 0.3-1.4 3.4-2.7 6.8zm-263.9-7.5l56.5 0.2c56 0.2 56.4 0.3 59.3 2 1.6 1 4.1 3.1 5.6 4.8 2.5 2.8 2.8 3.4 2.8 8.9 0 5.5-0.2 6-3.2 9.3-1.7 1.9-4.4 4.1-6 4.8-2.6 1.1-9.2 1.4-53.9 1.5-28 0-53.7-0.2-57.1-0.6-4-0.4-7-1.4-8.4-2.4-1.2-0.8-3.2-2.8-4.4-4.4-2-2.5-2.3-3.5-2.3-8.7-0.1-4.4 0.3-6.2 1.5-7.9 0.9-1.1 3.4-3.2 5.6-4.8zm-1.6 53.4l57.6 0.2c49.5 0.3 58 0.5 59.7 1.5 1.2 0.7 3 2 4.1 3 1.1 0.9 2.7 3.1 3.5 4.8 0.9 1.7 1.6 4.3 1.6 5.9 0 1.5-0.8 4.3-1.8 6.4-1.1 2.2-3.4 4.7-9.1 8.7l-56.5 0.4c-54.9 0.2-56.6 0.2-59.9-1.4-1.8-0.9-4.5-3-6-4.6-1.9-2.2-2.8-4.2-3.3-7-0.2-2.2 0-5.4 0.4-7 0.6-1.7 2.6-4.5 5.2-6.9z"/>
</svg>