<svg version="1.2" xmlns="http://www.w3.org/2000/svg" viewBox="0 0 500 500" width="500" height="500"><defs><linearGradient id="P" gradientUnits="userSpaceOnUse"/><linearGradient id="g1" x1="111.6" y1="416.7" x2="419.2" y2="109.2" href="#P"><stop stop-color="#5cd85a"/><stop offset=".3" stop-color="#5cd85a"/><stop offset=".7" stop-color="#5cd85a"/><stop offset="1" stop-color="#5cd85a"/></linearGradient></defs><style>.a{opacity:.1;fill:#2ab67b}.b{fill:url(#g1)}</style><path class="a" d="m406.7 167.8c-5.7-7.9-5.7-9.2-7-19-6.3-46.1 25.1-66.9 7.8-95-32-51.8-110.1-43.3-176.1-0.8-32.5 20.9-15.5 57.5-50 70.8-28.9 11-37-15.1-71.7-10.4-27.5 3.7-36 3-53.5 20.7-38 38.4-25.9 64.5-17.3 123.4 9.9 67 45.2 59.4 63.1 126.9 7.3 27.8-7.1 39.2 6.9 57.9 37.7 50.4 87.9 46.2 156.2 21.5 37.5-13.5 28.2-39.9 67.3-54.3 21.3-7.9 25 1.8 46.6-6.1 17.1-6.2 22.7-5.3 32-19 11.6-17.1-1.6-24 3.4-46.6 5.8-26 9.4-25.3 19.9-50 16.1-38.1 43.3-44.5 34.5-75.1"/><path fill-rule="evenodd" class="b" d="m277 109.2c68.6 0.1 97.9 0.4 101.7 0.9 3 0.4 7.8 1.6 10.6 2.4 2.7 1 6.9 2.9 9.1 4.4 2.3 1.4 5.8 4.5 7.8 6.7 2.1 2.2 5 6.4 6.7 9.4 1.5 2.9 2.8 5.8 2.8 6.3 0 0.6 0.4 1.8 0.9 2.7 0.5 1 1.3 3.2 1.8 5.1 0.5 2.3 0.8 8.9 0.8 19.4 0 12-0.3 17.2-1.1 21.3-0.6 3-1.4 5.7-1.6 6.1-0.4 0.4-0.8 1.7-1.1 2.9-0.2 1.2-0.7 2.6-1 3-0.5 0.5-1.7 2.7-2.8 5-1.2 2.2-2.7 4.9-3.2 6.1-0.6 1.1-1.1 3-1.1 4.2-0.1 1.2 0.7 3.7 1.6 5.4 1 1.8 2 3.5 2.4 4 0.4 0.4 1.3 2.3 2 4.2 0.8 2 1.6 3.6 1.9 3.6 0.3 0 0.5 0.8 0.5 1.8 0 1.1 0.5 2.6 1 3.4 0.6 0.9 1.4 3.8 1.7 6.4 0.4 2.7 0.8 11.7 0.8 19.9 0 11-0.3 16.2-1 19.8-0.7 2.7-1.4 5.1-1.8 5.3-0.4 0.2-0.7 1.1-0.7 2.2 0 1-0.6 2.6-1.3 3.5-0.8 1-1.4 2.1-1.4 2.6 0 0.4-1.4 3.2-3.1 6.1-1.7 3-3 6.1-3 7.3 0 1.1 1.3 4.2 2.9 7.1 1.6 2.8 3.4 6.1 3.9 7.3 0.6 1.3 1.2 2.3 1.5 2.2 0.3 0 0.5 0.7 0.5 1.7 0 0.9 0.4 2.4 0.8 3.2 0.4 0.9 1.2 3.4 1.7 5.6 0.7 2.9 1 9 1 20.4 0 12.2-0.3 17.5-1 21.1-0.7 2.7-1.4 5.1-1.8 5.3-0.4 0.2-0.7 1-0.7 1.8 0 0.9-0.8 3.1-1.8 5-0.9 1.8-2.9 5-4.5 7-1.6 2.1-4.7 5.3-7 7.2-2.3 1.9-4.9 4-5.7 4.6-0.9 0.7-2.2 1.2-2.8 1.2-0.6 0-1.7 0.5-2.2 1-0.6 0.6-2.7 1.4-4.6 1.8-2 0.3-3.7 0.8-3.9 0.9-0.2 0.2-3.9 0.6-8.2 1-4.9 0.5-36.7 0.7-85.1 0.7-42.5 0-91.8-0.2-109.5-0.4-26.2-0.3-32.5-0.6-33.6-1.3-0.7-0.6-2-1-2.9-1-0.8 0-4.4-1.4-7.8-3.2-4.8-2.4-7.4-4.3-11.3-8.2-2.9-3-6.1-7-7.3-9.3-1.2-2.2-3-7.1-4.1-10.8-1.8-6.7-1.9-7.2-1.9-23.8 0.1-16.2 0.2-17.2 1.9-23.7 1-3.8 3.6-10.2 5.7-14.6 2.1-4.3 3.9-8.7 4-9.9 0-1.2-1.6-5.2-3.9-9.8-2.2-4.3-4.7-10.5-5.7-13.9-1.7-5.8-1.8-6.8-1.9-23.4-0.1-16.9 0-17.4 1.8-24 1.1-4.1 3.5-10.1 5.9-14.8 2.3-4.4 4.1-8.7 4.1-9.6 0-1-1.8-5.3-4.1-9.5-2.3-4.6-4.8-10.5-5.9-14.5-1.8-6.4-1.9-7-1.8-23.9 0-16.6 0.1-17.5 1.8-24 1-3.8 2.8-8.5 4-10.5 1.1-2.1 4-6 6.5-8.8 2.6-2.7 6.3-6 8.3-7.1 2.1-1.2 5.4-2.9 7.5-3.6 2-0.8 4.9-1.8 6.4-2.3 1.5-0.4 9.9-1 18.7-1.3 8.7-0.3 59.2-0.4 112.2-0.3zm-133.3 23.4c-0.9 0.4-2.9 2.1-4.6 3.6-1.6 1.5-3.4 3.7-4 4.8-0.6 1.1-1.5 3.8-2 5.8-0.6 2.7-0.8 8.8-0.7 22.7 0.2 18.6 0.2 19.1 1.8 22.4 0.9 1.8 3.2 4.9 5.1 6.8 2.4 2.4 4.3 3.6 6.5 4.2 1.7 0.5 6.2 1.1 10.2 1.5 5 0.6 38.1 0.7 115.9 0.5 77.2-0.2 109.6-0.5 111.5-1.1 1.3-0.4 3.4-1.5 4.5-2.4 1.1-1 2.2-1.7 2.4-1.7 0.1 0 1.1-0.7 2-1.7 1-0.9 1.7-1.8 1.7-2 0-0.2 0.6-1.2 1.3-2.3 0.7-1 1.6-4 2-6.5 0.4-2.7 0.8-11.6 1-20.1 0.3-12 0.2-16.1-0.6-19.3-0.6-2.2-1.7-5.3-2.6-6.8-0.9-1.5-2.9-3.9-4.5-5.3-1.7-1.5-4-3.1-5.1-3.6-1.1-0.4-4.6-1.1-7.8-1.5-3.9-0.6-40.4-0.8-114.2-0.7-84.1 0.1-109.6 0.3-113.3 0.9-2.7 0.5-5.5 1.3-6.5 1.8zm77.6 92.9c-30.9 0-60.3 0.2-65.3 0.5-7.9 0.5-9.7 0.8-12.6 2.3-2 1-4.6 3.1-6.3 5.2-1.6 1.9-3.2 4.7-3.7 6-0.4 1.6-0.8 9.4-1 20.2-0.1 10.1 0.1 19.6 0.5 22.3 0.3 2.5 1.2 5.5 1.7 6.5 0.5 1.1 2.2 3.4 3.5 4.9 1.4 1.5 3.7 3.3 5.1 4 1.4 0.8 4.8 1.7 7.5 2.1 3.6 0.6 36.2 0.8 118.3 0.8l113.3 0.1c3.3-2.4 4.5-3 4.9-3 0.3 0 2.1-1.5 3.8-3.2 1.7-1.9 3.8-4.4 4.4-5.7 0.6-1.2 1.5-4 2-6.1 0.5-2.5 0.7-9.7 0.5-23l-0.2-19.3c-3.3-4.8-5.6-7.4-7.2-8.9-1.6-1.5-4.2-3.6-5.6-4.4l-2.8-1.7c-80.7 0-104.3 0.1-104.3 0.2-0.2 0.1-25.5 0.2-56.5 0.2zm-78.6 98.4c-1.1 0.6-3.2 2.4-4.6 4-1.4 1.7-3.2 4.3-4 5.7-0.9 1.7-1.5 4.5-1.6 7.5-0.1 2.6-0.4 10.2-0.6 17-0.1 6.7 0 14.6 0.4 17.6 0.5 4.6 1 6 3.2 9.1 1.4 2.1 4.1 4.9 5.9 6.3 1.9 1.4 4.9 2.9 6.8 3.4 2.7 0.7 27.4 0.9 119.5 0.9h116c2.5-2.4 3.6-3.1 4.1-3.1 0.4 0 2.6-2 4.9-4.5 3.2-3.7 4.2-5.3 4.6-7.7 0.2-1.7 0.4-11.7 0.4-22.4 0-14.2-0.2-20.1-0.8-22.4-0.7-2.2-2.3-4.3-5.8-7.8-3.5-3.5-5.7-5.1-7.6-5.7-1.9-0.5-36.2-0.7-117.3-0.6-88.6 0-115.4 0.2-118 0.8-1.9 0.5-4.3 1.3-5.5 1.9zm76.7-166.3l2.5 1.7c1.4 1 3 2.6 3.5 3.6 0.5 1.1 1 2.5 1.1 3.2 0.1 0.8 0.1 2.1 0.1 2.9 0 0.9-1.3 2.8-5.5 7.3h-54.9l-2.4-2.4c-1.4-1.3-2.8-3.4-3.1-4.7-0.3-1.4-0.3-3.3 0-4.4 0.3-1.1 1.6-2.9 2.7-4.1 1.9-1.8 2.7-2.1 7.7-2.4 3-0.2 15.2-0.5 48.3-0.7zm94.6 0.5c0.9 0.2 2.2 0.6 2.7 1 0.5 0.2 2 1.4 3 2.6 1.8 1.8 2.1 2.7 2.1 5.8 0 2.9-0.4 4-1.7 5.4-1 1-2.6 2.3-3.7 2.9q-2.1 1-4.8 0.6-2.7-0.4-4.9-2.6c-1.3-1.2-2.6-3.3-2.9-4.6-0.3-1.4-0.3-3.3 0-4.4 0.3-1.1 1.5-2.9 2.5-3.9 1-1.1 2.9-2.2 3.9-2.5 1.2-0.3 2.8-0.4 3.8-0.3zm45.8 0.2c1.2 0 3.4 0.5 4.7 1 1.3 0.6 2.9 1.7 3.4 2.6 0.5 0.8 1.2 2.5 1.6 3.5 0.3 1.2 0.3 3 0 4.1-0.3 1.2-1.5 3.1-2.8 4.3-1.5 1.5-3.1 2.3-4.9 2.6-1.9 0.2-3.5-0.1-5.1-0.9-1.3-0.7-3-2.3-3.9-3.6-1.3-1.9-1.6-3-1.3-5.4 0.3-2.5 0.9-3.6 3.1-5.6 2.1-2 3.3-2.6 5.2-2.6zm-163.7 95.2c23.1 0.1 24.3 0.2 26 1.5 1 0.7 2.4 2.1 3.2 3 0.9 1.1 1.3 2.8 1.3 4.8 0 1.9-0.4 3.6-1.3 4.7-0.6 0.8-2.1 2.2-3.1 3-1.8 1.4-2.7 1.4-24.1 1.6-12.2 0.2-24.4 0.1-27.2-0.2-4.7-0.4-5.3-0.7-7.5-3-1.3-1.3-2.6-3.3-2.8-4.4-0.2-1.1-0.3-2.7-0.1-3.4 0.1-0.8 1.2-2.6 2.4-4 1.9-2.3 2.8-2.8 5.6-3.2 1.9-0.3 14.3-0.4 27.6-0.4zm118.2 0.2c1.2 0.2 2.8 0.9 3.7 1.5 1 0.7 2.3 2.3 3 3.8 0.6 1.3 1.1 3 1.1 3.8 0 0.7-0.6 2.5-1.3 4-1.1 2.1-2.2 3.1-4.4 4.1-2.5 1.1-3.6 1.2-5.6 0.7-1.4-0.4-3.3-1.3-4.1-2.2-0.8-0.9-1.9-2.7-2.5-4.1-1-2.3-1-2.7 0.2-5.4 0.7-1.6 1.8-3.4 2.5-4 0.7-0.7 2.3-1.5 3.3-1.9 1.2-0.4 3-0.5 4.1-0.3zm47.5 0.1c1.1 0.1 2.8 0.8 3.7 1.4 1 0.7 2.4 2.6 3.3 4.2 1.5 2.9 1.5 3.2 0.5 5.7-0.7 1.5-1.8 3.4-2.6 4.3-0.8 0.9-2.7 1.8-4 2.2-2.1 0.5-3.2 0.4-5.7-0.7-1.6-0.7-3.5-2-4-2.8-0.6-0.9-1.1-2.7-1.2-4-0.1-1.4 0.3-3.6 0.9-5.1 0.6-1.5 1.6-3.1 2-3.5 0.6-0.5 1.9-1.1 3-1.5 1.2-0.3 3-0.5 4.1-0.2zm-172.6 94.6c8.4 0 19 0.2 23.5 0.4 8 0.4 8.4 0.5 10.5 2.5 1.1 1.1 2.5 3 3 4.3 0.7 1.5 0.8 2.7 0.4 4.4-0.4 1.1-1.9 3.3-6.2 7.2l-54.2-0.3-2.2-2.1c-1.1-1-2.6-3-3-4.2-0.7-1.6-0.8-2.8-0.3-4.4 0.3-1.2 1.6-3.2 2.9-4.4 1.8-1.9 2.9-2.4 6.3-2.8 2.2-0.4 10.9-0.6 19.3-0.6zm122.7 0.5c1.2 0 3.1 0.4 4.3 1 1.2 0.4 2.9 1.7 3.9 2.7 1.3 1.5 1.7 2.5 1.7 5.5 0 3.1-0.3 3.9-2.1 5.8-1 1.1-2.9 2.5-4 3-1.5 0.7-2.7 0.8-4.4 0.2-1.3-0.3-3.4-1.6-4.6-2.8-1.3-1.2-2.6-3.3-2.9-4.7-0.5-1.9-0.4-3 0.3-4.4 0.5-1.1 2-2.9 3.4-4.1 1.6-1.4 3.2-2.2 4.4-2.2zm49.9 0.3c1.8 0.3 3.5 1.1 4.9 2.6 1.2 1.2 2.5 3.1 2.8 4.2 0.4 1.4 0.3 2.9-0.3 4.8-0.6 1.5-1.5 3.2-2.1 3.9-0.7 0.6-2.5 1.6-3.9 2.1-1.9 0.6-3.4 0.8-4.8 0.3-1.1-0.3-3.1-1.6-4.4-2.9-2.1-2.2-2.4-2.8-2.4-6.1 0-2.6 0.4-4.2 1.4-5.5 0.8-1.1 2.4-2.3 3.7-2.8 1.4-0.5 3.5-0.8 5.1-0.6z"/></svg>