<svg version="1.2" xmlns="http://www.w3.org/2000/svg" viewBox="0 0 1000 1000" width="1000" height="1000">
	<title>france_flag</title>
	<style>
		.s0 { fill: #ec2028 } 
		.s1 { fill: #068241 } 
		.s2 { fill: #eeeeee } 
		.s3 { fill: #141414 } 
	</style>
	<g id="Layer 6">
		<path id="Path 0" class="s0" d="m258 150v120.8c0 66.4 0 169.5 0 229.2 0 59.7 0 162.8 0 350l-74.8-0.4c-64-0.3-75.6-0.5-81.2-1.9-3.6-0.9-9.2-2.5-12.5-3.5-3.3-1.1-9.4-3.6-13.5-5.7-4.1-2.1-10.8-6.1-14.9-8.9-4-2.8-10.9-8.8-15.2-13.3-4.4-4.6-10-11.6-12.6-15.5-2.6-4-6.2-10.7-8.1-14.8-1.8-4.1-4.2-10.6-5.3-14.5-1.1-3.9-2.4-7.5-2.9-8-0.7-0.7-1-90.3-1-262.8 0-167.4 0.3-262.3 1-263.4 0.5-1 1.9-5.2 3.1-9.3 1.2-4.1 3.6-10.7 5.3-14.5 1.8-3.8 5.3-10.3 7.9-14.2 2.6-4 8.2-11 12.4-15.4 4.3-4.5 10.5-10.1 13.8-12.4 3.3-2.4 8.5-5.7 11.5-7.5 3-1.8 8-4.3 11-5.5 3-1.3 9.1-3.3 13.5-4.5 4.4-1.2 11.6-2.5 16-2.9 4.4-0.5 39.2-0.9 146.5-1.1z"/>
		<path id="Path 1" class="s1" d="m258 150l634.5 0.6 8 2.2c4.4 1.2 9.6 2.7 11.5 3.3 1.9 0.7 7.1 2.9 11.5 5.1 4.4 2.2 11.3 6.3 15.4 9.2 4 2.8 10.9 8.8 15.2 13.4 4.4 4.5 10 11.5 12.6 15.5 2.6 3.9 6.2 10.6 8.1 14.7 1.8 4.1 4.7 12.3 9.2 29v149h-726v-121z"/>
		<path id="Path 2" class="s2" d="m983.5 392.5v214l-725.5 0.5-0.2-106.8c-0.1-58.8 0.2-107.2 0.7-107.5 0.5-0.4 163.8-0.6 725-0.2z"/>
		<path id="Path 3" class="s3" d="m621.3 607c197.8 0 360.4 0.2 361.2 0.5 1.3 0.4 1.5 9.6 1.5 74 0 60.9-0.3 74.6-1.5 79.8-0.8 3.4-2.4 9.3-3.6 13.2-1.1 3.9-4.1 11-6.6 16-2.5 5-6.9 12.1-9.8 16-2.9 3.9-8.4 9.9-12.1 13.5-3.8 3.6-10 8.6-13.9 11.2-3.8 2.5-10.4 6.2-14.5 8.2-4.1 1.9-11.5 4.7-16.5 6.1-4.9 1.4-13.5 3-19 3.5-5.8 0.5-140.7 0.9-628.5 1l-0.2-120.5c-0.1-117.8-0.1-120.4 1.8-121.4 1.3-0.7 119.3-1 361.7-1.1z"/>
	</g>
</svg>
