<svg version="1.2" xmlns="http://www.w3.org/2000/svg" viewBox="0 0 1000 1000" width="1000" height="1000">
	<title>usa_flag</title>
	<style>
		.s0 { fill: #4357ee } 
		.s1 { fill: #e32222 } 
		.s2 { fill: #ffffff } 
	</style>
	<g id="Layer 1">
		<path id="Path 0" class="s0" d="m500 155l0.3 18.8c0.1 10.3 0.3 34 0.3 52.7 0.1 18.7 0.1 35.8 0 38 0 2.2-0.1 13.2-0.1 24.5 0 11.3 0.1 22.3 0.3 24.5 0.1 2.2 0.3 37.1 0.3 77.5 0 40.4-0.3 87.3-1.6 135h-474.5v-57.3c0-31.4-0.3-84.4-0.6-117.7-0.2-33.3-0.1-71.1 0.5-84 0.7-17.3 1.5-26 3-33 1.4-6.2 3.7-12.6 6.7-18.5 2.5-4.9 6.3-11.5 8.3-14.5 2-3 7.6-9.6 12.6-14.6 4.9-5 11.3-10.3 14-11.9 2.7-1.6 5.9-3.6 7-4.6 1.1-0.9 5.4-3.1 9.5-4.9 4.1-1.7 10.7-4 14.5-5.1 3.8-1.1 10.4-2.4 14.5-3 4.1-0.5 8-1.1 8.5-1.4 0.5-0.2 85.5-0.4 376.5-0.5zm474.2 98.5c0.5 0.4 0.8 3.5 0.6 7-0.2 3.5-0.6 6.1-1 5.9-0.5-0.2-0.8-3.4-0.7-7 0.1-3.9 0.5-6.3 1.1-5.9zm0.3 56.5c0.3 0 0.5 1.6 0.5 3.5 0 1.9-0.5 3.5-1 3.5-0.5 0-1.2-0.6-1.4-1.3-0.2-0.6 0-2.2 0.5-3.5 0.5-1.2 1.1-2.2 1.4-2.2zm0.2 54.5c0.3 1.1 0.3 3.1 0.1 4.5-0.3 2.4-0.4 2.4-1.5 0.5-0.7-1.4-0.8-2.7 0-4.5 1-2.3 1.1-2.3 1.4-0.5zm-0.2 51.5c0.3 0 0.5 1.6 0.5 3.5 0 1.9-0.5 3.5-1 3.5-0.5 0-1.2-0.6-1.4-1.3-0.2-0.6 0-2.2 0.5-3.5 0.5-1.2 1.1-2.2 1.4-2.2zm0 53c0.3 0 0.5 2 0.5 4.5 0 2.5-0.3 4.3-0.7 4.1-0.5-0.2-1.1-1.2-1.4-2.2-0.3-1.1-0.2-2.9 0.2-4.2 0.5-1.2 1.1-2.2 1.4-2.2z"/>
		<path id="Path 1" class="s1" d="m499.7 155h388.8l10.5 3.4c5.8 1.8 13.4 4.7 17 6.3 3.6 1.6 7.2 3.7 8 4.7 0.8 0.9 2 1.7 2.5 1.6 0.5 0 4.6 2.9 9 6.4 4.4 3.5 10.3 8.9 13 11.9 2.8 3 7.3 8.1 10 11.2 2.8 3 4.6 5.9 4.2 6.3-0.5 0.4-27.9 1-61 1.3-33.1 0.4-136.7 0.7-230.2 0.8-93.5 0-170.1 0-170.2-0.2-0.2-0.1-0.6-12.2-1-26.9zm72.4 107.5c32.7 0.1 136.2 0.2 400.5 0.5l1.2 2.7c0.9 1.9 1.3 8.8 1.3 22.8 0 13.9-0.4 20.8-1.3 22.6-0.7 1.5-2.1 3-3.2 3.3-1.1 0.3-107.1 0.5-469 0.6l-0.8-4.8c-0.4-2.6-0.7-12.2-0.7-21.3 0-9 0.3-18.6 1.5-25.9l5.5-0.3c3-0.1 32.2-0.2 65-0.2zm-71 105.4l235.3 0.3c207.5 0.2 235.6 0.4 237.1 1.7 1.5 1.4 1.7 4.1 1.6 23 0 15.2-0.4 22.3-1.3 24.2-0.8 1.8-2.3 2.9-4.2 3.3-1.7 0.3-107.8 0.6-468.5 0.5v-26.5zm0.5 104.8l8 0.6c4.4 0.4 110.3 0.7 463 0.7l1.2 2.7c0.9 2 1.3 9.4 1.3 49.3h-475v-12.3c0-6.7 0.3-18.7 0.7-26.6zm-476.5 106.2h950v53h-950v-26.5zm0 106h950v52.5h-950v-26.2zm477.2 107.4c252.8 0 460 0.4 460.5 0.8 0.4 0.4-1.5 3.2-4.2 6.3-2.7 3.1-7.2 8.1-10 11.2-2.7 3-8.6 8.4-13 11.9-4.4 3.5-8.4 6.4-9 6.4-0.5-0.1-1.7 0.6-2.5 1.5-0.8 0.9-4.6 3.1-8.5 5-3.8 1.8-11 4.6-25 9l-779 0.5-7.5-2.5c-4.1-1.4-8-2.5-8.7-2.5-0.7 0-5.1-1.8-9.8-4-4.7-2.2-8.7-4.5-9-5-0.3-0.6-1.9-1.7-3.7-2.5-1.8-0.8-6.3-3.9-10-7-3.7-3-10.9-10.3-16-16.1-5.1-5.9-9.4-11-9.5-11.5-0.2-0.5 1-1.1 2.5-1.3 1.5-0.2 209.6-0.3 462.4-0.2z"/>
		<path id="Path 2" class="s2" d="m961.9 207c0.9 0.1 2.8 2 4.3 4.3 1.4 2.3 3.2 6.4 4 9.1 0.8 3.1 2 5.2 3.1 5.5 1.7 0.6 1.8 1.8 1.5 14.3-0.2 7.5-0.6 13.4-1 13.2-0.5-0.2-0.9 1.7-1.3 9.1h-234.7c-192.2 0-234.9-0.2-236-1.3-1-1-1.2-6.8-1-26 0.1-13.6 0.5-24.9 0.8-25.2 0.3-0.3 103.4-0.8 229.1-1.2 125.6-0.3 228.7-0.9 229.1-1.2 0.3-0.3 1.2-0.6 2.1-0.6zm-224.4 108.2c206.5 0.3 234.4 0.5 235.9 1.8 1.5 1.3 1.7 4 1.7 23-0.1 15.1-0.5 22.3-1.3 24.2-0.7 1.5-2.2 2.9-3.3 3.2-1.1 0.3-107 0.6-235.2 0.6-154.6 0-233.5-0.3-233.8-1-0.3-0.6-0.6-11.7-0.7-24.8-0.2-19.1 0-24.2 1.1-25.6 1.3-1.5 17.5-1.6 235.6-1.4zm-0.5 106c206.9 0.3 234.9 0.5 236.4 1.8 1.5 1.3 1.7 4 1.7 23-0.1 15.1-0.5 22.3-1.3 24.2-0.7 1.5-2.2 2.9-3.3 3.2-1.1 0.3-103.5 0.6-227.5 0.6-124 0-229.2-0.3-242-1.5l-0.2-25.1c-0.1-13.8 0.2-25.4 0.7-25.7 0.5-0.4 106.5-0.6 235.5-0.5zm-712 104.8h950v53h-950v-26.5zm0 106h950v53h-950v-26.5zm949.5 105.5l0.3 17.8c0.2 16.8 0.1 17.7-1.8 18.7-1.3 0.6-2.3 2.7-3 5.8-0.5 2.6-1.8 5.8-2.8 7.2-1.1 1.4-2.1 3.1-2.3 3.8-0.3 1-92.5 1.2-464.9 1.2-371.9 0-464.6-0.2-464.9-1.2-0.2-0.7-1.2-2.4-2.3-3.8-1-1.4-2.4-4.7-3.1-7.4-0.7-2.8-1.9-5.1-2.7-5.3-1.2-0.3-1.6-3-2.1-13.1-0.4-7-0.4-15.1 0.6-23.2l11-0.3c6-0.1 219.6-0.3 938-0.2zm-869.2-522l2.6 5.3c2 3.9 3.3 5.5 5.6 6.1 1.7 0.6 4.9 1.2 11.5 2.1l-1.4 2.8c-0.8 1.5-2.8 4.5-4.6 6.7-2.6 3.2-3 4.6-2.5 7 0.3 1.7 0.9 4.5 1.3 6.3 0.6 2.7 0.4 3.2-1 3.2-1 0-3.6-0.9-5.8-2-2.2-1.1-5.2-2-6.7-2-1.6 0-4.3 0.9-6 2-1.8 1.1-4.3 2-5.5 2-2.2 0-2.3-0.2-1.6-6.2 0.6-6 0.5-6.5-2.8-11.3-1.9-2.7-3.4-5.8-3.4-6.7 0-1 0.8-2 1.8-2.2 0.9-0.2 3.4-0.7 5.5-1 2.6-0.4 4.5-1.6 6.5-4 1.5-1.8 3.6-4.4 4.6-5.7zm314.7 0.5c0.5 0 2.3 2 4 4.5 1.6 2.5 4 5.2 5.2 6 1.3 0.8 4 1.5 6 1.5 2.7 0 4 0.5 4.4 1.7 0.3 1 0.1 2.9-0.5 4.3-0.6 1.4-2 3.4-3.1 4.5-1.7 1.7-2.1 3.2-2 9.2 0 5.8-0.3 7.3-1.5 7.3-0.8 0-3.3-0.9-5.5-2-2.2-1.1-5.1-2-6.5-2-1.4 0-4.5 1-7 2.2q-4.5 2.3-5.5 1.3c-0.7-0.7-0.6-2.8 1.3-12l-4.1-5c-2.3-2.8-4.2-5.8-4.2-6.8 0-1.1 0.9-1.9 2.7-2.1 1.5-0.3 4.5-0.7 6.5-1 3.4-0.6 4-1.1 6.3-6.1 1.3-3 2.9-5.5 3.5-5.5zm-208.6 1.3c0.6 0.2 2 2.3 3.2 4.8 1.3 2.8 2.9 4.6 4.5 5.1 1.3 0.3 4.5 0.9 7.1 1.2 2.6 0.3 4.8 0.8 4.8 1.1 0 0.3-0.8 1.7-1.7 3.2-0.9 1.6-3 4.1-4.7 5.8-2.9 2.9-3 3.2-2.3 9.2 0.5 4.7 0.4 6.4-0.6 6.7-0.7 0.2-3.4-0.5-6-1.5-2.6-1.1-5.7-1.9-7-1.9-1.2 0-3.7 1.1-5.6 2.3-3.4 2.2-3.4 2.2-4.8 0.2-0.7-1.1-1.3-4.3-1.3-7 0-4.1-0.6-5.9-3.5-10-2-2.8-3.5-5.6-3.5-6.3 0-0.6 0.1-1.2 0.2-1.2 0.2 0 2.6-0.4 5.5-1 4.5-0.9 6-1.8 9.9-6 2.6-2.8 5.2-4.9 5.8-4.7zm102.8-0.3c0.4 0 2 1.3 3.5 2.9 1.5 1.5 3.5 3.8 4.3 5 1 1.6 3.3 2.5 7.7 3.4 3.5 0.7 6.3 1.4 6.3 1.7 0 0.3-1.8 3-4 6-3.5 4.7-4 6.2-4 10.5 0 2.7-0.6 5.9-1.4 7-1.3 2-1.4 2-4.7-0.2-1.9-1.2-4.8-2.2-6.4-2.2-1.7 0-4.5 0.8-6.3 1.9-1.8 1.1-4.1 1.8-5.2 1.5-1.7-0.4-1.9-1.1-1.4-4.8 0.3-2.3 0.7-5 1-6 0.2-1-1-3.3-3-5.5-1.8-2-3.8-4.7-4.5-6-0.6-1.2-1.1-2.4-1.1-2.7 0-0.3 0.9-0.5 2-0.5 1.1 0 4.1-0.6 6.7-1.3 4-1 4.9-1.8 6.4-5.2 1-2.3 2.1-4.4 2.5-4.8 0.4-0.4 1.1-0.7 1.6-0.7zm-155.9 52.3c0.7 0.2 1.9 2.2 2.7 4.5 0.8 2.3 2.2 4.7 3 5.2 0.8 0.5 4.1 1.5 7.3 2.2 3.9 0.9 5.7 1.8 5.7 2.8 0 0.8-2.1 3.5-9.1 10.5l1.5 6c0.8 3.3 1.2 6.4 0.8 6.8-0.4 0.5-3-0.1-5.7-1.3-2.8-1.1-6.4-2-8-2-1.7 0-4.6 0.9-6.5 2.1-1.9 1.1-4.1 1.8-4.8 1.5-0.8-0.4-1.2-3-1.3-7.4 0-6.1-0.3-7.1-3.4-11.2-1.9-2.5-3.5-5.1-3.5-5.8 0-0.7 1.8-1.4 4.2-1.8 2.4-0.3 5-0.7 5.8-0.9 0.8-0.2 3.4-2.9 5.8-6 2.4-3.1 4.9-5.4 5.5-5.2zm208.7-0.3c0.5 0 2.9 2.5 5.2 5.6 2.4 3 5.2 5.7 6.3 5.9 1.1 0.2 3.7 0.6 5.7 0.9 2.5 0.4 3.8 1.1 3.8 2.1 0 0.8-1.6 3.5-3.5 6-3.2 4.1-3.5 5.1-3.5 11 0 4.2-0.5 6.7-1.3 7.1-0.7 0.3-2.8-0.4-4.7-1.5-1.9-1.2-4.9-2.1-6.5-2.1-1.7 0-5.3 0.9-8 2-2.8 1.2-5.3 1.8-5.7 1.3-0.5-0.4-0.3-2.4 0.2-4.3 0.5-1.9 1-4.7 1-6.3 0-1.8-1.6-4.5-4.5-8-2.4-2.8-4.2-5.5-4-6 0.3-0.4 1.7-0.9 3.2-1.1 1.5-0.3 4.5-0.7 6.5-1 3.4-0.6 4-1.1 6.3-6.1 1.3-3 2.9-5.5 3.5-5.5zm-105.6 2c0.9 0 2.3 0.3 3.2 0.7 0.9 0.5 2.5 2.5 3.5 4.5 1.2 2.3 2.8 4 4.1 4.2 1.3 0.3 4.1 0.8 6.3 1.1 2.2 0.4 4.3 0.9 4.7 1.1 0.4 0.2-1.2 2.9-3.7 5.9-4.2 5.2-4.5 5.9-4.5 11.5 0 4.8-0.4 6.1-1.8 6.6-0.9 0.4-3.2-0.1-5-1-1.8-0.9-4.3-1.6-5.7-1.6-1.4 0-4 0.7-5.8 1.6-1.8 0.9-4 1.4-5 1-1.3-0.5-1.7-1.8-1.7-6.1 0-4-0.6-6.4-2.2-8.8-1.2-1.7-3.2-4.4-4.5-6-1.3-1.5-1.9-2.9-1.3-3.2 0.5-0.3 3.3-0.8 6.2-1.2 2.9-0.4 6-1.4 6.8-2.3 0.8-1 2.3-3.1 3.2-4.9 0.9-1.7 2.4-3.1 3.2-3.1zm-156.3 51c0.5 0 1.7 1.9 2.8 4.2 1 2.4 2.5 4.8 3.2 5.4 0.8 0.7 3 1.5 4.9 1.8 1.9 0.4 4.9 1.2 10 2.6l-3.8 4.2c-2.1 2.4-4.3 5.2-4.9 6.3-0.8 1.4-0.8 3.7-0.2 7.5 0.5 3 0.6 5.8 0.2 6.3-0.5 0.4-3.3-0.4-6.3-1.8-4.7-2.1-6.1-2.3-9-1.5-1.9 0.6-4.5 1.7-5.8 2.5-1.2 0.8-2.9 1.3-3.7 1-1.1-0.4-1.5-2.1-1.5-7 0-3.6-0.5-7.5-1.1-8.8-0.7-1.2-2.3-3.5-3.8-5-2.6-2.8-2.6-2.9-0.6-4.3 1.1-0.8 3.2-1.4 4.7-1.4 1.5 0 3.8-0.4 5-1 1.2-0.5 3.7-3.2 5.5-6 1.9-2.7 3.9-5 4.4-5zm314.8 0c0.6 0 2.6 2.1 4.5 4.7 1.8 2.7 4.5 5.4 6 6 1.4 0.7 3.5 1.3 4.6 1.3 1.1 0 3 0.5 4.2 1.1 1.3 0.7 2.5 1.3 2.8 1.5 0.3 0.2-1.4 2.4-3.8 4.9-4.1 4.4-4.2 4.6-4.2 11.5 0 4.6-0.4 7.2-1.3 7.6-0.7 0.3-2.8-0.4-4.7-1.5-1.9-1.2-5.1-2.1-7-2.1-1.9 0-5.5 0.9-8 2-2.5 1.1-4.9 1.7-5.3 1.3-0.4-0.5-0.3-2.8 0.2-5.3 0.6-2.5 1.1-5 1.1-5.5 0-0.6-2-3.7-4.5-7-2.4-3.3-4.3-6.3-4-6.8 0.3-0.4 2.2-1 4.2-1.3 2.1-0.3 5.1-1 6.8-1.4 2.3-0.7 3.5-2.1 5.2-6 1.2-2.7 2.7-5 3.2-5zm-209.2 1c0.7 0 2 1 2.8 2.2 0.8 1.3 1.5 3.1 1.5 4 0 1.1 1.3 2.4 3.2 3.2 1.8 0.7 5.2 1.6 7.5 2 2.4 0.3 4.5 1 4.8 1.6 0.3 0.5-1.5 3.1-4 5.7-4.3 4.6-4.5 5-4.2 10.5 0.1 3.5-0.3 6.2-1.1 7-1 1.1-1.9 1-4.7-0.5-1.9-0.9-5-1.7-6.8-1.7-1.8 0-4.7 0.9-6.5 2-2.6 1.6-3.5 1.8-4.8 0.7-1.1-0.8-1.5-2.9-1.4-7.2 0.1-5.7-0.2-6.2-4.2-10.8-2.8-3.1-4-5.2-3.3-5.8 0.5-0.5 3.3-1.3 6.1-1.8 3.5-0.6 5.9-1.7 7.3-3.2 1.1-1.3 2-2.9 1.9-3.6 0-0.7 1-1.9 2.3-2.8 1.3-0.8 2.9-1.5 3.6-1.5zm103.7 0c0.6 0 2.2 1.1 3.6 2.6 1.4 1.4 2.9 3.6 3.5 4.7 0.6 1.2 2.5 2.5 4.5 3 1.9 0.4 5.3 1.3 11.5 2.8l-3.6 3.7c-2 2-4.2 4.7-4.8 5.9-0.6 1.3-1.1 4.4-1.1 7 0 2.7-0.6 5.6-1.2 6.6-1.3 1.8-1.4 1.8-4.8-0.2-1.9-1.2-5.2-2.1-7.3-2.1-2 0-3.9 0.3-4.1 0.7-0.2 0.5-1.6 1.1-3.2 1.6-2 0.5-3.1 0.4-3.6-0.5-0.5-0.7-0.8-3.6-0.8-6.3 0-4.1-0.5-5.8-3-9-1.7-2.2-3.9-4.6-4.8-5.3-1.5-1.1-1.5-1.4-0.2-2.2 0.8-0.5 4.2-1.5 7.4-2.2 5.6-1.2 6.1-1.6 7.7-5.3 1-2.3 2.1-4.4 2.5-4.8 0.4-0.4 1.2-0.7 1.8-0.7zm52.1 50.8l2.5 2.8c1.4 1.6 3.4 4.1 4.5 5.5 1.1 1.4 3 3.1 4.2 3.7 1.3 0.7 3.1 1.2 4 1.2 1 0.1 3.1 0.6 7.6 2.5l-4.2 4.7c-3.6 4.3-4.1 5.4-4.1 9.8 0 2.7-0.5 6.1-2 10l-10.5-5.2-5 1.7c-2.8 1-5.8 1.5-6.8 1.2-1.5-0.6-1.6-1.5-0.2-11.5l-5-5.2c-4-4.2-4.7-5.4-3.5-6 0.8-0.4 4.1-1.3 13-3l2.7-6.1zm-208 1.2c0.6 0 1.9 2.3 5 10.4l6.7 1.5c3.6 0.9 7 1.9 7.5 2.3 0.4 0.4-1.3 3.1-4 6-4.8 5.3-4.9 5.4-4.3 10.6 0.5 4.4 0.4 5.3-1.1 5.9-1 0.3-3.7-0.1-6-1-3-1.2-5.1-1.4-7-0.8-1.5 0.4-4.2 1.6-6 2.5-3.1 1.5-3.3 1.5-4.3-0.4-0.5-1.1-1-4.7-1-8 0-5.7-0.2-6.2-4-9.7-3.3-3.1-3.8-4-2.8-5 0.8-0.7 3.3-1.6 5.8-2 3.7-0.7 5.2-1.7 9.4-6.5 2.8-3.2 5.5-5.8 6.1-5.8zm104.4 1.2c1.8 0.2 3.2 1.5 4.8 4.3 1.2 2.2 2.6 4.5 3 5.1 0.5 0.5 3.1 1.3 5.8 1.7 2.8 0.4 5.7 1.2 6.5 1.7 1.3 0.8 1 1.5-1.9 3.8-1.8 1.5-3.8 3.6-4.4 4.7-0.6 1.1-1.4 4.7-1.6 8-0.5 5-0.9 6-2.6 6.3-1.1 0.2-3.5-0.4-5.5-1.3-1.9-1-4.4-1.5-5.5-1.2-1.1 0.3-3.3 1.1-5 1.8-1.6 0.7-3.8 0.9-4.7 0.6-1.4-0.6-1.8-1.9-1.8-6.7 0-5.6-0.2-6.3-4-10.5-2.2-2.5-3.7-4.9-3.5-5.5 0.3-0.5 2.7-1.2 5.3-1.5 2.6-0.3 5.2-0.9 5.8-1.3 0.6-0.4 2.3-2.9 3.8-5.5 2.4-4.1 3.2-4.8 5.5-4.5zm-158 50.8c0.3 0 1.8 2.1 3.3 4.7 1.4 2.7 3.2 5.3 4 6 0.7 0.6 3.4 1.7 5.8 2.3 2.5 0.7 5.1 1.7 5.8 2.4 1 0.9 0.3 2.1-3.3 5.9-2.4 2.6-4.5 5.5-4.4 6.5 0 0.9 0.5 3.4 1.2 5.5 1 3.3 1 4-0.3 4.7-0.9 0.5-3.5 0.1-12.5-3.3l-5.5 2.2c-5.2 2.1-5.5 2.1-6.7 0.4-0.7-1-1.3-4.5-1.3-7.8 0-5.6-0.3-6.3-3.7-9.8-3.7-3.7-3.7-3.9-1.8-5.3 1.1-0.8 3.3-1.4 4.8-1.4 1.5 0 3.5-0.4 4.5-0.9 0.9-0.5 3.5-3.4 5.6-6.5 2.1-3.1 4.1-5.6 4.5-5.6zm315.1 0c0.6 0 2.5 2.1 4.3 4.8 1.7 2.6 4 5.5 5 6.5 0.9 0.9 2.9 1.7 4.2 1.7 1.4 0 3.9 0.7 8.5 3l-4 4c-2.2 2.2-4 5-4.1 6.3-0.1 1.2-0.1 4.3 0 7 0.1 2.6-0.3 4.9-0.9 5.2-0.5 0.3-3.7-0.6-13-4.5l-3.7 2c-2.1 1.2-4.9 1.9-6.3 1.8-1.8-0.2-2.4-0.8-2.3-2.3 0.1-1.1 0.5-3.6 0.9-5.5 0.7-3.2 0.4-3.9-8.6-13.5l2.3-1.6c1.2-0.9 4-1.9 6.2-2.2 2.2-0.4 4.8-1.5 5.8-2.5 1-0.9 1.9-2 2-2.5 0-0.4 0.7-2.3 1.4-4.2 0.7-1.9 1.7-3.5 2.3-3.5zm-208.1 1.5c0.4 0.2 1.8 2.6 3.1 5.4 1.4 2.9 3 5.1 3.5 5.1 0.6 0 3.4 0.7 6.3 1.5 3.3 1 5.2 2.1 5.2 3 0 0.8-1.1 2.2-2.5 3-1.3 0.8-3.2 3-4.1 4.8-1 2-1.4 4.5-1.1 6.7 0.3 1.9 0.1 4.3-0.4 5.3-0.5 0.9-1.9 1.7-3.1 1.7-1.3 0-3.4-0.7-4.8-1.5-1.3-0.8-3.3-1.4-4.2-1.5-1 0-3.2 0.7-5 1.6-1.8 0.8-4.2 1.4-5.3 1.2-1.7-0.3-2-1.2-2.3-6.8-0.2-6.1-0.5-6.7-8.7-14.8l3.3-1.6c1.8-0.9 4.2-1.6 5.5-1.6 1.2 0 2.7-0.4 3.3-0.8 0.6-0.4 2.3-2.5 3.8-4.6 1.5-2.2 3.6-4.5 4.8-5.2 1.2-0.7 2.4-1.1 2.7-0.9zm102.7 0.5c1.5 0 3.1 1 4.2 2.6 0.9 1.4 2.7 3.9 4 5.5 1.4 1.8 3.1 2.9 4.7 2.9 1.4 0 3.9 0.7 8.5 3l-4 4.5c-3.7 4.2-4 4.9-3.9 10.3 0 4-0.4 6.1-1.5 7-1.3 1-2.4 0.8-6.1-1-4.1-2.1-4.8-2.2-7.7-0.9-1.8 0.7-4.4 1.6-5.8 1.9-1.5 0.3-2.8-0.1-3.4-0.9-0.5-0.8-0.9-3.3-0.8-5.6 0.1-2.4-0.4-5.6-1.3-7.3-0.8-1.6-2.6-3.7-4-4.5-1.3-0.8-2.5-2.2-2.5-3 0-0.8 1.5-1.9 3.3-2.4 1.8-0.5 4.7-1.2 6.5-1.5 2.7-0.5 3.6-1.3 5.3-5.6 1.7-4 2.6-5 4.5-5z"/>
	</g>
</svg>