<svg version="1.2" xmlns="http://www.w3.org/2000/svg" viewBox="0 0 1000 1000" width="1000" height="1000">
	<title>france_flag</title>
	<style>
		.s0 { fill: #eeeeee } 
		.s1 { fill: #ed2939 } 
		.s2 { fill: #002495 } 
	</style>
	<g id="Layer 1">
		<path id="Path 0" class="s0" d="m660 152v696l-319.5-0.5-0.3-346.5c-0.1-190.6 0-347.1 0.3-347.8 0.4-0.9 33.3-1.2 319.5-1.2z"/>
		<path id="Path 1" class="s1" d="m660 152h106c68.7 0 106.7 0.4 108 1 1.1 0.6 5.3 1.2 9.3 1.6 3.9 0.3 9 1 11.2 1.6 2.2 0.6 6.7 2 10 3.1 3.3 1.1 8.7 3.2 12 4.6 3.3 1.5 9.1 4.8 13 7.3 3.9 2.5 10 7.1 13.8 10.2 3.7 3.1 9.6 9.5 13.2 14.4 3.6 4.8 8.5 12.8 10.9 17.7 2.4 4.9 5.3 11.9 6.4 15.5 1.1 3.6 2.7 8.5 3.4 11 1.1 3.7 1.3 51.3 1.3 260 0 208.7-0.2 256.3-1.3 260-0.7 2.5-2.3 7.4-3.4 11-1.1 3.6-4 10.5-6.4 15.5-2.4 5-7.3 12.9-10.9 17.8-3.6 4.8-9.5 11.2-13.3 14.3-3.7 3.1-9.8 7.7-13.7 10.2-3.9 2.5-9.7 5.8-13 7.3-3.3 1.4-8.7 3.5-12 4.6-3.3 1.1-7.8 2.5-10 3.1-2.2 0.6-7.1 1.3-11 1.5-3.9 0.3-8 1-9.3 1.6-1.6 0.8-32 1.1-214.2 1.1v-348z"/>
		<path id="Path 2" class="s2" d="m232.3 153.1c57.6 0 105.4 0.1 106.2 0.4 1.3 0.4 1.5 39.8 1.5 346.5 0 306.7-0.2 346.1-1.5 346.5-0.8 0.3-48 0.5-104.8 0.5-86.4 0-105.1-0.3-114.7-1.5-6.3-0.9-14.4-2.3-18-3.2-3.6-0.8-10.6-3.4-15.5-5.6-5-2.2-11.5-5.6-14.5-7.5-3-1.9-8.7-6.1-12.5-9.3-3.9-3.1-8.4-7.4-10-9.5-1.7-2-4.9-6.2-7.3-9.3-2.3-3.1-6.2-9.6-8.6-14.6-2.5-5-5.6-13-7.1-18-1.4-5-3-13-3.5-18-0.6-5.4-1-105.7-1-250.5 0-144.8 0.4-245.1 1-250.5 0.5-4.9 2.1-13.1 3.5-18 1.5-4.9 4.6-13.1 7.1-18 2.4-4.9 6.3-11.5 8.6-14.6 2.4-3.1 5.9-7.6 7.8-9.9 1.9-2.3 6.4-6.6 10-9.5 3.6-2.8 9-6.8 12-8.7 3-2 9.5-5.4 14.5-7.5 4.9-2.2 11.9-4.8 15.5-5.7 3.6-0.9 11-2.3 16.5-3 7.7-1.1 33.7-1.4 114.7-1.5z"/>
	</g>
</svg>