<svg version="1.2" xmlns="http://www.w3.org/2000/svg" viewBox="0 0 1000 1000" width="1000" height="1000">
	<title>france_flag</title>
	<style>
		.s0 { fill: #141414 } 
		.s1 { fill: #ed1f24 } 
		.s2 { fill: #ffcd05 } 
	</style>
	<g id="Layer 3">
		<path id="Path 0" class="s0" d="m499.3 149.1c244.2-0.1 391.3 0.3 393.9 0.9 2.4 0.5 7.4 1.6 11.3 2.5 3.9 0.9 10.4 3.1 14.5 4.8 4.1 1.7 9.8 4.4 12.5 6 2.8 1.6 7.9 5.1 11.5 7.7 3.6 2.7 9.2 7.7 12.6 11.2 3.3 3.4 8.1 9.2 10.6 12.8 2.6 3.6 6.7 10.8 9.2 16 2.4 5.2 5.7 13.8 10.1 28.5l0.5 152.5-972 0.5v-148l2.8-11.5c1.6-6.3 4.9-15.8 7.4-21 2.4-5.2 6.4-12.4 8.8-16 2.5-3.6 7.2-9.4 10.5-12.9 3.3-3.6 9.6-9.1 14-12.4 4.4-3.3 11-7.5 14.7-9.3 3.8-1.9 9.6-4.4 13-5.7 3.5-1.3 9-2.9 12.3-3.6 3.3-0.8 7.3-1.7 9-2.1 1.6-0.5 178.4-0.9 392.7-0.9z"/>
		<path id="Path 1" class="s1" d="m986 392v243l-972 0.5-0.2-121.1c-0.1-66.6 0.2-121.4 0.7-121.7 0.5-0.4 219.2-0.7 971.5-0.7z"/>
		<path id="Path 2" class="s2" d="m986 635l-0.6 126.5-3.1 10c-1.7 5.5-4.1 12.3-5.3 15-1.2 2.8-4.5 8.8-7.3 13.4-2.9 4.6-9 12.4-13.7 17.4-4.7 4.9-11.4 11-15 13.5-3.6 2.5-11.5 6.9-17.5 9.9-6 2.9-13.5 5.9-16.5 6.7-3 0.7-7.2 1.6-9.3 2-2 0.3-3.7 1.1-3.7 1.6 0 0.7-132 1-394 1-262 0-394-0.3-394-1 0-0.5-1.7-1.3-3.8-1.6-2-0.4-6.2-1.3-9.2-2-3-0.8-10.5-3.8-16.5-6.7-6-3-13.9-7.4-17.5-9.9-3.6-2.5-10.3-8.6-15-13.5-4.7-5-10.8-12.8-13.7-17.4-2.8-4.6-6.1-10.7-7.3-13.4-1.2-2.8-3-7.7-4.1-11-1-3.3-1.9-6.7-1.9-7.5 0-0.8-0.7-2.9-1.5-4.5-1.4-2.6-1.6-11.6-1.7-65.1-0.1-34.1 0.2-62.4 0.7-62.7 0.5-0.4 219.2-0.7 971.5-0.7z"/>
	</g>
</svg>