<svg version="1.2" xmlns="http://www.w3.org/2000/svg" viewBox="0 0 1000 1000" width="1000" height="1000">
	<title>france_flag</title>
	<style>
		.s0 { fill: #eeeded } 
		.s1 { fill: #0038b8 } 
	</style>
	<g id="Layer 7">
		<path id="Path 0" class="s0" d="m499.8 150c311.6 0 391.5 0.3 392.5 1.3 0.7 0.6 4.2 1.8 7.7 2.5 3.6 0.8 9.9 2.7 14 4.3 4.1 1.6 12 5.6 17.5 8.9 6.4 3.8 12.9 8.7 17.9 13.7 4.4 4.3 10 10.5 12.4 13.8 2.4 3.3 6.1 9.2 8.3 13 2.1 3.8 3.9 7.8 3.9 8.8 0 1.6-23.2 1.7-474 1.7-450.8 0-474-0.1-474-1.8 0-0.9 1.8-4.9 3.9-8.7 2.2-3.8 5.9-9.7 8.3-13 2.4-3.3 8-9.5 12.4-13.8 5-5 11.5-9.9 17.9-13.7 5.5-3.3 13.4-7.3 17.5-8.9 4.1-1.6 10.4-3.5 14-4.2 3.6-0.8 6.9-1.9 7.5-2.6 0.8-1 83.4-1.2 392.3-1.3zm482.9 162.2c0.2-0.1 0.3 84.2 0.3 374.8l-966 0.5v-374.5l482.8-0.3c265.5-0.1 482.8-0.3 482.9-0.5zm-482.7 469.8c450.8 0 474 0.1 474 1.7 0 1-1.8 4.9-3.9 8.8-2.2 3.9-5.9 9.7-8.3 13-2.4 3.3-8 9.5-12.4 13.8-5 5-11.5 9.9-17.9 13.7-5.5 3.3-13.4 7.3-17.5 8.9-4.1 1.6-10.4 3.5-14 4.3-3.5 0.7-7 1.9-7.6 2.5-1 1-80.9 1.3-392.8 1.3-277.4 0-391.7-0.3-391.8-1.1-0.2-0.6-3.7-1.9-7.8-2.9-4.1-1-9.7-2.6-12.5-3.5-2.7-0.9-8.4-3.5-12.5-5.8-4.1-2.2-9.7-5.5-12.5-7.3-2.7-1.7-8.5-6.7-12.9-11-4.3-4.4-9.8-10.6-12.1-13.9-2.3-3.3-5.8-8.9-7.8-12.5-2-3.6-3.7-7.3-3.7-8.3 0-1.6 23.2-1.7 474-1.7z"/>
		<path id="Path 1" class="s1" d="m500 218c451.4 0 475 0.1 475.9 1.8 0.5 0.9 2.2 6.2 6.6 21.7v71l-965.5 0.5 0.3-36.3c0.3-36.2 0.3-36.2 3.1-45.7 1.5-5.2 3.2-10.3 3.7-11.3 0.9-1.6 24.6-1.7 475.9-1.7zm483 469l-0.3 36.3c-0.3 36.1-0.3 36.2-3.1 45.7-1.5 5.2-3.1 10.3-3.7 11.3-0.9 1.6-24.5 1.7-475.9 1.7-451.4 0-475-0.1-475.9-1.7-0.6-1-2.2-6.1-3.7-11.3-2.8-9.5-2.8-9.5-3-44.5-0.1-19.2-0.1-35.5 0.2-36.2 0.3-1.1 90.2-1.3 965.4-1.3zm-482.8-335.8c0.6 0.2 10 15.8 21 34.8 10.9 19 20.6 35.5 22.8 39h42c27 0 42.2 0.4 42.5 1 0.3 0.6-3.2 7.4-7.6 15.3-4.5 7.8-10.6 18.5-13.6 23.7-3.1 5.2-6.3 10.9-7.3 12.5-1 1.6-4.3 7.4-13 22.5l5.6 9.8c3.1 5.3 6.4 11.1 7.4 12.7 1 1.6 4.2 7.3 7.3 12.5 3 5.2 9.1 15.9 13.6 23.8 4.4 7.8 7.9 14.7 7.6 15.2-0.3 0.6-15.5 1-84.5 1l-1.4 2.3c-0.8 1.2-10.5 17.7-21.4 36.7-11 19-20.5 34.5-21.2 34.5-0.7 0-10.2-15.5-21.2-34.5-10.9-19-20.6-35.5-22.8-39h-42c-27 0-42.2-0.4-42.5-1-0.3-0.5 3.2-7.4 7.6-15.2 4.5-7.9 10.6-18.6 13.6-23.8 3.1-5.2 6.3-10.9 7.3-12.5 1-1.6 4.3-7.4 13-22.5l-5.6-9.7c-3.1-5.4-6.4-11.2-7.4-12.8-1-1.6-4.2-7.3-7.3-12.5-3-5.2-9.1-15.9-13.6-23.7-4.4-7.9-7.9-14.7-7.6-15.3 0.3-0.6 15.5-1 84.5-1l2.3-3.7c1.3-2.1 8.6-14.6 16.2-27.8 7.6-13.2 16.3-28.2 19.3-33.3 3-5.1 5.9-9.2 6.4-9z"/>
		<path id="Path 2" class="s0" d="m500 405c0.8 0 3.6 3.8 6.3 8.8 2.7 4.8 4.6 9.3 4.3 9.9-0.4 0.9-3.6 1.3-10.6 1.3-7 0-10.2-0.4-10.5-1.3-0.3-0.6 1.6-5.1 4.2-10 2.8-5.1 5.4-8.7 6.3-8.7zm-69.8 46.3c4.7 0.1 8.9 0.5 9.3 0.8 0.4 0.4-0.3 2.4-1.5 4.5-1.2 2.2-3.7 6.5-5.6 9.7-1.9 3.1-3.8 5.5-4.4 5.2-0.6-0.3-3.2-4.4-6-9.2-2.7-4.9-5-9.1-5-9.5 0-0.5 1-1 2.2-1.2 1.3-0.2 6.2-0.4 11-0.3zm69.7-0.3c23.2-0.1 25.8 0.1 27.8 1.7 1.2 1 7.9 11.6 14.8 23.6 6.9 11.9 12.5 22.6 12.5 23.7 0 1.1-5.6 11.8-12.6 23.8-6.9 11.9-13.5 22.5-14.7 23.5-2 1.6-4.7 1.8-27.7 1.8-23 0-25.7-0.2-27.7-1.8-1.2-1-7.8-11.6-14.7-23.6-7-11.9-12.6-22.6-12.6-23.7 0-1.1 5.6-11.8 12.6-23.8 6.9-11.9 13.4-22.5 14.6-23.4 1.8-1.6 4.8-1.8 27.7-1.8zm73.3 0.3c4.7 0.1 8.9 0.5 9.3 0.9 0.3 0.4-1.7 4.8-4.4 9.7-2.8 5-5.6 9.3-6.1 9.6-0.5 0.3-3.5-3.7-6.5-8.8-3-5-5.5-9.5-5.5-9.9 0-0.5 1-1 2.2-1.2 1.3-0.2 6.2-0.4 11-0.3zm-144.7 76.7c0.3 0 3.1 4.3 6.2 9.5 3.2 5.3 5.4 9.9 5 10.3-0.5 0.4-5.5 0.7-11.2 0.7-5.7 0-10.6-0.3-10.9-0.8-0.3-0.4 0.8-3.3 2.6-6.5 1.7-3.1 4.2-7.4 5.5-9.5 1.3-2 2.5-3.7 2.8-3.7zm143.6 0.5c0.5 0.3 3.1 4.5 5.9 9.5 2.7 5 4.7 9.3 4.4 9.7-0.3 0.5-5.2 0.8-10.9 0.8-5.7 0-10.6-0.3-10.9-0.8-0.3-0.4 0.8-3.3 2.6-6.5 1.7-3.1 4.2-7.4 5.6-9.5 1.3-2.1 2.8-3.5 3.3-3.2zm-72.1 46.5c9.1 0 11 0.3 11 1.5 0 0.8-2.1 5.3-4.8 10-2.6 4.7-5.4 8.5-6.2 8.5-0.8 0-3.6-3.8-6.3-8.5-2.6-4.7-4.7-9.2-4.7-10 0-1.2 1.9-1.5 11-1.5z"/>
	</g>
</svg>