<svg version="1.2" xmlns="http://www.w3.org/2000/svg" viewBox="0 0 1000 1000" width="1000" height="1000">
	<title>france_flag</title>
	<style>
		.s0 { fill: #009246 } 
		.s1 { fill: #eeeeee } 
		.s2 { fill: #ce2b37 } 
	</style>
	<g id="Layer 2">
		<path id="Path 0" class="s0" d="m338 149v702l-230.5-0.6-9-2.6c-5-1.4-11.3-3.4-14-4.5-2.8-1.1-8.2-3.6-12-5.6-3.8-1.9-9.7-5.5-13-7.9-3.3-2.4-9.1-7.6-13-11.4-3.9-3.9-9.5-10.6-12.5-15-3-4.3-7.1-11.5-9.2-15.9-2-4.4-5-12.5-9.3-28v-519l2.6-9.5c1.4-5.2 4.4-13.3 6.6-18 2.1-4.7 6.3-12.1 9.3-16.4 3-4.4 8.9-11.3 13-15.4 4.1-4.1 10.2-9.4 13.5-11.8 3.3-2.3 9.2-5.8 13-7.7 3.8-2 9.5-4.4 12.5-5.6 3-1.1 8.4-2.8 11.9-3.7 3.6-1 8.8-2.1 11.5-2.5 2.8-0.3 55.4-0.7 228.6-0.9z"/>
		<path id="Path 1" class="s1" d="m338 149h324v702h-324v-351z"/>
		<path id="Path 2" class="s2" d="m662 149l115.3 0.3c101 0.3 115.9 0.5 121.2 1.9 3.3 0.9 8.3 2.4 11 3.3 2.8 1 8.4 3.2 12.5 5 4.1 1.7 10.9 5.4 15 8.2 4.1 2.8 11.1 8.6 15.5 13 4.4 4.4 10.5 11.5 13.5 15.9 3 4.3 7.1 11.5 9.2 15.9 2 4.4 4.9 12.3 9.2 27v521l-2.7 9.5c-1.6 5.2-4.5 13.1-6.5 17.5-2.1 4.4-6.2 11.6-9.2 15.9-3 4.4-9.1 11.5-13.5 15.9-4.4 4.4-11.4 10.2-15.5 13-4.1 2.8-10.9 6.5-15 8.2-4.1 1.8-9.8 4-12.5 5-2.7 0.9-7.7 2.4-11 3.3-5.3 1.4-20.1 1.6-236.5 2.2v-351z"/>
	</g>
</svg>