<svg version="1.2" xmlns="http://www.w3.org/2000/svg" viewBox="0 0 1000 1000" width="1000" height="1000">
	<title>france_flag</title>
	<style>
		.s0 { fill: #eeeeee } 
		.s1 { fill: #ed1b2f } 
	</style>
	<g id="Layer 10">
		<path id="Path 0" class="s0" d="m500 148.1c258.2-0.1 393.8 0.2 394.5 0.9 0.5 0.5 3 1.4 5.5 1.9 2.5 0.6 5.9 1.3 7.5 1.7 1.6 0.4 7.7 2.8 13.5 5.3 5.8 2.6 13.6 6.8 17.5 9.3 3.9 2.5 10.4 7.9 14.5 12 4.1 4 9.6 10.2 12.2 13.8 2.6 3.6 6.9 10.8 9.5 16 2.7 5.2 5.9 13.3 7.2 18 1.2 4.7 2.6 9.4 3.2 10.5 0.6 1.3 0.8 95.9 0.4 524l-2.8 9.5c-1.5 5.2-4.7 13.5-7.2 18.5-2.4 5-6.4 11.8-8.7 15.2-2.4 3.4-7.4 9.4-11.3 13.4-3.9 3.9-9.5 9-12.5 11.4-3 2.3-8.4 5.8-12 7.8-3.6 1.9-9.9 4.9-14 6.5-4.1 1.6-9.1 3.4-11 4.1-1.9 0.6-4.4 1.1-5.5 1.1-1.1 0-3.4 0.7-5 1.5-2.7 1.4-45.7 1.6-395.5 1.6-349.8 0-392.8-0.2-395.5-1.6-1.7-0.8-4-1.5-5.3-1.5-1.2 0-3.2-0.4-4.5-0.9-1.2-0.5-4-1.4-6.2-2.1-2.2-0.7-8.7-3.6-14.5-6.4-5.8-2.9-12.8-6.9-15.5-9-2.7-2-8.5-7.2-12.8-11.4-4.3-4.2-10.3-11.3-13.2-15.7-3-4.4-6.9-11.4-8.9-15.5-1.9-4.1-4.4-11.1-5.6-15.5-1.2-4.4-2.5-8.9-3.1-10-0.6-1.3-0.8-97.1-0.4-524l2.8-9.5c1.6-5.2 4.5-13.1 6.6-17.5 2-4.4 6-11.4 8.8-15.5 2.9-4.1 8.7-11 13-15.2 4.3-4.2 10.1-9.4 12.8-11.4 2.7-2.1 9.7-6.1 15.5-9 5.8-2.8 12.3-5.7 14.5-6.4 2.2-0.7 5-1.6 6.3-2.1 1.2-0.5 3.2-0.9 4.4-0.9 1.3 0 3.4-0.7 4.8-1.4 2.1-1.2 62.5-1.4 396-1.5z"/>
		<path id="Path 1" class="s1" d="m498 311.1c4.7 0 13.4 0.4 19.5 1 6 0.5 15.3 1.9 20.5 2.9 5.2 1.1 12.4 2.8 16 3.8 3.6 1.1 10.3 3.4 15 5.3 4.7 1.8 12.7 5.4 17.8 8.1 5 2.6 12.2 6.8 15.9 9.1 3.8 2.4 10.4 7.2 14.8 10.7 4.4 3.5 11.6 10 16.1 14.4 4.4 4.5 10.9 11.7 14.3 16.1 3.5 4.4 8.4 11.1 10.9 15 2.5 3.9 7.1 12.2 10.3 18.5 3.2 6.3 7.6 16.9 9.8 23.5 2.2 6.6 5 16.7 6.1 22.5 1.2 5.8 2.6 16.6 3.2 24 0.9 10 0.9 17.1 0 27.5-0.6 7.7-2 18.7-3.2 24.5-1.1 5.8-3.8 15.7-5.9 22-2.1 6.3-6.4 16.7-9.5 23-3.1 6.3-7.6 14.4-9.9 18-2.3 3.6-6.4 9.4-9.1 13-2.7 3.6-7.5 9.4-10.5 12.9-3.1 3.5-9.6 9.9-14.6 14.3-5 4.4-14.2 11.4-20.5 15.7-6.3 4.2-16.2 10-22 12.8-5.8 2.9-15.9 7-22.5 9.2-6.6 2.2-16.7 5-22.5 6.1-5.8 1.2-16.8 2.6-24.5 3.2-10.4 0.9-17.5 0.9-27.5 0-7.4-0.6-18.2-2-24-3.2-5.8-1.1-15.7-3.8-22-5.9-6.3-2.1-16.9-6.5-23.5-9.7-6.5-3.3-16.5-9.1-22.1-12.9-5.6-3.9-13.9-10.2-18.4-14-4.6-3.9-12.1-11.3-16.7-16.5-4.7-5.2-11.9-14.7-16.2-21-4.2-6.3-10-16.2-12.8-22-2.9-5.8-7-15.9-9.2-22.5-2.2-6.6-5-16.7-6.1-22.5-1.2-5.8-2.6-15.7-3.1-22-0.6-6.3-0.8-17.4-0.5-24.5 0.4-7.2 1.6-18.4 2.7-25 1.2-6.6 4.1-18.1 6.6-25.5 2.4-7.4 6.7-18.2 9.6-24 2.8-5.8 8.6-15.7 12.8-22 4.3-6.3 11.3-15.6 15.7-20.5 4.4-5 10.8-11.5 14.3-14.6 3.5-3 9.3-7.8 12.9-10.5 3.6-2.7 9.4-6.8 13-9.1 3.6-2.3 11.7-6.8 18-9.9 6.3-3.1 16.7-7.4 23-9.5 6.3-2.1 16.2-4.8 22-5.9 5.8-1.2 14.3-2.5 19-2.9 4.7-0.5 12.3-0.9 17-1z"/>
	</g>
</svg>