<svg version="1.2" xmlns="http://www.w3.org/2000/svg" viewBox="0 0 1000 1000" width="1000" height="1000">
	<title>malaysia_flag</title>
	<style>
		.s0 { fill: #010066 } 
		.s1 { fill: #dd2e44 } 
		.s2 { fill: #eeeeee } 
		.s3 { fill: #ffcc4d } 
	</style>
	<g id="Layer 1">
		<path id="Path 0" class="s0" d="m499.5 149.5v377l-484.5 0.5 0.5-287.5 2.7-9.5c1.5-5.2 5.2-14.4 8.3-20.5 3.2-6.4 8.2-14.5 12.2-19.5 3.7-4.6 10.2-11.3 14.3-14.7 4.1-3.4 10.9-8.2 15-10.7 4.1-2.4 10.4-5.6 14-7 3.6-1.4 10.1-3.5 14.5-4.7 4.4-1.2 12-2.5 17-2.9 5-0.4 93.8-0.7 386-0.5z"/>
		<path id="Path 1" class="s1" d="m500 149.5l197.7 0.5c140.8 0.4 199.1 0.9 202.3 1.7 2.5 0.6 7.4 2.1 11 3.3 3.6 1.2 9.6 3.7 13.5 5.5 3.9 1.8 11 6.2 15.9 9.7 4.9 3.4 11.8 9.5 15.3 13.3 3.6 3.8 8.3 9.7 14.5 19l-2.4 0.7c-1.2 0.3-106.6 0.6-234.1 0.7-127.4 0.1-232.2 0.3-232.7 0.6-0.7 0.3-1-9.1-1-27.3zm0 108l485 0.6v53l-485 0.5v-27zm0 107.4l484.5 0.5 0.5 53.5-240.7 0.1c-132.5 0.1-241.6 0.3-242.5 0.5-1.7 0.4-1.8-1.4-1.8-27.1zm0.1 107.6l484.9 0.5v54h-485.5l0.3-27.3zm484.4 108l0.3 26c0.1 14.3 0 26.6-0.3 27.3-0.4 1-98.3 1.2-969.5 1.2v-54l484.8-0.2zm0.2 107.7c0.2-0.1 0.3 11.9 0.3 53.8l-970 0.5v-53.5l484.7-0.3c266.6-0.1 484.9-0.4 485-0.5zm-484.7 108c256 0 466.5 0.2 467.8 0.6 2.3 0.6 2.3 0.7-2 7-2.4 3.6-7 9.4-10.3 12.9-3.3 3.6-10.1 9.4-15 13-5 3.5-12.2 7.9-16 9.8-3.9 1.8-10.6 4.4-15 5.7-4.4 1.4-10.2 3-12.8 3.6-3.5 0.9-106.3 1.2-396.7 1.2-290.5 0-393.3-0.3-396.8-1.2-2.6-0.6-8.3-2.2-12.7-3.6-4.4-1.3-11.2-3.9-15-5.7-3.9-1.9-11.1-6.3-16-9.8-5-3.6-11.7-9.4-15-13-3.3-3.5-8-9.3-10.3-12.9-4.3-6.3-4.3-6.4-2-7 1.2-0.4 211.7-0.6 467.8-0.6z"/>
		<path id="Path 2" class="s2" d="m967.8 203.8c0.6 0.1 1.7 0.2 2.2 0.2 0.5 0 2.3 2.8 4 6.2 1.6 3.5 4.1 9.4 5.5 13.3 1.4 3.8 2.5 7.7 2.5 8.5-0.1 0.8 0.6 2.2 1.5 3 1.3 1.2 1.6 3.4 1 22.5l-239 0.3c-131.4 0.1-240.5 0-245.5-0.8l0.5-52.5 233-0.5c128.2-0.3 233.6-0.4 234.3-0.3zm16.7 107.8v53l-484.5 0.5-0.2-26.4c-0.3-25.7-0.2-26.5 1.7-26.9 1.1-0.3 110.2-0.4 483-0.2zm0 108v53h-484l-0.2-25.5c0-14 0.1-26 0.3-26.7 0.3-1 48.3-1.2 483.9-0.8zm0.5 107.5l-0.5 53.5-969.5 0.5-0.2-26.3c-0.1-14.5 0.2-26.7 0.7-27 0.5-0.4 218.8-0.7 969.5-0.7zm-970 108h970l-0.5 53.5-969.5 0.5v-27zm970 107v10c0 6.6-0.5 10.9-1.4 12.7-0.8 1.6-2.4 5.9-3.6 9.8-1.2 3.9-3.7 10.3-5.6 14.2-2 4.3-4 7.3-4.9 7.3-0.8 0-212.1 0-469.5 0-257.4 0-468.7 0-469.5 0-0.9 0-2.8-2.7-4.5-6.3-1.6-3.4-4.1-9.3-5.5-13.2-1.4-3.9-2.5-7.7-2.5-8.5 0.1-0.8-0.6-2.2-1.5-3-1.2-1.2-1.6-3.8-1.7-11.6-0.1-5.5 0.2-10.4 0.7-10.7 0.5-0.4 218.8-0.7 969.5-0.7z"/>
		<path id="Path 3" class="s1" d="m109.3 445c0.4 0 4.3 3.6 8.5 8 4.2 4.4 7.5 8 7.2 8-0.3 0-4.1-3.6-8.5-8-4.4-4.4-7.6-8-7.2-8z"/>
		<path id="Path 4" class="s3" d="m229.5 177.1c8.5 0 18.9 0.5 24 1.3 4.9 0.8 12.1 2.2 16 3.1 3.9 0.9 11.3 3.3 16.5 5.2 5.2 2 12.6 5.1 16.5 7 3.9 2 7.1 3.9 7.3 4.4 0.1 0.5 0.8 0.9 1.5 0.9 0.6 0 2.1 0.8 3.2 1.8 1.1 1 2.7 2.2 3.5 2.5 0.8 0.4 0.1 0.5-1.5 0.3-1.6-0.2-8.6-1.6-15.5-3.1-10.8-2.4-14.7-2.8-29-2.8-12.9 0-18.7 0.5-26.5 2.1-5.5 1.2-14.7 3.8-20.5 5.8-5.8 2-13.2 5-16.5 6.6-3.3 1.7-10.7 6.2-16.5 10.1-6.3 4.3-14.1 10.8-19.5 16.3-4.9 5-11.6 12.7-14.7 17-3.1 4.4-7.7 11.7-10.2 16.4-2.5 4.7-5.9 12.3-7.7 17-1.7 4.7-4.2 13.2-5.5 19-1.7 7.1-2.7 15.1-3.1 24.5-0.4 10.3-0.1 16.9 1.1 25 0.8 6.1 3 15.7 4.7 21.5 1.7 5.8 4.8 14.3 7 19 2.2 4.7 7 13 10.7 18.5 3.7 5.5 9.1 12.7 12 16 3 3.3 8.4 8.6 12.1 11.8 3.6 3.1 10.2 8.1 14.6 11.1 4.4 2.9 11.2 6.9 15 8.9 3.8 1.9 11.5 5.1 17 7 5.5 1.9 13.6 4.3 18 5.3 6.5 1.5 11.9 1.9 28.5 1.9 18.7-0.1 21.5-0.3 32-2.8 6.3-1.4 12.4-2.8 13.5-3 1.1-0.2 1.4-0.3 0.8-0.1-0.7 0.2-1.3 0.7-1.3 1.2 0.1 0.4-1.3 1.4-3 2.2-1.7 0.8-3 1.7-3 2 0 0.3-5.2 3-11.7 6.2-6.5 3.1-16.3 7-21.8 8.7-5.5 1.6-14.1 3.8-19 4.8-6.6 1.3-14 1.7-28 1.7-15.5 0-21-0.4-30-2.1-6.1-1.2-15.7-3.9-21.5-5.9-5.8-2-15.9-6.3-22.5-9.7-6.6-3.4-15.6-8.8-20-12.1-4.4-3.2-12.4-10.2-17.9-15.5-5.4-5.3-12.2-12.5-15-16.1-2.9-3.6-6.9-9.1-8.9-12.2-2-3.2-5.9-10.2-8.6-15.5-2.7-5.4-6.3-13.9-8-18.8-1.8-4.9-3.9-11.9-4.7-15.5-0.8-3.6-2.1-11-2.9-16.5-0.8-5.5-1.5-14.9-1.4-21 0-6.1 0.6-15.5 1.3-21 0.8-5.5 2.3-13.8 3.5-18.5 1.1-4.7 3.1-11.5 4.5-15.2 1.4-3.8 4.6-11 7-16 2.4-5.1 6.8-13 9.8-17.4 2.9-4.5 8.8-12.3 13-17.3 4.3-5 11.9-12.6 16.9-16.8 5.1-4.3 12.4-10 16.3-12.7 3.9-2.6 12.5-7.4 19.1-10.6 6.6-3.2 15.6-6.9 20-8.3 4.4-1.4 10.2-3.1 13-3.7 2.7-0.7 8.6-1.8 13-2.5 4.4-0.7 14.7-1.3 23-1.4zm133.6 81.7c0.3 0.4 1.1 2.1 1.7 3.7 0.6 1.6 2.3 8.9 3.7 16 1.4 7.1 2.8 13.8 3.1 14.8 0.2 0.9 0.7 1.7 1.2 1.7 0.4 0 5-5.7 10.4-12.7 5.3-7.1 10.6-13.7 14-16.8l-0.5 4c-0.3 2.2-2.2 10.5-4.2 18.5-2 8-3.3 14.7-3 15 0.3 0.3 8.1-3.2 17.3-7.7 9.2-4.5 16.8-8 17-7.8 0.1 0.3-1 2.3-2.5 4.4-1.6 2.1-6.7 8.7-11.5 14.5-4.9 5.8-8.8 10.8-8.8 11.1 0 0.3 8.2 0.5 18.3 0.5 10 0 18.5 0.3 18.9 0.7 0.4 0.5-0.7 1.5-2.5 2.4-1.7 0.9-9.4 4.5-17 8-7.5 3.5-13.8 6.6-13.8 6.9 0 0.3 4.9 2.7 10.8 5.4 5.9 2.7 13.4 6.3 16.7 8 3.2 1.7 6 3.4 6.2 3.9 0.2 0.4-8.2 0.7-18.6 0.7-10.4 0-19 0.2-19 0.5 0 0.3 3.9 5.3 8.8 11.1 4.8 5.8 9.9 12.4 11.5 14.5 1.6 2.3 2.2 3.9 1.5 3.9-0.7 0-8.4-3.5-17-7.7-8.7-4.3-16-7.6-16.3-7.3-0.3 0.3 1.1 7 3 15 2 8 3.8 16.3 4.6 22.5l-3.3-3.6c-1.8-1.9-7.1-8.5-11.8-14.7-4.7-6.1-8.8-11.2-9.2-11.2-0.5 0-1 1-1.3 2.3-0.3 1.2-1.8 8.3-3.4 15.7-1.6 7.4-3.4 14.9-4.1 16.5-1.2 3-1.2 3-3-4-0.9-3.9-2.8-12.3-4.1-18.8-1.3-6.4-2.8-11.7-3.4-11.7-0.6 0-1.9 1.3-3 2.9-1.1 1.6-4.7 6.5-7.9 10.8-3.3 4.3-7.5 9.5-12.6 15.3v-3.2c0-1.8 1.7-10.2 3.8-18.5 2.6-10.9 3.3-15.3 2.5-15.3-0.7 0-8 3.4-16.3 7.5-8.2 4.1-15.7 7.4-16.5 7.3-1-0.2 0.8-3.1 5.6-8.8 3.8-4.7 9.2-11.2 16.9-20.5l-39.5-1 4-2.4c2.2-1.3 9.9-5 17-8.1 7.1-3.2 13-6.3 13-6.9 0-0.6-6.3-4.1-14-7.6-7.7-3.6-15-7.1-16.3-7.8-1.2-0.6-2.2-1.5-2.2-1.9 0-0.5 8.6-0.9 38.1-1.3l-11.6-14c-6.3-7.7-11.5-14.3-11.5-14.7 0-0.5 0.6-0.8 1.3-0.8 0.6 0 8 3.4 16.4 7.7 8.3 4.3 15.5 7.4 16 7 0.4-0.5-0.9-7.7-3-16-2-8.4-3.7-16.4-3.7-20.7l3.3 3.8c1.8 2 4.7 5.5 6.3 7.7 1.6 2.2 5.2 7 8.1 10.8 2.9 3.7 5.6 6.7 6.1 6.7 0.4 0 1.7-5 3-11.2 1.3-6.2 3.1-14.5 4-18.5 0.9-4 2-6.9 2.3-6.5z"/>
	</g>
</svg>