<svg version="1.2" xmlns="http://www.w3.org/2000/svg" viewBox="0 0 1000 1000" width="1000" height="1000">
	<title>malaysia_flag</title>
	<style>
		.s0 { fill: #eeeeee } 
		.s1 { fill: #dc143c } 
	</style>
	<g id="Layer 3">
		<path id="Path 0" class="s0" d="m500 147c216.7 0 394 0.3 394 0.8 0 0.4 2.1 1.3 4.7 2 2.6 0.7 8.6 2.4 13.3 3.9 4.7 1.4 11.2 3.9 14.5 5.6 3.3 1.6 9.1 5 13 7.6 3.8 2.5 10.8 8.5 15.5 13.2 4.7 4.7 10.6 11.7 13.1 15.5 2.6 3.8 6 9.6 7.7 12.9 1.6 3.3 4.2 9.6 5.6 14 1.4 4.4 2.6 8.7 2.6 9.5 0 0.8 0.7 2.8 1.5 4.5 1.4 2.6 1.6 18.5 1.5 263.5h-974v-129.8c0-108.6 0.2-130.3 1.4-133.7 0.8-2.2 2.4-7.6 3.6-12 1.3-4.4 3.8-11.2 5.8-15 1.9-3.8 5.5-10.1 8.1-14 2.5-3.8 8.5-10.8 13.2-15.5 4.7-4.7 11.7-10.6 15.5-13.1 3.8-2.6 9.6-6 12.9-7.6 3.3-1.7 9.8-4.2 14.5-5.6 4.7-1.5 10.7-3.2 13.3-3.9 2.6-0.7 4.7-1.6 4.7-2 0-0.5 177.3-0.8 394-0.8z"/>
		<path id="Path 1" class="s1" d="m13 500h974v129.8c0 111.4-0.3 130.3-1.5 134.2-0.8 2.5-2.7 8.3-4.1 13-1.4 4.7-4 11.2-5.6 14.5-1.7 3.3-5.1 9.1-7.7 12.9-2.5 3.8-8.4 10.8-13.1 15.5-4.7 4.7-11.7 10.7-15.5 13.2-3.9 2.6-9.7 6-13 7.6-3.3 1.7-9.8 4.2-14.5 5.6-4.7 1.4-11.9 3.5-23.5 6.7h-777l-7.5-2c-4.1-1.2-11.3-3.3-16-4.7-4.7-1.4-11.2-3.9-14.5-5.6-3.3-1.6-9.1-5-12.9-7.6-3.8-2.5-10.8-8.5-15.5-13.2-4.7-4.7-10.7-11.7-13.2-15.5-2.6-3.8-6-9.6-7.7-12.9-1.6-3.3-4.2-9.6-5.6-14-1.4-4.4-2.6-8.7-2.6-9.5 0-0.8-0.7-2.9-1.5-4.5-1.4-2.6-1.6-18.5-1.5-133.3z"/>
	</g>
</svg>