<svg version="1.2" xmlns="http://www.w3.org/2000/svg" viewBox="0 0 1000 1000" width="1000" height="1000">
	<title>france_flag</title>
	<style>
		.s0 { fill: #eeeeee } 
		.s1 { fill: #22408c } 
		.s2 { fill: #ce2028 } 
	</style>
	<g id="Layer 4">
		<path id="Path 0" class="s0" d="m499.3 152.1c286.1-0.1 391 0.2 394.4 1 2.7 0.6 8.4 2.3 12.8 3.6 4.4 1.3 12 4.4 17 6.8 5 2.4 12.8 7.5 17.5 11.2 4.6 3.7 11.6 10.5 15.5 15 4 4.6 9.2 12.4 12.2 18 2.9 5.4 6.4 13.2 7.8 17.3 1.4 4.1 2.5 8.2 2.5 9-0.1 0.8 0.6 2.2 1.5 3 1.4 1.3 1.6 7.9 1 128.5l-963.5 0.5v-63c0-52.1 0.2-63.5 1.4-65.8 0.8-1.5 2.4-6.1 3.6-10.2 1.3-4.1 3.5-10 4.9-13 1.5-3 4-7.7 5.6-10.5 1.6-2.7 4.8-7.5 7-10.5 2.3-3 7.5-8.6 11.6-12.4 4.1-3.7 10.3-8.8 13.9-11.1 3.6-2.4 9.4-5.7 13-7.3 3.6-1.6 10.1-4.1 14.5-5.5 4.4-1.4 9.8-2.9 12-3.5 2.6-0.6 142.1-1 393.8-1.1z"/>
		<path id="Path 1" class="s1" d="m981.8 365.2c0.1-0.1 0.2 60.3 0.2 268.8l-964 0.5v-268.5l481.8-0.3c264.9-0.1 481.8-0.3 482-0.5z"/>
		<path id="Path 2" class="s2" d="m982 634v63c0 52.1-0.2 63.5-1.4 65.8-0.8 1.5-2.4 6.1-3.6 10.2-1.2 4.1-4.7 12.2-7.7 18-3 5.8-8 13.6-11.1 17.4-3.2 3.8-8.2 9.2-11.2 11.9-3 2.8-9.1 7.4-13.5 10.3-4.4 2.9-10.5 6.3-13.5 7.7-3 1.3-8.3 3.4-11.8 4.6-3.4 1.1-9.5 2.8-13.4 3.6-6.4 1.3-54.3 1.5-394.8 1.5-340.5 0-388.4-0.2-394.8-1.5-3.9-0.8-10-2.5-13.4-3.6-3.5-1.2-8.8-3.3-11.8-4.6-3-1.4-9.1-4.8-13.5-7.7-4.4-2.9-10.5-7.5-13.5-10.3-3-2.7-8-8.1-11.2-11.9-3.1-3.8-8.1-11.6-11.1-17.4-3-5.8-6.5-13.9-7.7-18-1.2-4.1-2.9-8.7-3.6-10.2-1.1-2.3-1.4-14.4-1.6-65.1-0.1-34.3 0.2-62.7 0.7-63 0.5-0.4 217.4-0.7 963.5-0.7z"/>
	</g>
</svg>