<svg version="1.2" xmlns="http://www.w3.org/2000/svg" viewBox="0 0 1000 1000" width="1000" height="1000">
	<title>usa_flag</title>
	<style>
		.s0 { fill: #dd2e44 } 
		.s1 { fill: #c60a1d } 
		.s2 { fill: #ffc401 } 
		.s3 { fill: #ffac33 } 
		.s4 { fill: #ea596e } 
		.s5 { fill: #66757f } 
		.s6 { fill: #99aab5 } 
		.s7 { fill: #f4a3b3 } 
	</style>
	<g id="Layer 2">
		<path id="Path 0" class="s0" d="m500 338c318.7 0 479 0.3 479 1 0 0.7-160.3 1-479 1-318.7 0-479-0.3-479-1 0-0.7 160.3-1 479-1zm0 322c318.7 0 479 0.3 479 1 0 0.7-160.3 1-479 1-318.7 0-479-0.3-479-1 0-0.7 160.3-1 479-1z"/>
		<path id="Path 1" class="s1" d="m506.5 152.4c373.2 0.1 387.1 0.2 391 1.9 2.2 1 7.1 2.7 11 3.8 3.9 1 7.7 2.5 8.5 3.3 0.8 0.7 3.1 1.8 5 2.4 1.9 0.6 4.4 2.1 5.5 3.2 1.1 1.1 2.5 2 3 2 0.5 0 2.9 1.5 5.3 3.5 2.3 1.9 4.4 3.5 4.7 3.5 0.3 0 3.9 3.3 8 7.2 4.1 4 7.4 7.9 7.5 8.5 0 0.7 0.9 1.7 2 2.3 1.1 0.6 3.1 2.9 4.5 5.2 1.3 2.4 3.4 6.3 4.6 8.8 1.2 2.5 3 5.6 4.1 7 1 1.4 2.3 4.6 2.8 7.2 0.8 3.8 1.4 4.8 3 4.8 2 0 2 0.7 2 111h-958v-55.5c0-54.8 0-55.5 2-55.5 1.6 0 2.2-1 3-4.8 0.6-2.6 2.1-6.3 3.5-8.2 1.4-1.9 2.7-4.6 3-6 0.2-1.4 1.2-3.2 2.1-4 0.9-0.8 2.5-3.2 3.5-5.3 1.1-2 2.8-4.1 3.9-4.7 1.1-0.6 2-1.6 2-2.3 0.1-0.6 3.4-4.5 7.5-8.5 4-3.9 7.7-7.2 8.2-7.2 0.4 0.1 1.7-0.9 2.8-2.1 1.1-1.2 3.6-2.9 5.5-3.9 1.9-1 4.2-2.5 5-3.4 0.8-0.9 3.1-2.2 5-2.8 1.9-0.6 4.6-1.9 6-2.8 1.4-0.9 5-2.3 8-3 3-0.8 6.8-2 8.5-2.9 1.7-0.8 6.6-1.8 11-2.1 4.4-0.4 182.1-0.7 395-0.6zm-485.5 509.6h958v55.5c0 54.8 0 55.5-2 55.5-1.5 0-2.2 1-3 4.2-0.6 2.4-1.7 5.4-2.5 6.8-0.8 1.4-2.4 4.5-3.6 7-1.1 2.5-3.2 5.9-4.5 7.5-1.3 1.6-2.4 3.6-2.4 4.2 0 0.7-1.1 2-2.5 2.8-1.4 0.8-2.5 2.1-2.5 2.7-0.1 0.7-3.4 4.6-7.5 8.5-4.1 4-7.7 7.3-8 7.3-0.3 0-2.4 1.6-4.7 3.5-2.4 2-4.8 3.5-5.3 3.5-0.5 0-1.9 0.9-3 2-1.1 1.1-3.6 2.6-5.5 3.2-1.9 0.6-4.6 1.8-6 2.8-1.4 0.9-4.7 2.2-7.5 2.9-2.7 0.7-7.2 2.3-15 5.6h-787l-5-2.2c-2.7-1.1-7.2-2.7-10-3.4-2.7-0.7-6.1-2-7.5-2.9-1.4-1-4.1-2.2-6-2.8-1.9-0.6-4.4-2.1-5.5-3.2-1.1-1.1-2.5-2-3-2-0.5 0-2.9-1.5-5.2-3.5-2.4-1.9-4.5-3.5-4.8-3.5-0.3 0-3.9-3.3-8-7.3-4.1-3.9-7.4-7.8-7.5-8.5 0-0.6-1.1-1.9-2.5-2.7-1.4-0.8-2.5-2.1-2.5-2.8 0-0.6-1.1-2.6-2.4-4.2-1.3-1.6-3.4-5-4.5-7.5-1.2-2.5-2.8-5.6-3.6-7-0.8-1.4-1.9-4.4-2.5-6.8-0.8-3.2-1.5-4.2-3-4.2-2 0-2-0.7-2-55.5z"/>
		<path id="Path 2" class="s2" d="m21 343h958v314h-958v-157z"/>
		<path id="Path 3" class="s3" d="m500 340c425.1 0 479 0.2 479 1.5 0 1.3-53.9 1.5-479 1.5-425.1 0-479-0.2-479-1.5 0-1.3 53.9-1.5 479-1.5zm0 317c425.1 0 479 0.2 479 1.5 0 1.3-53.9 1.5-479 1.5-425.1 0-479-0.2-479-1.5 0-1.3 53.9-1.5 479-1.5zm-150.5-289.3c8.3 0.2 19.3 0.8 24.5 1.3 5.2 0.5 14.7 2.2 21 3.8 6.3 1.6 13.3 3.8 15.5 5 2.2 1.1 4.8 2.8 5.7 3.8 0.9 1.1 2.4 5.3 3.4 9.4 1 4.1 1.9 11.1 2.4 23.5l-4.5 6.8c-2.5 3.7-4.8 6.7-5.3 6.7-0.4 0-1.9 1.1-3.5 2.5-1.5 1.4-4 3.1-5.5 3.8-1.6 0.6-4.7 2.8-7 4.7-2.3 1.9-3.9 3.9-3.4 4.3 0.4 0.4 6.4 0.7 13.4 0.7 12.3 0 12.9 0.1 17.8 5v41.3c0 24.6-0.3 41.6-0.9 42.2-0.5 0.5-1.1 9.8-1.3 20.5-0.3 17.9-0.5 19.8-2.4 23-1.2 1.9-2.5 5.4-2.8 7.8-0.3 2.3-1.5 5-2.5 6-1.1 0.9-2.6 3.6-3.5 6-0.9 2.3-2 4.2-2.6 4.2-0.6 0-2.1 1.7-3.4 3.8-1.3 2-3.7 4.9-5.3 6.4-1.5 1.5-4.5 4.3-6.6 6.2-2.1 2-4.3 3.6-5 3.6-0.7 0.1-2.7 1.4-4.5 3-1.7 1.7-3.9 3-4.7 3-0.8 0-3.4 1.1-5.8 2.4-2.3 1.4-6.5 2.8-9.2 3.1-2.8 0.4-7.5 1.4-10.5 2.1-3 0.8-8.6 1.4-12.5 1.4-3.9 0-8.8-0.5-11-1.1-2.2-0.6-6.9-1.5-10.5-2-3.7-0.6-8-2-10-3.3-1.9-1.3-4.7-2.6-6.3-3-1.5-0.3-4.1-1.7-5.7-3.1-1.6-1.4-3.3-2.5-3.8-2.5-0.4 0-1.8-1.2-3.2-2.5-1.4-1.4-4.5-4.6-7-7.1-2.5-2.5-6-6.1-7.8-8-1.7-1.9-3.2-4-3.2-4.6 0.1-0.7-0.9-2.2-2-3.3-1.2-1.1-2.6-3.8-3.2-6-0.6-2.2-1.9-5.1-2.9-6.5-1.2-1.5-2.3-5.6-2.9-10.5-0.6-4.5-1-33.1-1-66 0-40.1 0.3-58.3 1-59 0.6-0.6 6.8-1.1 13.8-1.2 7-0.1 14.5-0.6 20.7-2l-4.3-1.1c-2.3-0.7-5.2-2.3-6.5-3.6-1.2-1.3-3.8-3-5.7-3.8-1.9-0.8-4.9-2.7-6.5-4.1-1.6-1.5-4.3-4-5.8-5.5-1.6-1.5-3.6-3.8-4.5-5.2-1.4-1.9-1.7-4.8-1.6-14.5 0-6.6 0.6-14.5 1.2-17.5 1.1-5.2 1.5-5.7 7-9 4.2-2.5 9.3-4.3 19.7-6.7 10.6-2.5 17.9-3.5 30-4.2 8.8-0.4 22.7-0.6 31-0.4zm-129.1 49.3c7.9 0 10.7 0.4 12.6 1.7 1.4 0.9 2.8 2.2 3.2 2.7 0.4 0.6 0.8 40.7 0.8 89.1 0 76.8 0.2 88.3 1.5 90.3 1.4 2 2.3 2.2 10.2 2.2 5.3 0.1 9.4 0.5 10.4 1.3 0.9 0.7 2.1 2.2 2.7 3.5 0.7 1.2 1.2 6.4 1.2 11.7 0 5.2-0.5 10.5-1 11.8-0.6 1.2-2.1 2.8-3.3 3.6-1.8 1.1-9 1.4-37.2 1.4-32.4 0.1-35.2-0.1-38-1.8-1.7-1-3.6-2.6-4.3-3.4-0.8-1.1-1.2-5-1.2-11.6 0-5.5 0.4-10.5 0.8-11 0.4-0.6 2-2 3.7-3.2 2.3-1.6 4.9-2.2 11.3-2.4 7.5-0.4 8.6-0.7 10.3-2.9 1.9-2.4 2-4.5 1.5-178.4l2.4-2.3c2.1-2.1 3.2-2.3 12.4-2.3zm238.9 0c8.4 0 10.8 0.4 16.7 4v88.8c0 77.4 0.2 89 1.5 91 1.4 2 2.3 2.2 10.2 2.2 8-0.1 9 0.2 11.5 2.5 2.7 2.4 2.8 2.7 2.8 14 0 10.8-0.1 11.6-2.4 13.8-2.2 2.1-3.5 2.2-21.7 2.9-10.7 0.4-27.2 0.4-36.7 0-17-0.7-17.4-0.8-24.2-6.2v-21l3.7-2.9c3.4-2.7 4.7-3 12.1-3.3 7.6-0.3 8.6-0.5 10.3-2.8 1.9-2.4 2-4.6 1.7-177.7l2.2-2.7c2-2.5 2.5-2.6 12.3-2.6z"/>
		<path id="Path 4" class="s0" d="m336 447l0.7 2.8c0.4 1.5 0.7 18.4 0.7 37.7 0.1 19.2-0.2 35.8-0.6 36.8-0.7 1.6-3.5 1.7-36.5 1.7-27.6 0-36.1-0.3-37.1-1.2-0.9-1-1.2-9.6-1.2-37.8 0-21.8 0.4-37 1-37.7 0.5-0.6 2.2-1.3 3.7-1.6 1.6-0.2 17.8-0.5 69.3-0.7z"/>
		<path id="Path 5" class="s4" d="m279.9 399.6c5.8 1.8 14 3.7 18.1 4.3 4.1 0.5 15.1 1.5 24.5 2.1 12.5 0.8 21.8 0.8 35 0 9.9-0.6 21.4-1.5 25.5-2 4.1-0.6 11.3-2.2 16-3.6 4.7-1.4 9.9-3 11.5-3.5 2.6-0.8 3.3-0.6 5.2 1.8 1.2 1.6 2.3 4.4 2.5 6.3 0.2 1.9-0.5 6-1.5 9-1 3-2.8 6.6-4 7.9-1.2 1.3-4.4 4-7.2 6.1-2.7 2-8.1 5.2-12 7-3.9 1.9-10.4 4.3-14.5 5.5-6.1 1.7-7.5 2.4-7.5 4 0 1.9-0.9 2-13 2.5-12.6 0.5-13 0.6-14.2 3-0.9 1.9-1.3 11.3-1.3 37-0.1 31.7 0.1 34.7 3.5 39.1l72.7-0.6-0.5 19c-0.4 13.5-1.1 21.4-2.5 27.5-1.1 4.7-3.2 11-4.7 14-1.5 3-3 6-3.4 6.6-0.3 0.6-1.8 2.9-3.2 5-1.4 2.1-5 6.4-8 9.5-3 3-7 6.7-8.9 8.2-1.9 1.5-5.1 3.6-7 4.7-1.9 1.1-4.9 2.6-6.5 3.4-1.6 0.8-6.4 2.7-10.5 4.2-7.1 2.8-8.2 2.9-24 2.8-16.2 0-16.7-0.1-24.5-3.2-4.4-1.8-9.1-3.9-10.5-4.7-1.4-0.8-4.5-2.5-7-3.9-2.5-1.3-7.2-5-10.5-8.2-3.3-3.2-7.5-7.8-9.2-10.1-1.8-2.4-4-5.8-4.9-7.6-0.9-1.7-2.2-3.9-2.9-4.7-0.7-0.8-2.7-6.2-4.6-12-3.2-10.2-3.3-11.1-3.7-31.5-0.3-17.6-0.2-20.8 1-19.7 1 0.9 9.6 1.2 37.1 1.2 33 0 35.8-0.1 36.5-1.8 0.4-0.9 0.7-17.5 0.6-36.7 0-19.3-0.3-36.2-1.4-40.5l-33.5-0.1 8-3.5-3-1.2c-1.6-0.6-5-1.6-7.5-2.3-2.5-0.6-7.9-2.7-12-4.7-4.1-2-9.9-5.3-12.7-7.4-2.9-2.1-6.8-6.2-8.6-9.1-1.9-2.8-3.7-6.8-4-8.7-0.3-1.9-0.2-5 0.3-6.8 0.5-1.7 2.2-4 3.6-5 2.6-1.8 2.9-1.8 13.3 1.4z"/>
		<path id="Path 6" class="s5" d="m221.8 421.1c4.9-0.1 6.8 0.4 12.5 4.4l-0.4 9.5c-0.3 5.2-0.8 10.1-1.2 10.7-0.5 0.9-4 1.3-11.7 1.3-10 0-11.1-0.2-12-2-0.6-1.1-1-5.9-1-10.8 0-4.8 0.5-9.3 1-10 0.5-0.7 2.2-1.7 3.7-2.2 1.6-0.4 5.6-0.9 9-0.9zm239.3 0c5.1-0.1 7.1 0.3 9.2 1.9 2.7 1.9 2.8 2.3 2.8 11 0 4.9-0.5 9.9-1 11-0.9 1.8-2 2-12 2-10 0-11.1-0.2-12-2-0.6-1.1-1-5.9-1-10.8 0-4.8 0.5-9.3 1-10 0.5-0.7 2.2-1.7 3.7-2.2 1.6-0.4 5.7-0.9 9.3-0.9zm-224.1 185c0.9 0.4 5.9 0.8 11.1 1.1 5.2 0.2 10.1 0.7 10.7 1.1 0.9 0.5 1.3 3.8 1.3 11.2 0 10.3-0.1 10.5-2.5 11.5-1.5 0.6-16.3 1-36.8 1-28.8 0-34.6-0.2-36.5-1.5-2-1.4-2.2-2.3-2.2-11 0-8.7 0.2-9.6 2.2-11 1.9-1.3 6.2-1.6 22.8-1.7 11.3 0 22.2-0.4 24.4-0.7 2.1-0.4 4.6-0.4 5.5 0zm239 0c0.9 0.4 5.9 0.8 11.1 1.1 5.2 0.2 10.1 0.7 10.7 1.1 0.9 0.5 1.3 3.8 1.3 11.2 0 10.3-0.1 10.5-2.5 11.5-1.5 0.6-16.3 1-36.8 1-28.8 0-34.6-0.2-36.5-1.5-2-1.4-2.2-2.3-2.2-10.5 0-7.7 0.3-9.3 2-11 1.7-1.7 3.5-2 11.7-2.2 5.4-0.2 14.5-0.2 20.3 0 5.8 0.1 12.5-0.1 14.9-0.6 2.4-0.4 5.1-0.5 6-0.1z"/>
		<path id="Path 7" class="s6" d="m209.1 446.5h23.4l0.5 77.5c0.3 42.6 0.9 78.5 1.3 79.8 0.7 2.1 0.4 2.2-6 2.8-3.8 0.4-9.9 0.3-20.8-0.7l0.2-72.7c0.1-40 0.5-75.8 0.8-79.7zm239.1 0h23.8v4c0 2.2 0.1 37.1 0.3 77.5 0.1 40.4 0.6 74.4 1 75.5 0.8 1.8 0.3 2.1-5.5 2.9-3.5 0.4-9.8 0.4-14.1 0-6.3-0.7-7.6-1.2-7.2-2.4 0.3-0.8 0.6-33.5 0.5-72.5 0-39.1 0.2-74.1 0.6-78z"/>
		<path id="Path 8" class="s7" d="m380 447.5c18.4 0.3 34.2 0.8 35 1 0.8 0.2 2.1 1.6 2.8 3 0.8 1.7 1.4 12.5 2.6 70l-2.2 2.3c-2.2 2.2-2.2 2.2-72.2 2.2l-1.5-2.3c-1.3-1.9-1.5-7.5-1.3-37.8 0.3-29.7 0.5-35.9 1.8-37.4 1.4-1.6 3.7-1.7 35-1z"/>
	</g>
</svg>