<svg version="1.2" xmlns="http://www.w3.org/2000/svg" viewBox="0 0 1000 1000" width="1000" height="1000">
	<title>malaysia_flag</title>
	<style>
		.s0 { fill: #eeeeee } 
		.s1 { fill: #141414 } 
		.s2 { fill: #bb1600 } 
		.s3 { fill: #006600 } 
		.s4 { fill: #ffffff } 
	</style>
	<g id="Layer 2">
		<path id="Path 0" class="s0" d="m366.1 271.7l2.8 2.4c1.6 1.3 3.4 3.2 4 4.2 0.6 0.9 0.9 1.9 0.6 2.2-0.3 0.3-1.2-0.3-2.1-1.2-1.4-1.6-1.7-1.6-2.4-0.3-0.4 0.8-1 1.1-1.3 0.5-0.2-0.6-0.7-2.5-1-4.4zm267.6 0.3c0.1 0 0 1.5-0.4 3.3-0.3 1.8-0.8 3.7-1.1 4.2-0.2 0.6-0.8 0.4-1.3-0.5-0.6-1.3-0.9-1.2-2.3 0.3-0.9 0.9-2 1.5-2.4 1.2-0.4-0.3 1.1-2.3 3.2-4.5 2.2-2.2 4.1-4 4.3-4zm-263.9 9.4c0.4 0.2 1.1 1.9 1.6 3.8 0.4 1.8 1 4.1 1.2 5.1 0.2 0.9-0.1 1.5-0.6 1.2-0.6-0.3-1-1.5-1.1-2.7 0-1.3-0.6-3.2-1.4-4.3-0.8-1.1-1.2-2.3-0.9-2.7 0.3-0.5 0.9-0.6 1.2-0.4zm8.7 3.3c0.8 0.5 4.8 4.6 8.9 9.3 4.2 4.7 7.6 8.9 7.6 9.3 0 0.4-2-1.3-4.5-3.8-2.5-2.5-4.5-4.7-4.5-5 0-0.3-2-2.4-4.5-4.7-2.4-2.4-4.4-4.6-4.4-5.1 0-0.4 0.7-0.4 1.4 0zm238 6.4c0.5 0 0.2 0.5-0.7 1.2-1 0.7-1.8 1.6-1.8 2 0 0.4-0.8 1.7-1.8 2.8-0.9 1.2-2.3 2.7-3 3.3-0.7 0.6-1.9 1.7-2.8 2.4-0.8 0.7-1.3 0.8-1.2 0.3 0.1-0.5 2.5-3.4 5.3-6.5 2.8-3.1 5.5-5.6 6-5.5zm-213 22.6l2 1c1.1 0.6 3 2.3 4.2 3.9 1.3 1.6 2.1 3 1.8 3.2-0.3 0.1-1.3-0.6-2.3-1.6-0.9-1-2.6-2.9-3.7-4.1zm192 0.3c0.4 0-0.1 0.9-1.1 2.1-1.1 1.2-2.7 3-3.7 4-0.9 1-2.1 1.6-2.5 1.4-0.4-0.3 0.9-2.1 2.9-4 2-2 4-3.5 4.4-3.5zm-193.3 47c2.3 2.4 4.3 5 4.3 5.6 0 0.7-1.9-0.9-4.3-3.5-2.3-2.5-4.2-5.1-4.3-5.6 0-0.6 1.9 1 4.3 3.5zm196.9-0.9c0.3-0.1 0.2 0.6-0.2 1.6-0.4 1-1.9 2.9-3.4 4.3-1.8 1.7-2.5 2-2.5 1 0-0.9 1.3-2.7 2.8-4.2 1.5-1.4 2.9-2.7 3.3-2.7zm-172.3 1.9c0.4 0 0.5 1 0.3 2.2-0.2 1.2 0.1 2.6 0.8 3 0.6 0.4 1.1 1.2 1.1 1.8 0 0.5-0.6 0.7-1.3 0.4-0.7-0.2-1.8-1.4-2.5-2.5-0.9-1.4-0.9-2.3-0.1-3.4 0.6-0.9 1.4-1.5 1.7-1.5zm147.2 2c0.5 0 1.2 0.4 1.5 1 0.3 0.5-0.6 2.1-2 3.5-1.8 1.8-3.1 2.3-4.8 1.8-1.2-0.4-2.5-1.2-2.9-1.8-0.4-0.6-0.5-1.4-0.3-1.9 0.3-0.5 2-0.6 4-0.2 2.7 0.4 3.5 0.2 3.5-0.9 0-0.9 0.4-1.5 1-1.5zm-172.5 1.8c1.1 0.3 3.1 1.3 4.5 2.3 2.2 1.7 2.7 1.7 4 0.4 0.8-0.8 3.2-1.5 5.2-1.5 2.8 0 4 0.5 4.8 2 0.5 1.1 0.7 2.3 0.3 2.7-0.3 0.4-0.7 0.2-0.7-0.5-0.1-0.8-1.8-1.2-4.7-1.1-4.4 0.1-4.4 0.1-0.9 0.7 2.2 0.4 4.7 1.8 6.3 3.7 1.4 1.6 2.6 3.9 2.7 5 0 1.1 0.3 1.5 0.7 1 0.4-0.6 1.7-1.1 2.8-1.2 1.7-0.2 1.8-0.1 0.4 1-0.9 0.6-1.9 2.7-2.3 4.7-0.4 1.9-1.3 4.5-3.6 8h-404v-27l191.2-0.3c105.2-0.1 192.2-0.1 193.3 0.1zm581.5-0.3v27.5h-404l-1.5-2.3c-0.8-1.2-1.8-3.8-2.2-5.7-0.3-2-1.3-4-2-4.5-1.1-0.8-0.9-1 0.6-1 1 0 1.7 0.3 1.5 0.7-0.2 0.4 0 0.8 0.6 0.8 0.5 0 1.2-1.1 1.5-2.3 0.3-1.2 1.4-3.3 2.5-4.7 1.1-1.3 3.7-2.7 9.5-3.8l-4.3-0.1c-2.3-0.1-4.2 0.3-4.2 0.9 0 0.5-0.7 1-1.4 1-1.3 0-1.3-0.4 0-2.5 1.1-2 2.2-2.6 5.1-2.6 2.3 0 4.3 0.6 5 1.5 1.1 1.3 1.6 1.3 3.4 0.3 1.2-0.7 2.9-1.7 3.8-2.2 1.1-0.7 67.6-1 386.1-1zm-551.1 0.4c0.9 0 1.9 0.3 2.3 0.6 0.4 0.4 0.5 1.3 0.3 2-0.3 0.8-1.4 1.5-2.5 1.5-1.1 0-2.2-0.6-2.5-1.3-0.2-0.7-0.1-1.6 0.2-2 0.3-0.4 1.3-0.8 2.2-0.8zm-414.9 241.1h404l1.5 2.2c1.1 1.5 1.4 3.4 1 5.8-0.5 2.9-0.4 3.2 0.6 1.5 0.9-1.7 1.2-1.8 2-0.5 0.5 0.8 0.8 2.1 0.8 3 0 1.3-0.1 1.3-0.9 0q-1-1.5-1-0.3c0 0.7-0.5 1-1 0.8-0.6-0.3-1 0.2-1 1.2 0 1-0.8 2.9-1.8 4.4-1 1.5-2.4 2.4-3.5 2.2-1.1-0.2-2.2 0.7-3.2 2.7-0.8 1.6-1.3 3.3-1 3.7 0.2 0.4 0.9-0.4 2.4-4.2v2.5c0.1 1.3-0.2 2.8-0.6 3.2-0.5 0.4-1.3 0.3-1.8-0.2-0.6-0.6-74.3-0.9-396.5-0.5v-13.8zm562 0h404v27l-195.3 0.1c-107.4 0.1-197.1 0.2-199.4 0.3-3 0.1-4.5-0.4-5.2-1.6-0.7-1.1-0.7-1.6-0.1-1.3 0.5 0.3 1-0.1 1-0.7 0.1-0.7 0.5-0.2 1.1 1.2 0.5 1.4 1.2 2.2 1.6 1.8 0.4-0.4-0.5-2.8-2-5.3-1.5-2.5-2.9-4.5-3.2-4.5-0.3 0-0.1 0.9 0.5 2 0.8 1.6 0.6 2-0.5 2-0.8 0-2.2-1.3-3-3-0.8-1.6-1.5-3.8-1.6-4.7 0-1.5 0.4-1.3 4 3.2l-1.2-2.7c-0.7-1.6-1.6-2.8-2-2.8-0.4 0-1-1.5-1.3-3.2-0.3-2.2 0-4.1 1-5.5zm-8.3 20.4c0.9 0.8 1.5 1.9 1.4 2.5 0 0.6 0.2 1 0.7 0.9 0.4 0 1.3 0 2 0 0.6 0.1 1.2 0.8 1.2 1.7 0 0.8 0.5 1.2 1 1 0.6-0.3 1 0.5 1 1.7 0 2.1-0.2 2-1.9-0.7-1.2-2-2.1-2.6-2.5-1.8-0.3 0.7-2.4 1.3-4.6 1.3-3.7 0-3.9-0.2-3.4-2.3 0.4-1.2 1.3-3 2.1-4 1.2-1.4 1.7-1.5 3-0.3zm-139.7-0.4c0.3-0.1 1 0.4 1.6 1.2 0.7 0.7 1.4 2.3 1.8 3.5 0.6 2.1 0.3 2.2-3.5 2-3.4-0.2-4.4-0.7-5.1-2.7-0.9-2.3-0.8-2.4 0.7-1 1.4 1.3 1.6 1.3 1.3-0.2-0.1-0.9 0.5-1.9 1.3-2.2 0.8-0.3 1.6-0.5 1.9-0.6zm-12.2 14c0.5 0-0.3 2.2-1.7 5-1.4 2.7-3.2 5-3.8 5q-1.3 0 1-4c1.2-2.2 2.5-3.8 3-3.5 0.4 0.2 0.7-0.2 0.7-1 0-0.9 0.4-1.5 0.8-1.5zm162.2 0c0.5 0 1 0.6 1 1.5 0 0.8 0.3 1.2 0.8 1 0.4-0.3 1.7 1.2 2.9 3.2 1.3 2.1 2 4.1 1.6 4.5-0.3 0.4-0.1 0.8 0.5 0.8 0.7 0 1.2 0.7 1.2 1.7 0 1.5-0.1 1.6-1.4 0.3-0.7-0.9-2.8-4.1-4.5-7.3-1.8-3.2-2.7-5.7-2.1-5.7zm-171.5 3c0.4 0 0.1 0.7-0.7 1.7-0.7 1-1.7 2-2.1 2.3-0.5 0.2-0.7 0.9-0.5 1.4 0.2 0.5-0.3 1-0.9 1.2-0.7 0.2-1.3-0.1-1.3-0.7 0.1-0.6 1.2-2.1 2.5-3.5 1.3-1.3 2.7-2.4 3-2.4zm-9.5 28c0.6 0 1 0.5 1 1.2 0.1 0.7-0.6 1.9-1.5 2.8-0.8 0.8-1.8 1.1-2 0.7-0.3-0.4 0-1.6 0.5-2.7 0.6-1.1 1.5-2 2-2zm-11.2 6c0.2 0.8-0.2 1.8-0.9 2.2-0.8 0.4-1.1 0.7-0.6 0.7 0.4 0 0 1.4-0.8 3.1-0.8 1.6-1.9 3-2.5 3-0.5 0-1-0.5-1-1.1 0-0.5 1.2-2.9 2.6-5.2q2.7-4.3 3.2-2.7zm6.3 3c0.5 0 0.9 0.3 0.9 0.7 0 0.4-0.9 2.2-2 4-1.1 1.8-2.4 3.3-3 3.3-0.6 0-0.5-1 0.3-2.3 0.6-1.2 1.7-2.6 2.2-3 0.6-0.4 0.7-0.7 0.3-0.7-0.5 0-0.5-0.5-0.2-1 0.3-0.6 0.9-1 1.5-1zm216.6-0.5l2.4 1.6c1.3 0.9 2.5 2.3 2.7 3.2 0.1 0.9-0.2 1.7-0.8 1.7-0.5 0-1.7-1.5-2.7-3.3zm-230.7 9.5c0.4 0 0.6 0.6 0.6 1.3 0 0.6-0.5 1.5-1 1.9-0.6 0.4 0.2 0.9 1.7 1.2 2.1 0.5 3.2 0 4.6-1.6 1.3-1.7 2-1.9 2.5-1 0.4 0.6-0.2 2.3-1.3 3.7-1.1 1.4-2.6 2.5-3.3 2.5-0.7 0-2.2-0.7-3.4-1.7-1.3-1-2.3-2.5-2.5-3.4-0.1-0.9 0.2-1.9 0.7-2.2 0.4-0.4 1.1-0.7 1.4-0.7zm238.6 0.3c0.5 0.2 1.1 1.1 1.2 2 0.2 0.9-0.7 2.6-2 3.7-1.2 1.1-2.9 2-3.7 2-1.4-0.1-1.4-0.2 0-0.8 0.8-0.3 2.3-1.4 3.2-2.4 1-1 1.4-1.8 1-1.8-0.4 0-0.7-0.7-0.7-1.5 0-0.8 0.4-1.4 1-1.2z"/>
		<path id="Path 1" class="s1" d="m504 150.4c308.4 0.2 384.5 0.4 388.5 1.5 2.8 0.7 6.8 1.7 9 2.3 2.2 0.6 6.7 2 10 3.1 3.3 1.1 9.1 3.5 13 5.4 3.9 2 9.3 5.1 12 7.1 2.8 1.9 7.2 5.4 9.8 7.6 2.7 2.3 8.2 8.2 12.3 13.1 4.1 4.9 9.4 12.8 11.8 17.5 2.3 4.7 4.9 10.1 5.5 12 0.7 1.9 1.7 4.4 2.1 5.5 0.5 1.1 1.8 5.8 2.9 10.5 2.1 8.2 2.1 10.4 1.6 129.5l-192.8 0.2c-106 0.2-192.7 0-192.7-0.5 0.1-0.4 1.6-2.7 3.5-5.2 1.8-2.5 5.4-8.8 7.8-14 2.5-5.2 5.6-12.9 7-17 1.4-4.1 5.6-16.1 9.2-26.5 3.7-10.4 7.3-21.3 8.1-24 0.7-2.8 1.4-5.4 1.4-6 0-0.6-1.8 0.8-4.1 3-2.3 2.2-12.3 13-22.3 24-10 11-20.2 22.5-22.6 25.5-2.5 3-6 7.5-7.7 10-1.7 2.5-4 6.5-5 9-1.1 2.5-2.3 6-2.6 7.7-0.5 2.3-0.1 4.8 1.3 8 1.1 2.7 2 5.2 2 5.8 0 0.6-1.8 0.9-4 0.7-2.2-0.1-4 0.2-4 0.8 0 0.6 0.9 1.8 2 2.7 1.1 1 2 2.4 2 3 0 0.7 0.8 2.9 1.8 4.8 0.9 2 2.3 3.5 3 3.5 0.6 0 1.2 1.1 1.2 2.5 0 1.4 0.6 3.7 1.2 5.2 0.7 1.6 1.5 3 1.8 3.3 0.4 0.3 2.5 5.2 4.8 11 2.3 5.8 5.3 14.6 6.7 19.5 1.3 4.9 3.3 13.1 4.4 18 1 4.9 2.4 12.8 3 17.5 0.6 4.7 1.5 12.9 2.1 18.2 0.5 5.4 1 15.9 1 23.3 0 7.4-0.5 17.9-1 23.2-0.6 5.4-1.5 13.6-2.1 18.3-0.6 4.7-2 12.5-3 17.5-1.1 5-3.1 13-4.5 18-1.4 5-4.4 13.8-6.7 19.7-2.3 6-4.5 10.8-4.9 10.8-0.5 0-1-1-1.2-2.3-0.3-1.2-2.1-6.5-4.2-11.7-2-5.2-4.5-12.4-5.6-16-1-3.6-3-11.5-4.3-17.5-1.3-6-3.1-16.9-4.1-24-1.1-8.9-1.6-20.4-1.6-36.5 0-15.7 0.6-27.5 1.7-35.5 0.8-6.6 2.3-15.4 3.1-19.5 0.9-4.1 2-9.1 2.5-11 0.4-1.9 1.2-5.1 1.7-7 0.5-1.9 2.3-7.3 4-12 1.6-4.7 4-11.2 7.5-20.5l-5-10c-2.7-5.5-6.2-11.8-7.6-14-1.5-2.2-3.9-5.8-5.3-8-1.5-2.2-5.7-8.1-9.4-13-3.8-4.9-11.5-13.9-17.3-20-5.8-6.1-13-13-16.2-15.5-3.1-2.5-7.7-6.4-10.3-8.7-2.6-2.4-5.4-4.3-6.2-4.3-0.8 0-3.6 1.9-6.2 4.3-2.6 2.3-7.2 6.2-10.3 8.7-3.2 2.5-10.4 9.4-16.2 15.5-5.8 6.1-13.5 15.1-17.2 20-3.7 4.9-8.8 11.9-11.3 15.5-2.5 3.6-7.2 11.7-16.1 29.5l1.8 4.5c1 2.5 3.4 9.4 5.5 15.5 2 6.1 4.2 12.8 4.8 15 0.6 2.2 1.8 6.9 2.7 10.5 0.8 3.6 2.4 13 3.6 21 1.7 11.6 2.1 19.5 2.1 39 0.1 17.3-0.4 28.2-1.6 37-0.9 6.9-2.3 15.6-3.1 19.5-0.8 3.9-2.4 10.6-3.6 15-1.1 4.4-3.3 11.6-4.8 16-1.6 4.4-3.8 10.2-5 13-1.2 2.7-2.1 5.6-2.1 6.2 0 0.7-0.4 1.3-1 1.3-0.6 0-1-0.5-1-1 0-0.5-0.8-2.9-1.9-5.3-1-2.3-2.8-6.7-4-9.7-1.1-3-3.1-9.3-4.5-14-1.3-4.7-3.3-13-4.4-18.5-1.2-5.5-2.6-13.6-3.2-18-0.5-4.4-1.4-12.4-2-17.8-0.5-5.3-1-15.8-1-23.2 0-7.4 0.5-17.9 1-23.3 0.6-5.3 1.5-13.3 2-17.7 0.6-4.4 2-12.5 3.2-18 1.1-5.5 3.1-13.8 4.4-18.5 1.4-4.7 3.4-11 4.5-14 1.2-3 3-7.4 4-9.8 1.1-2.3 1.9-4.6 1.9-5.2 0-0.6 0.3-1 0.8-1 0.4 0 1.3-1.4 1.9-3.2 0.7-1.8 1.3-4.1 1.3-5.1 0-0.9 0.8-2.1 1.8-2.6 0.9-0.5 2.4-2.8 3.2-5.2 0.8-2.4 2.3-5.2 3.2-6.2 1-0.9 1.8-2.3 1.8-3 0-0.9-1-1-4-0.5-3.2 0.7-4 0.5-4-0.7 0-0.8 0.7-3 1.7-4.8 0.9-1.8 1.5-5.1 1.4-7.7-0.1-2.6-1.4-7-3.1-10.5-1.6-3.3-5.2-8.9-7.9-12.5-2.7-3.6-12.2-14.6-21.1-24.5-8.9-9.9-19.7-21.5-23.9-25.8-4.2-4.2-7.7-7.6-7.9-7.5-0.1 0.2 0.4 2.8 1.2 5.8 0.8 3 3 10 4.9 15.5 2 5.5 6.1 17.4 9.2 26.5 3.1 9.1 7.7 20.8 10.2 26 2.4 5.2 6 11.6 7.9 14.2 1.9 2.7 3.4 5 3.4 5.3 0 0.3-86.8 0.5-386 0.5v-61.5c0-34.4 0.4-62.5 0.9-63.8 0.5-1.2 1.5-4.9 2.2-8.2 0.7-3.3 1.6-6.4 2.1-7 0.4-0.6 0.8-1.7 0.8-2.5 0-0.8 2.4-6.4 5.4-12.5 3.4-6.9 8.1-14.2 12.4-19.5 3.8-4.7 10.8-11.7 15.5-15.5 4.7-3.9 12.5-9.1 17.3-11.6 4.9-2.6 11.6-5.6 14.9-6.7 3.3-1 7.8-2.4 10-3 2.2-0.6 6.7-1.6 10-2.1 3.3-0.6 7.3-1.3 9-1.5 1.7-0.1 175.6-0.2 386.5-0.2zm-80.4 457.9c0.1 0.1 2.5 4.7 5.4 10.2 3 5.5 6.5 11.8 8 14 1.5 2.2 3 4.7 3.5 5.5 0.5 0.8-0.3 0.4-1.6-1.1-1.3-1.4-3-3.6-3.7-5-0.7-1.3-2-3.3-2.8-4.4-1.3-1.7-1.6-1.8-2.5-0.5-0.8 1.1-0.9 0.8-0.5-1.2 0.4-1.8-0.1-4.3-1.4-6.8-1.1-2.2-2.4-4-3-4-0.6 0-1.1 0.4-1.2 1-0.2 0.5-0.3-1-0.3-3.4 0-2.4 0.1-4.4 0.1-4.3zm152.8-0.3c0.2 0 0.2 2 0.2 4.4-0.1 3.4-0.4 4.2-1.4 3.5-0.8-0.6-1.8 0.3-3.3 3.4-1.3 2.7-1.9 5.1-1.5 6.7 0.5 1.9 0.4 2.1-0.3 1-0.9-1.3-1.2-1.2-2.5 0.5-0.8 1.1-2.1 3.1-2.8 4.4-0.7 1.4-2.4 3.6-6.2 7.6l1.9-3c1-1.6 3-5 4.5-7.5 1.5-2.5 4.6-8.2 6.9-12.7 2.4-4.6 4.4-8.3 4.5-8.3zm-29.6 48c0.2 0-1.9 2.6-4.7 5.8-2.7 3.1-6.6 7.3-8.7 9.2-2.1 1.9 0-0.7 4.6-5.7 4.7-5.1 8.6-9.3 8.8-9.3z"/>
		<path id="Path 2" class="s2" d="m500 300c0.8 0 3.6 1.9 6.2 4.3 2.6 2.3 7.2 6.2 10.3 8.7 3.2 2.5 10.4 9.4 16.2 15.5 5.8 6.1 13.5 15.1 17.2 20 3.7 4.9 8.2 11 9.9 13.5 1.7 2.5 4.9 7.8 7.2 11.8 2.7 4.9 4.4 7 5.2 6.5 0.9-0.6 1-0.4 0.4 0.7-0.6 1-0.1 3.1 1.5 6.2 1.3 2.6 2.7 4.5 3.1 4.3 0.5-0.3 0.4 0.7-0.1 2.3-0.5 1.5-2.1 5.8-3.6 9.7-1.4 3.9-3.7 10.1-4.9 14-1.3 3.9-2.8 8.8-3.4 11-0.6 2.2-1.5 6-2.1 8.5-0.5 2.5-1.5 6.8-2 9.5-0.6 2.8-1.8 10.4-2.7 17-1 7.9-1.6 20-1.6 35.5 0 16.1 0.5 27.6 1.6 36.5 1 7.1 2.8 18 4.1 24 1.3 6 3.3 13.9 4.3 17.5 1.1 3.6 3.6 10.8 5.6 16 2.1 5.2 3.9 10.5 4.2 11.8 0.2 1.2 0.7 2.2 1.2 2.2 0.4 0 2.6-4.8 4.9-10.8 2.3-5.9 5.3-14.7 6.7-19.7 1.4-5 3.4-13 4.5-18 1-5 2.4-12.8 3-17.5 0.6-4.7 1.5-12.9 2.1-18.3 0.5-5.3 1-15.8 1-23.2 0-7.4-0.5-17.9-1-23.3-0.6-5.3-1.5-13.3-2-17.7-0.6-4.4-2-12.3-3-17.5-1.1-5.2-3.3-14-4.9-19.5-1.6-5.5-4.5-14.1-6.5-19-2-4.9-3.6-9.1-3.6-9.3 0-0.1 90.9-0.2 404-0.2v214h-202c-133.7 0-202.2 0.3-202.5 1-0.3 0.5-0.8 0.8-1.2 0.5-0.5-0.2-3.6 4.7-7 11-3.5 6.3-6.3 11.7-6.3 12 0 0.3 0.6 0.2 1.2-0.2q1.3-0.8 0.5 0.5c-0.4 0.6-1.2 1-1.7 0.7-0.5-0.3-2.3 1.6-3.9 4.3-1.5 2.6-5.4 8.1-8.5 12.2-3.1 4.1-10.2 12.5-15.6 18.5-5.5 6-13.2 13.7-17.1 17-3.9 3.3-9.5 7.9-12.3 10.3-2.8 2.3-5.8 4.2-6.6 4.2-0.8 0-3.8-1.9-6.6-4.2-2.9-2.4-8.6-7.2-12.9-10.8-4.2-3.6-11.9-11.2-17-17-5.2-5.8-11.9-13.9-15.1-18-3.1-4.1-7-9.6-8.5-12.2-1.6-2.7-3.3-4.6-3.9-4.3-0.6 0.3-1.3-0.1-1.7-0.7-0.6-1-0.4-1 0.7-0.3q1.4 1 0.9 0c-0.2-0.5-1.9-3.8-3.7-7.2-1.7-3.5-3.6-6.1-4.2-5.8-0.6 0.3-0.8-0.1-0.5-0.7 0.3-0.7-0.5-3.3-1.9-5.8-1.4-2.5-2.6-4-2.6-3.5 0 0.5-0.5 0.4-1.2-0.3-1-1-41.5-1.2-404.8-1.2v-214h202c111.1 0 202 0.2 202 0.5 0 0.3-0.8 2.4-1.9 4.8-1 2.3-2.8 6.7-4 9.7-1.1 3-3.1 9.3-4.5 14-1.3 4.7-3.3 13-4.4 18.5-1.2 5.5-2.6 13.6-3.2 18-0.5 4.4-1.4 12.4-2 17.8-0.5 5.3-1 15.8-1 23.2 0 7.4 0.5 17.9 1 23.3 0.6 5.3 1.5 13.3 2 17.7 0.6 4.4 2 12.5 3.2 18 1.1 5.5 3.1 13.8 4.4 18.5 1.4 4.7 3.4 11 4.5 14 1.2 3 3 7.4 4 9.8 1.1 2.3 1.9 4.7 1.9 5.2 0 0.5 0.5 1 1 1 0.6 0 1-0.6 1-1.2 0-0.7 0.9-3.5 2.1-6.3 1.2-2.7 3.4-8.6 5-13 1.5-4.4 3.7-11.6 4.8-16 1.2-4.4 2.8-11.1 3.6-15 0.8-3.9 2.2-12.6 3.1-19.5 1.2-8.8 1.7-19.7 1.6-37 0-19.5-0.4-27.4-2.1-39-1.2-8-2.8-17.4-3.6-21-0.9-3.6-2.1-8.3-2.7-10.5-0.6-2.2-2.6-8.5-4.4-14-1.8-5.5-4-11.8-5-14-0.9-2.2-2.1-5.2-2.5-6.8-0.5-1.5-0.6-2.5-0.1-2.2 0.4 0.2 1.8-1.7 3.1-4.3 1.3-2.6 2.1-5.1 1.8-5.7-0.3-0.6-0.1-1.7 0.5-2.5 0.8-1.2 0.9-1.2 0.4 0.3-0.3 0.9-0.4 1.7-0.1 1.7 0.3 0 1.7-2.4 3.1-5.2 1.5-2.9 4.7-8.2 7.2-11.8 2.5-3.6 7.6-10.6 11.3-15.5 3.7-4.9 11.4-13.9 17.2-20 5.8-6.1 13-13 16.2-15.5 3.1-2.5 7.7-6.4 10.3-8.7 2.6-2.4 5.4-4.3 6.2-4.3z"/>
		<path id="Path 3" class="s3" d="m430.7 633.5c2.9 0 5.4 0.6 6.3 1.5 0.9 0.8 3.4 4 5.6 7 2.2 3 6 8.2 8.5 11.4 2.4 3.3 9.6 11.3 15.9 17.9 6.3 6.6 16.1 15.7 21.8 20.3 5.6 4.6 10.9 8.4 11.7 8.4 0.8 0 1.7-0.5 2-1 0.3-0.5 3.1-2.9 6.3-5.2 3.1-2.3 10.8-9.2 17.1-15.3 6.3-6 14.6-14.9 18.5-19.6 3.9-4.7 9.1-11.4 11.6-14.9 2.5-3.5 5.4-7.3 6.5-8.4 1.5-1.6 3.3-2.1 6.8-2.1 2.6 0 4.7 0.3 4.7 0.8 0 0.4 0.5 0.5 1 0.2 0.5-0.3 1.5 0.5 2.2 1.8 0.7 1.2 1.1 2.5 1 3-0.1 0.4 0.3 0.7 0.8 0.7 0.5 0 1.2 0.8 1.5 1.8 0.2 0.9 1 2.6 1.7 3.7 0.7 1 2.4 3.7 3.8 6 1.3 2.2 3 4.9 3.7 6 0.7 1.1 1.8 3.1 2.5 4.5 0.7 1.4 2.5 4.3 4.1 6.5 1.5 2.2 2.7 4.3 2.7 4.8 0 0.4 1.1 2.2 2.4 4 1.3 1.7 2.9 4.7 3.7 6.5 0.8 1.7 1.7 3.2 2.2 3.2 0.4 0 0.7 0.5 0.7 1 0 0.5 1.4 3 3 5.5 1.6 2.5 3.6 4.5 4.3 4.5 0.6 0 2.2-0.7 3.5-1.5 1.2-0.8 2.2-2.3 2.2-3.2 0-1-0.8-2.9-1.7-4.3-1-1.4-2.6-3.9-3.5-5.5-0.9-1.6-2-3.8-2.3-4.7-0.3-1-1-1.8-1.5-1.8-0.5 0-1-0.6-1-1.2 0.1-0.7-0.6-1.9-1.5-2.5-0.8-0.7-1.3-1.8-1-2.3 0.3-0.5 0-1-0.5-1-0.5 0-1-0.6-1-1.2 0-0.7-1.1-2.7-2.5-4.3-1.3-1.6-2.1-3.3-1.8-3.7 0.4-0.5 0.1-0.8-0.5-0.8-0.7 0-1.2-0.6-1.2-1.2 0.1-0.7-0.5-1.8-1.2-2.5-0.7-0.6-2.4-3.4-3.8-6.2-1.4-2.8-2.8-5.1-3.2-5.1-0.5 0-0.8-0.6-0.8-1.2 0.1-0.7-0.6-1.9-1.5-2.5-0.8-0.7-1.3-1.8-1-2.3 0.3-0.5 0-1-0.5-1-0.5 0-0.9-0.9-0.7-2 0.2-2 1.3-2 394.7-2v60c0 59.8 0 60-2.4 69.8-1.3 5.3-3.8 13.3-5.5 17.7-1.7 4.4-5.3 11.6-8 16-2.7 4.4-7.4 10.7-10.3 14.1-2.9 3.3-7.3 7.8-9.8 10.1-2.5 2.2-7.9 6.3-12 9-4.1 2.8-9.3 5.9-11.5 7-2.2 1.1-7.1 3.2-11 4.6-3.8 1.4-11.7 3.5-28 6.7h-769l-10.5-2.1c-5.8-1.1-13.6-3.2-17.5-4.6-3.8-1.4-9-3.7-11.5-5.1-2.5-1.3-6.1-3.4-8-4.5-1.9-1.1-6-4-9-6.2-3-2.3-8.3-7.1-11.8-10.6-3.4-3.5-8.7-10-11.6-14.4-2.9-4.4-6.3-10-7.6-12.5-1.2-2.5-3.3-7.4-4.5-11-1.3-3.6-3.2-10.3-4.4-15-2-8.2-2.1-10.3-1.6-128.5l197-0.2c196-0.3 197-0.3 197.3 1.7 0.1 1.1-0.2 2-0.8 2-0.5 0-0.8 0.5-0.5 1 0.3 0.5-0.2 1.6-1 2.3-0.9 0.6-1.6 1.8-1.5 2.5 0 0.6-0.4 1.3-0.9 1.5-0.5 0.1-2 2.5-3.5 5.2-1.4 2.8-3.2 5.9-3.9 7-0.6 1.1-1.6 2.3-2.2 2.7q-1 0.8 0 0.7c0.6 0-0.2 1.6-1.7 3.6-1.6 1.9-2.8 4-2.8 4.5 0 0.5-0.4 1-1 1-0.5 0-1 0.6-1 1.3 0 0.6-1.8 4-4 7.5-2.2 3.4-4 6.4-4 6.7 0 0.3-0.9 1.7-2 3.3-1.2 1.5-2.1 3.5-2 4.5 0 0.9 1.1 2.4 2.5 3.2 1.4 0.8 3.2 1.3 4 1 0.8-0.3 3.1-3 5-6 1.9-3 4.4-7.5 5.5-10 1.1-2.5 2.5-4.5 3-4.5 0.6 0 1.4-1.2 2-2.7 0.5-1.6 1.7-4.2 2.7-5.8 1-1.6 2-3.2 2.3-3.5 0.3-0.3 1.3-1.9 2.3-3.5 1-1.6 2-3.8 2.3-4.7 0.2-1 0.9-1.8 1.4-1.8 0.6 0 1.2-0.8 1.5-1.7 0.2-1 1.6-3.6 2.9-5.8 1.4-2.2 3-4.9 3.5-6 0.6-1.1 1.8-3.2 2.8-4.8 1-1.5 2.2-2.4 2.6-2 0.4 0.5 0.7 0.3 0.7-0.2 0-0.5 2.1-1 4.7-1z"/>
		<path id="Path 4" class="s4" d="m369.6 278c0.2 0 1.1 0.7 1.9 1.5 0.8 0.8 1.8 1.3 2.2 1 0.5-0.2 1.9 0.7 3.3 2.2 1.4 1.4 1.9 2.3 1.2 2-0.6-0.4-1.2-0.4-1.2 0 0.1 0.5 2.1 2.7 4.5 5 2.5 2.4 4.4 4.6 4.3 4.9 0 0.3 1.9 2.6 4.4 5.1 2.5 2.4 4.5 4.1 4.6 3.6 0.1-0.4 1.7 0.8 3.7 2.7 1.9 1.9 3.3 3.7 3 4-0.3 0.3 0.8 1.6 2.3 2.9 1.5 1.3 2 2 1.2 1.5-0.9-0.5-0.8 0.1 0.5 1.6 1.1 1.3 2.8 3.2 3.7 4.2 1 1 2.1 1.8 2.5 1.8 0.5 0 1.6 0.8 2.6 1.8 1 0.9 1.8 2.4 1.7 3.2 0 0.8 1.4 3 3 4.7 1.7 1.8 3.1 3.6 3.2 4 0.2 0.5 0.6 0.7 1 0.5 0.5-0.1 0.8 0.9 0.8 2.3 0 1.4 0.4 2.5 1 2.5 0.5 0 1 0.7 1 1.5 0 0.9 0.5 1.2 1.2 0.7q1.3-0.7 0.5 0.5c-0.4 0.7 0 2 0.8 2.8 0.8 0.8 1.4 2.7 1.3 4.2-0.1 1.6 0.2 3.5 0.7 4.3 0.8 1.2 0.7 1.3-0.4 0.5-1.2-0.8-1.3-0.6-0.8 1.2 0.5 1.8 0 3-2.6 5.2-2.9 2.7-3.1 3.2-1.7 4.7 0.8 1 2.5 2.8 3.7 4.1 1.8 1.8 2.1 2.8 1.4 4.5-0.5 1.3-1.4 2.2-2 2-0.6-0.1-0.9 0.2-0.6 0.8 0.3 0.6 0 1.2-0.5 1.5-0.6 0.3-1.7-0.1-2.6-0.8-0.8-0.6-1.3-1.8-1-2.5 0.3-0.6 0.1-1-0.4-0.7-0.6 0.3-1.4-0.3-2-1.3-0.5-0.9-0.7-2-0.5-2.5 0.3-0.4 0-1.6-0.5-2.7-0.8-1.5-2-2-5-2-2.2 0-4.2 0.4-4.5 1q-0.5 1-2.5 0c-1.1-0.6-1.8-1.4-1.5-2 0.3-0.6 0-1-0.5-1-0.6 0-1.3-0.1-1.8-0.3-0.4-0.1-1.3-0.6-2-1-0.6-0.4-1-1.1-0.7-1.7 0.3-0.6-0.9-2.2-2.5-3.8-2.2-1.9-2.8-3.3-2.4-4.7 0.5-1.6 0.4-1.7-0.5-0.5-0.9 1.3-1.1 1.3-1.2 0-0.1-0.8-0.1-2.1 0-2.8 0-0.6-0.2-1-0.7-0.7-0.4 0.2-1.3-0.7-2-2-0.6-1.4-0.9-3.1-0.5-3.8q0.8-1.2-0.5-0.5c-0.7 0.5-1.4 0.2-1.7-0.7-0.3-0.8-0.1-1.7 0.5-2q1-0.5 0-2.5c-0.6-1.1-1.5-1.8-2-1.5-0.6 0.3-1 0.1-1-0.5 0-0.6-0.3-1.8-0.6-2.8-0.5-1.4-0.4-1.5 0.5-0.2 0.6 0.8 1.1 1.2 1.1 0.7 0-0.4-0.2-1.4-0.5-2.2-0.3-0.8-1-1.3-1.5-1-0.6 0.3-1.2-0.4-1.5-1.5-0.3-1.1-0.1-1.8 0.5-1.5 0.5 0.3 1 0.4 1 0.2 0-0.1-0.9-1.3-2-2.7-1.1-1.4-1.8-3.3-1.5-4.3 0.3-0.9 0-1.7-0.5-1.7-0.6 0-1.9-2.9-3-6.5-1.1-3.6-1.8-6.8-1.5-7.3 0.2-0.4-0.4-1.8-1.5-3.2-1.2-1.4-2-3.1-2-3.8 0-0.6 0.6-0.9 1.2-0.6 0.7 0.3 0.4-0.2-0.7-1.1-1.3-1-2-2.9-2.1-5.3-0.1-2-0.2-4.1-0.3-4.7-0.1-0.6-0.5-0.3-1.1 0.5-0.6 1.1-0.8 0.5-0.7-2q0.2-3.5-1.1-3.3c-0.6 0.2-1.2 0.1-1.2-0.2 0-0.3 0.3-1.2 0.6-2 0.3-0.8 0.8-1.5 1-1.5zm260.6 0c0.5 0 0.8 0.2 0.8 0.5 0 0.3 0.3 1.3 0.7 2.2 0.6 1.4 0.5 1.6-0.7 0.8-1.1-0.8-1.2-0.6-0.5 1.5 0.6 1.8 0.6 2.3-0.3 1.7-0.9-0.5-1-0.1-0.5 1.4 0.6 1.6 0.4 2-0.7 1.8-1.1-0.3-1.5 0.5-1.5 2.6-0.1 1.6-1 5.6-2 8.7-1.1 3.1-2.3 5.5-2.8 5.2-0.4-0.2-0.4 0.6 0 1.8 0.5 1.7 0.4 2.1-0.5 1.5-0.8-0.5-1-0.2-0.6 1 0.4 1.1-0.2 2.9-1.5 4.5-1.3 1.7-1.7 2.9-1 3 0.8 0.2 0.7 0.8-0.2 1.8-0.8 0.8-1.6 2.5-1.7 3.7-0.1 1.3-0.9 3-1.7 3.8-0.8 0.8-1.5 1.7-1.5 2 0 0.3 0.4 0.3 1 0 0.6-0.3 0.8 0.4 0.5 1.5-0.3 1.3-1 1.7-1.7 1.2-0.9-0.5-1-0.2-0.5 1 0.4 1 0.3 1.8-0.3 1.8-0.6 0-0.8 0.7-0.5 1.5 0.3 0.8-0.2 1.7-1 2-0.9 0.3-1.3 1.3-1 2.5 0.3 1.1 0.3 2.7 0 3.5-0.3 0.8-1 1.3-1.5 1-0.6-0.3-1.3 0.1-1.7 0.7q-0.8 1.3 0.5 0.5c0.6-0.4 1.2-0.4 1.2 0-0.1 0.5-1.2 2.8-2.5 5.3-1.3 2.5-2.4 3.8-2.5 3 0-1.3-0.1-1.3-0.9 0-0.6 0.8-0.8 1.8-0.5 2.2 0.2 0.5-0.1 0.8-0.6 0.8-0.6 0-0.8 0.7-0.5 1.5 0.3 0.8-0.3 1.8-1.2 2.2-0.9 0.5-3 2-4.5 3.5-1.5 1.6-2.8 3.2-2.8 3.8 0 0.6-0.7 1.2-1.5 1.5-0.8 0.3-1.7 0.1-2-0.5-0.3-0.6-2.3-1-4.5-1-3.2 0-4.3 0.5-5.5 2.5-0.9 1.5-1.1 2.6-0.5 2.7 0.6 0.2-0.1 2-1.5 4-1.4 2.1-3.1 3.6-3.8 3.4-0.6-0.2-1.1-0.9-1-1.5 0.2-0.6-0.2-1-0.8-0.9-0.6 0.2-1.5-0.7-2-2-0.7-1.8-0.3-2.9 6.1-9.7l-2.1-1.5c-1.5-1.1-1.9-1.9-1.3-3 0.6-1.1 0.5-1.3-0.4-0.8-0.7 0.5-1.4 0.2-1.7-0.7-0.3-0.8-0.2-2.3 0.2-3.3 0.5-1 0.4-1.4-0.2-1-0.6 0.3-1 0-1-0.8 0-0.8 0.2-1.4 0.5-1.4 0.3 0 0.3-1 0.1-2.3-0.2-1.2 0.4-3 1.3-4 0.9-0.9 1.3-2.3 0.9-3-0.6-0.9-0.4-0.9 0.7-0.2 1.2 0.8 1.3 0.6 0.7-0.8-0.5-1.2-0.2-1.7 0.8-1.7 0.9 0 1.5-0.9 1.5-2.5 0-1.4 0.3-2.4 0.7-2.3 0.5 0.2 0.9 0 1-0.5 0.2-0.4 1.6-2.2 3.3-4 1.6-1.7 3-3.9 3-4.7 0-0.8 0.8-2.3 1.8-3.3 0.9-1 2-1.8 2.4-1.7 0.5 0 1.6-0.8 2.5-1.8 1-1 2.7-2.9 3.8-4.2 1.2-1.4 1.4-2 0.5-1.5-0.8 0.5 0.3-1.4 2.6-4.1 2.2-2.8 4.8-5.7 5.8-6.5 0.9-0.8 1.7-1.1 1.6-0.7 0 0.5 0.7 0.2 1.5-0.5 0.9-0.6 2.1-1.7 2.8-2.3 0.7-0.7 2-2.1 2.9-3.3 1-1.1 1.8-2.4 1.8-2.9 0.1-0.4 0.8-1.3 1.8-2 0.9-0.8 1-1 0.2-0.5-1.1 0.5-1.3 0.4-0.8-0.5 0.5-0.6 1.3-1.2 1.8-1.2 0.6 0 2.2-1.1 3.5-2.5 1.4-1.4 2.5-2.7 2.5-3 0-0.3-0.6-0.2-1.3 0.2-0.6 0.3-0.1-0.6 1.3-2 1.4-1.5 2.8-2.4 3.2-2.2 0.5 0.3 1.4-0.2 2-1 0.7-0.8 1.6-1.4 2-1.5zm-204.2 341c0.5 0.8 1 1 1 0.5 0-0.5 0.7 0.1 1.4 1.5 1.1 1.9 1.1 3 0.2 4.7-0.6 1.2-1.4 2-1.9 1.8-0.4-0.3-0.4 0.3 0 1.2 0.5 1.3 0.4 1.6-0.5 1q-1.2-0.7-0.7 0.8c0.3 0.8-0.4 2.1-1.5 2.7-1.1 0.7-2 2.1-2 3 0 1-0.9 2.7-2 3.8-1.1 1.1-2 2.5-2 3 0 0.5-0.3 0.8-0.8 0.5-0.4-0.2-1.7 1.4-3 3.5-1.2 2.2-1.8 4.1-1.2 4.2 0.5 0.2-0.5 2.7-2.3 5.6-1.8 2.9-3.6 4.9-4.1 4.5-0.5-0.5-0.6-0.2-0.1 0.7 0.6 1.1-0.2 2.3-2.6 4.3-1.9 1.6-2.8 2.6-2.2 2.3 0.7-0.3 1.3-0.4 1.3-0.1 0 0.3-0.2 1.2-0.5 2-0.3 0.8-1.2 1.5-2 1.5-0.8 0-2 0.9-2.5 2-0.6 1.1-0.8 2.7-0.5 3.5 0.3 0.9-0.1 1.5-1 1.5-0.8 0-1.3 0.5-1 1 0.3 0.5-0.2 1.2-1 1.5-0.8 0.3-1.3 1-1 1.5 0.3 0.5 0 1-0.5 1-0.6 0-1.3 1-1.6 2.2-0.3 1.3-0.7 3-0.8 3.8 0 0.8-0.7 1.5-1.4 1.5-0.8 0-2 0.9-2.8 2-1.1 1.6-1.9 1.8-4.1 1.1-1.6-0.5-2.2-1-1.6-1.2 0.8-0.3 1.1-1.4 0.8-2.9-0.4-2 0-2.7 2-3.5 1.4-0.5 2.8-2 3.2-3.3 0.4-1.2 0.6-2.5 0.5-3-0.1-0.4 0.2-0.7 0.8-0.7 0.5 0 1-1 1-2.3 0-1.2 0.9-3.7 2-5.5 1.1-1.7 2.4-3.2 3-3.2 0.5 0 1-0.7 1-1.5 0-0.8 0.4-1.3 1-1 0.5 0.3 1-0.6 1-2 0-1.4 0.9-3.4 2-4.5 1.1-1.1 2-2.5 2-3 0-0.5 0.4-0.8 1-0.5 0.5 0.3 1.2-0.2 1.5-1 0.3-0.8 0-1.3-0.5-1-0.6 0.3-1 0-1-0.5 0-0.5 0.7-1 1.5-1 0.8 0 1.3-0.5 1-1-0.3-0.5 0.2-1.2 1-1.5 0.8-0.3 1.3-1 1-1.5-0.3-0.5-0.2-1 0.2-1 0.5 0 1.4-0.9 2-2 0.7-1.1 0.8-1.8 0.3-1.5-0.6 0.3-1 0.2-1-0.3 0-0.4 0.8-1.9 1.8-3.5 0.9-1.5 2.1-2.4 2.5-2 0.5 0.5 0.6 0.1 0.2-0.7-0.3-0.8 0.2-2.2 1.1-3 1.6-1.3 1.7-1.3 0.8 0-0.6 1.1-0.6 1.3 0.3 0.7 0.7-0.4 1.3-1.7 1.3-3-0.1-1.3 0.6-3.2 1.4-4.3 0.9-1 1.6-1.4 1.6-0.9 0 0.5 0.9-0.4 2-2 1.1-1.6 2-3.8 2-4.8 0-0.9 0.4-1.5 1-1.2 0.5 0.3 1-0.1 1-0.8q0-1.2 1 0.3zm148.6-0.3c0.2 0.7 0.8 1.1 1.4 0.8 0.5-0.3 1 0.2 1 1 0 0.8 0.7 2.9 1.5 4.5 0.8 1.6 2.2 3 3 3 0.8 0 1.5 0.2 1.5 0.5 0 0.3 0.3 1.3 0.7 2.2 0.5 1.3 0.4 1.6-0.5 1-0.9-0.5-0.9-0.3 0 1.2 0.7 1.1 1.6 1.8 2 1.5 0.5-0.2 1.2 0.3 1.8 1.1 0.5 0.8 0.7 2.1 0.3 2.7-0.3 0.7-0.2 1 0.3 0.5 0.5-0.4 1.7 0.5 2.6 2 1 1.6 1.8 3.1 1.8 3.5 0 0.5-0.6 0.5-1.2 0q-1.3-0.7-0.5 0.5c0.4 0.7 1.1 1.1 1.7 0.8 0.5-0.3 1.4 0.3 1.9 1.2 0.4 1 0.7 2.4 0.5 3-0.2 0.7 0 1.3 0.6 1.3 0.5 0 0.8 0.5 0.5 1-0.3 0.5 0.2 1 1 1 0.8 0 1.5 0.5 1.5 1 0 0.5-0.5 0.8-1 0.5-0.6-0.3-0.8 0.2-0.5 1 0.3 0.8 0.9 1.3 1.5 1 0.5-0.3 1 0 1 0.5 0 0.5 0.9 1.9 2 3 1.1 1.1 2 3.1 2 4.5 0 1.4 0.4 2.3 1 2 0.5-0.3 1.4 0.2 2 1 0.5 0.8 0.7 2.1 0.2 2.7-0.4 0.8-0.3 1 0.3 0.6 0.6-0.4 1.9 0.9 3 3 1.1 2 2.6 4.2 3.2 4.9 0.7 0.7 1.3 1.8 1.3 2.3 0 0.5-0.5 0.8-1 0.5-0.6-0.3-0.4 0.7 0.4 2.2 0.7 1.6 2.3 3.1 3.5 3.5 1.6 0.6 2 1.4 1.6 3.3-0.3 1.4-0.1 2.5 0.5 2.5 0.5 0 0.1 0.9-1 2-1.1 1.1-2.7 2-3.5 2-0.8 0-2.6-2-4-4.5-1.4-2.5-2.2-5-1.8-5.7q0.8-1.3-0.5-0.5c-0.7 0.4-1.5 0-2.1-1.1-0.4-0.9-0.7-2.3-0.5-3 0.2-0.6-0.1-1.2-0.6-1.2-0.6 0-0.8-0.5-0.5-1 0.3-0.5-0.2-1-1-1-1 0-1.3-0.6-1-1.8 0.4-1.1-0.5-2.7-2.5-4.5-1.8-1.6-3-3.7-3-5.2 0-1.4-0.6-2.8-1.3-3.2-0.9-0.6-0.9-0.4-0.3 0.7 0.9 1.3 0.8 1.3-0.8 0-0.9-0.8-1.4-2.2-1.1-3 0.4-0.8 0.3-1.2-0.2-0.7-0.4 0.4-1.6-0.5-2.5-2-1-1.6-1.8-3.8-1.8-5.1 0-1.2-0.5-2.2-1.2-2.2-0.6 0-0.8-0.3-0.5-0.8 0.4-0.4-0.3-2.4-1.6-4.4-1.2-2-2.5-3.5-3-3.3-0.4 0.3-0.7 0-0.7-0.5 0-0.5-0.9-1.9-2-3-1.1-1.1-2-3.1-2-4.5 0-1.4-0.5-2.3-1-2-0.6 0.3-1-0.2-1-1 0-0.8-0.7-1.7-1.5-2-0.9-0.3-1.3-1.2-0.9-2.3 0.3-0.9 0.2-1.3-0.3-0.9-0.4 0.4-1.3-0.3-1.9-1.5-0.9-1.7-0.9-2.9 0-4.5 0.6-1.2 1.4-2 1.8-1.8 0.5 0.3 0.8-0.1 0.9-0.8 0-1 0.1-1 0.5 0zm-82.8-306.5c1.6 0.3 1.7 5.9 1.7 69.8 0 65.4-0.1 69.5-1.8 69.7-1 0.2-2.3-0.8-3.2-2.7-1-2.1-1.1-2.8-0.3-2.3 0.9 0.6 1 0.4 0.3-0.7-0.5-0.8-1-1.9-1-2.5-0.1-0.6-0.6-0.9-1.3-0.8-0.7 0.2-1-0.5-0.7-1.7 0.3-1.2-0.1-2.2-1-2.5-0.8-0.3-2.6-4.1-4-8.8-1.4-4.5-2.3-8.8-2-9.5 0.3-0.6 0.1-1.3-0.5-1.5-0.5-0.1-1.7-5.8-2.6-12.7-1.2-9.3-1.5-16.9-1.1-29.5 0.3-9.4 1.2-20.6 2.1-25 0.9-4.4 1.8-9.2 2.1-10.8 0.3-1.5 0.9-2.7 1.5-2.7 0.5 0 0.8-0.7 0.5-1.5-0.3-0.8 0.5-4 1.7-7 1.3-3.1 2.6-5.6 3-5.5 0.5 0 0.6-0.4 0.3-1-0.3-0.6 0.7-3.3 2.1-6.1 1.8-3.4 3.1-4.9 4.2-4.7zm16.7-0.2c0.8 0 2.6 2.2 4 5 1.4 2.7 2.3 5.4 2 6-0.3 0.6-0.1 1 0.5 1 0.5 0 1.4 1.2 1.9 2.7 0.6 1.6 0.7 3.2 0.3 3.6-0.4 0.4-0.1 1.1 0.6 1.5 0.7 0.4 1.3 1.8 1.4 3.2 0.1 1.4 0.5 2.7 0.9 3 0.4 0.3 1.8 5.2 3 11 1.9 9 2.3 13.7 2.3 32 0.1 14.1-0.4 24.1-1.3 29-0.7 4.1-1.9 10-2.7 13-0.8 3-2.4 8.1-3.6 11.3-1.3 3.2-2.6 5.8-3.1 5.7-0.4 0-0.4 0.7 0 1.6 0.6 1.2 0.4 1.5-0.7 1.3-0.8-0.2-1.4 0-1.5 0.6 0 0.6-0.5 1.7-1 2.5-0.7 1.1-0.7 1.3 0.2 0.7 0.9-0.5 0.8 0.2-0.2 2.3-0.9 1.9-2.2 2.9-3.3 2.7-1.6-0.2-1.7-4.4-2-68.7-0.1-37.7 0-69.1 0.3-69.8 0.2-0.6 1.1-1.2 2-1.2zm-7 162.6c1.6 0.2 4.3 1.7 5.8 3.2 1.6 1.5 3.4 4.1 4.1 5.7 0.7 1.6 1.1 4.4 0.9 6-0.3 2 0.1 3.5 1.1 4.5 1 0.9 1.7 3.1 1.7 5.5 0 2.4-0.7 4.6-1.7 5.5-1 1-1.4 2.5-1.1 4.5 0.2 1.7-0.3 4.5-1.2 6.3-0.9 1.8-2.2 3.2-2.9 3.2-0.6 0-1.2 0.7-1.2 1.5 0 0.8-1.5 2.2-3.3 3.1-2.4 1.2-4 1.4-6.2 0.7-1.7-0.5-3.5-1.9-4-3.1-0.6-1.2-1.5-2.2-2-2.2-0.6 0-1.7-1.4-2.6-3.2-0.9-1.8-1.4-4.6-1.2-6.3 0.3-2-0.1-3.5-1.1-4.5-1-0.9-1.7-3.1-1.7-5.5 0-2.4 0.7-4.6 1.7-5.5q1.6-1.5 1.1-4.5c-0.3-1.8 0.3-4.4 1.3-6.5 1-1.9 2.9-4.5 4.2-5.6 1.2-1.2 3-2.4 3.8-2.7 0.8-0.4 2.8-0.4 4.5-0.1zm-9.7 72.6c1.6 0.3 1.7 5.9 1.9 68.8 0.2 40.9-0.1 68.9-0.6 69.5-0.7 0.7-1.4 0.5-2.4-0.5-0.7-0.8-1.4-1.8-1.5-2.2-0.1-0.5-0.4-0.8-0.7-0.8-0.3 0-1.2-1.1-2-2.5-0.8-1.4-1.3-3-1-3.5 0.3-0.5 0-1-0.5-1-0.6 0-0.7-0.8-0.3-1.7 0.5-1.1 0.4-1.5-0.2-1.1-0.6 0.4-1.6-1.1-2.5-3.5-0.8-2.3-1.4-4.9-1.4-5.7 0.1-0.8-0.2-1.7-0.6-2-0.4-0.3-1.1-2.1-1.4-4-0.6-2.7-0.5-3.2 0.4-2 0.9 1.3 1 1.2 0.7-0.5-0.2-1.1-0.9-1.9-1.5-1.7-0.8 0.1-1.6-2.7-2.5-8-0.6-4.6-1.2-17.3-1.2-28.3 0-11 0.6-23.7 1.2-28.2 0.7-4.6 1.7-8.3 2.3-8.3 0.5 0 0.8-0.5 0.5-1-0.3-0.5 0.3-3.7 1.2-7 1-3.3 2.1-6 2.5-6 0.5 0 1-0.7 1.3-1.5 0.3-0.8 0-1.3-0.5-1-0.6 0.3-0.8-0.2-0.5-1 0.3-0.8 0.9-1.5 1.5-1.5 0.5 0 0.8-0.6 0.6-1.2-0.2-0.7 1-3.9 2.6-7.1 2.1-4.1 3.5-5.7 4.6-5.5zm16.7-0.2c0.8 0 2.8 2.6 4.5 5.8 1.6 3.1 2.6 6.1 2.2 6.5-0.4 0.4-0.2 1.1 0.4 1.5 0.6 0.4 1.8 2.6 2.7 5 0.9 2.3 1.6 4.5 1.5 5-0.1 0.4 0.4 1.8 0.9 3.2 0.6 1.4 1.9 6.8 2.9 12 1.4 7.1 1.8 14.6 1.9 30 0 11.6-0.5 24.1-1.3 28.8-0.6 4.5-1.7 8.2-2.2 8.2-0.6 0-0.8 0.5-0.5 1 0.3 0.5-0.2 3.6-1.1 6.8-0.9 3.1-2.3 6.3-3 7-0.8 0.6-1.1 1.8-0.8 2.5 0.3 0.6-0.6 3.7-2 6.7-1.4 3-2.6 5-2.7 4.5 0-0.5-0.4 0.1-0.8 1.5-0.4 1.6-1.4 2.5-2.6 2.5-2 0-2-1.3-2.3-68-0.1-37.4 0-68.6 0.3-69.2 0.2-0.7 1.1-1.3 2-1.3z"/>
		<path id="Path 5" class="s0" d="m475.7 378.5c0.2 2.8 0.2 6.8 0 9-0.2 2.2-0.3-0.1-0.3-5 0-4.9 0.1-6.8 0.3-4zm0 234c0.2 2.8 0.2 6.8 0 9-0.2 2.2-0.3 0-0.3-5 0-5 0.1-6.8 0.3-4z"/>
	</g>
</svg>